<?xml version="1.0" encoding="UTF-8"?>
<svg id="Layer_1" data-name="Layer 1" xmlns="http://www.w3.org/2000/svg" viewBox="0 0 950 700.58">
  <defs>
    <style>
      .cls-1 {
        fill: #231f20;
      }

      .cls-2 {
        fill: #ec1c24;
      }
    </style>
  </defs>
  <path class="cls-2" d="M570.54,329.74c-11.31,11.31-24.14,20.14-37.84,26.52h150.59c14.47-24.8,24.07-51.65,28.87-79.17h-109.39c-6.27,19.25-16.94,37.36-32.23,52.65M664.57,122.97l5.39-5.39c-9.51-14.69-19.73-29.62-32.66-42.54-93.48-93.44-235.07-103.38-330.04-8.46-78.57,78.53-91.08,198.07-37.57,289.68h150.63c-13.69-6.38-26.53-15.21-37.83-26.52-51.94-51.91-51.94-136.06,0-187.97,40.49-40.47,91.91-45.46,136.34-23.5l-102.96,102.92,75.23,75.19,100.6-100.56,72.88-72.84Z"/>
  <path class="cls-1" d="M93.82,513.98h-56.56c2.92-13.32,14.82-21.08,28.28-21.08s25.36,7.77,28.28,21.08M130.17,538.84c.67-3.33.9-6.44.9-9.77,0-37.08-27.6-67.27-65.76-67.27S0,492.22,0,527.96s29.63,65.28,65.98,65.28c27.31,0,48.84-17.06,59.91-40.71h-38.9c-5.62,6.28-11.82,9.62-21.01,9.62-14.59,0-26.93-8.65-29.17-23.31h93.36ZM209.05,496.78h7.51v-34.69c-4.82,0-16.3.31-16.3.31-13.44.53-28.39,5.06-37.21,15.75-10.1,12.43-11.22,22.65-11.22,37.97v73.7h37.26v-68.16c0-13.99,3.14-24.88,19.97-24.88M324.97,527.52c0,17.76-13.02,31.53-31.19,31.53s-30.97-13.99-30.97-31.08,12.57-31.75,30.75-31.75,31.42,13.32,31.42,31.3M324.97,589.24h37.25v-123.21h-37.25v13.1h-.45c-7.4-12.21-22.66-17.32-36.36-17.32-37.48,0-62.61,29.75-62.61,65.71s24.24,65.94,62.61,65.94c13.47,0,29.62-4.88,36.36-17.54h.45v13.32ZM420.13,499.55c0-5.55,5.61-8.21,10.55-8.21,6.51,0,11.45,2.44,11.67,9.32h36.58c-2.47-26.2-22.89-38.85-47.8-38.85s-48.26,14.88-48.26,40.63c0,17.32,14.81,26.87,29.62,32.19,5.39,2,10.78,3.77,16.16,5.55,6.73,2.67,16.83,5.33,16.83,14.21,0,6.44-7.4,9.54-13.01,9.54-7.41,0-13.02-3.77-14.14-11.32h-37.03c2.92,27.08,24.68,40.85,50.72,40.85s50.72-14.2,50.72-41.96c0-43.51-62.61-32.63-62.61-51.95M657.31,589.82h37.26v-73.7c0-15.32-1.12-25.54-11.22-37.97-8.83-10.69-23.72-15.22-37.21-15.75,0,0-4.69-.31-9.67-.31s-9.68.31-9.68.31c-10.19.4-21.25,4.43-29.85,10.38-8.58-5.95-19.61-9.98-29.85-10.38,0,0-4.69-.31-9.67-.31s-9.68.31-9.68.31c-13.44.53-28.39,5.06-37.21,15.75-10.1,12.43-11.22,22.65-11.22,37.97v73.7h37.26v-68.16c0-13.99,3.14-25.16,19.97-25.16h1.76c16.83,0,19.98,11.18,19.98,25.16v68.16h37.34v-68.16c0-13.99,3.14-25.16,19.97-25.16h1.76c16.83,0,19.98,11.18,19.98,25.16v68.16ZM821.42,577.7c10.1-12.43,11.22-22.65,11.22-37.96v-73.7h-37.26v68.16c0,13.99-3.14,25.14-19.97,25.14h-1.76c-16.83,0-19.97-11.16-19.97-25.14v-68.16h-37.26v73.7c0,15.32,1.12,25.54,11.22,37.96,8.83,10.69,23.78,15.21,37.21,15.75,0,0,4.85.31,9.68.31s9.67-.31,9.67-.31c13.49-.53,28.39-5.05,37.21-15.75M909.61,500.66h36.58c-2.47-26.2-22.89-38.85-47.8-38.85s-48.25,14.88-48.25,40.63c0,17.32,14.81,26.87,29.62,32.19,5.39,2,10.77,3.77,16.16,5.55,6.73,2.67,16.83,5.33,16.83,14.21,0,6.44-7.41,9.54-13.02,9.54-7.4,0-13.01-3.77-14.14-11.32h-37.03c2.92,27.08,24.69,40.85,50.73,40.85s50.71-14.2,50.71-41.96c0-43.51-62.61-32.63-62.61-51.95,0-5.55,5.61-8.21,10.55-8.21,6.51,0,11.45,2.44,11.67,9.32"/>
  <polygon class="cls-1" points="40.28 699.58 40.28 676.49 18.4 676.49 18.4 699.58 10.66 699.58 10.66 646.51 18.4 646.51 18.4 669.39 40.28 669.39 40.28 646.51 48.02 646.51 48.02 699.58 40.28 699.58"/>
  <path class="cls-1" d="M90.45,700.58c-15.2,0-27.6-12.33-27.6-27.54s12.33-27.54,27.6-27.54,27.6,12.26,27.6,27.68-12.48,27.39-27.6,27.39M90.45,652.61c-8.24,0-14.77,4.45-18,11.98-1.15,2.65-1.87,5.52-1.87,8.46s.71,5.88,1.87,8.6c3.3,7.46,9.82,11.83,18,11.83,8.75,0,15.49-5.02,18.5-13.12.86-2.23,1.36-4.66,1.36-7.1,0-11.26-8.31-20.66-19.86-20.66"/>
  <path class="cls-1" d="M168.73,698c-3.59,1.65-7.6,2.58-11.55,2.58-15.2,0-27.17-12.26-27.17-27.39s11.76-27.68,27.1-27.68c9.97,0,19.07,5.59,23.81,14.34h-9.03c-3.95-4.45-8.39-7.24-14.49-7.24-11.19,0-19.65,9.68-19.65,20.58s8.74,20.29,19.72,20.29c8.46,0,15.27-5.37,18.28-13.19h-24.74v-7.1h33.56c-.14,10.9-5.81,20.22-15.85,24.81"/>
  <polygon class="cls-1" points="198.25 699.58 198.25 646.51 226.86 646.51 226.86 653.61 205.99 653.61 205.99 669.24 226.86 669.24 226.86 676.35 205.99 676.35 205.99 692.48 226.86 692.48 226.86 699.58 198.25 699.58"/>
  <path class="cls-1" d="M254.81,700.58c-9.68,0-16.35-7.1-16.35-16.71h7.74c0,5.16,3.02,9.61,8.61,9.61,5.3,0,8.53-3.8,8.53-8.96,0-5.67-4.09-6.96-8.53-8.68-8.25-3.16-14.84-5.59-14.84-15.92,0-8.25,6.73-14.42,14.84-14.42,8.81,0,15.2,5.81,15.2,14.77h-7.75c0-4.59-2.87-7.67-7.45-7.67-3.88,0-7.1,3.37-7.1,7.24,0,11.26,23.38,4.52,23.38,24.67,0,9.53-6.81,16.06-16.28,16.06"/>
  <path class="cls-1" d="M325,660.07c-3.95-4.59-8.68-7.46-14.92-7.46-11.19,0-19.72,9.25-19.72,20.3s8.53,20.58,19.57,20.58c5.59,0,10.9-2.79,14.49-7.03h9.53c-5.02,8.82-13.91,14.12-24.09,14.12-15.13,0-27.25-12.76-27.25-27.75s12.19-27.32,27.32-27.32c5.67,0,11.62,1.87,16.21,5.16,3.73,2.65,5.95,5.45,8.17,9.4h-9.32Z"/>
  <polygon class="cls-1" points="377.54 699.58 377.54 676.49 355.67 676.49 355.67 699.58 347.92 699.58 347.92 646.51 355.67 646.51 355.67 669.39 377.54 669.39 377.54 646.51 385.28 646.51 385.28 699.58 377.54 699.58"/>
  <path class="cls-1" d="M427.72,700.58c-15.2,0-27.61-12.33-27.61-27.54s12.33-27.54,27.61-27.54,27.61,12.26,27.61,27.68-12.48,27.39-27.61,27.39M427.72,652.61c-8.25,0-14.77,4.45-18,11.98-1.15,2.65-1.86,5.52-1.86,8.46s.71,5.88,1.86,8.6c3.3,7.46,9.83,11.83,18,11.83,8.75,0,15.49-5.02,18.5-13.12.86-2.23,1.36-4.66,1.36-7.1,0-11.26-8.32-20.66-19.86-20.66"/>
  <path class="cls-1" d="M494.95,700.58c-15.2,0-27.6-12.33-27.6-27.54s12.33-27.54,27.6-27.54,27.6,12.26,27.6,27.68-12.48,27.39-27.6,27.39M494.95,652.61c-8.24,0-14.77,4.45-18,11.98-1.15,2.65-1.87,5.52-1.87,8.46s.72,5.88,1.87,8.6c3.29,7.46,9.82,11.83,18,11.83,8.75,0,15.49-5.02,18.5-13.12.86-2.23,1.37-4.66,1.37-7.1,0-11.26-8.32-20.66-19.87-20.66"/>
  <polygon class="cls-1" points="537.6 699.58 537.6 646.51 545.33 646.51 545.33 692.48 563.76 692.48 563.76 699.58 537.6 699.58"/>
  <path class="cls-1" d="M661.54,690.54c-2.94,6.74-9.46,9.03-16.35,9.03h-15.85v-53.06h13.77c6.74,0,12.91,2.3,15.49,8.89.71,1.86,1.08,3.87,1.08,5.8,0,4.38-1.51,7.24-4.73,10.04,5.02,2.87,7.89,6.95,7.89,12.9,0,2.23-.44,4.38-1.29,6.39M642.97,653.61h-5.88v14.99h6.31c5.02,0,8.53-2.15,8.53-7.45,0-5.67-4.01-7.53-8.97-7.53M653.22,678.93c-2.22-2.94-5.23-3.23-8.68-3.23h-7.45v16.78h8.39c5.02,0,9.61-2.87,9.61-8.32,0-1.86-.72-3.8-1.87-5.23"/>
  <path class="cls-1" d="M702.82,678.78c-1.58.57-3.44,1-5.16,1l14.84,19.79h-9.68l-17.49-24.6h-.15v24.6h-7.75v-53.06h16.42c5.02,0,10.4.79,14.12,4.45,3.37,3.22,4.88,7.96,4.88,12.55,0,7.17-3.16,12.84-10.04,15.27M693.36,653.61h-8.17v20.3h5.31c6.88,0,14.63-1.94,14.63-10.4,0-6.74-5.59-9.9-11.76-9.9"/>
  <path class="cls-1" d="M757.38,696.06c-3.37,3.01-7.88,4.52-12.4,4.52s-9.04-1.51-12.41-4.52c-3.94-3.51-5.38-8.45-5.38-13.62v-35.93h7.75v35.71c0,6.32,3.45,11.26,10.04,11.26s10.04-4.94,10.04-11.26v-35.71h7.75v35.93c0,5.17-1.43,10.11-5.38,13.62"/>
  <path class="cls-1" d="M792.93,700.58c-9.68,0-16.35-7.1-16.35-16.71h7.75c0,5.16,3.01,9.61,8.6,9.61,5.3,0,8.53-3.8,8.53-8.96,0-5.67-4.09-6.96-8.53-8.68-8.25-3.16-14.84-5.59-14.84-15.92,0-8.25,6.74-14.42,14.84-14.42,8.81,0,15.2,5.81,15.2,14.77h-7.75c0-4.59-2.87-7.67-7.45-7.67-3.88,0-7.1,3.37-7.1,7.24,0,11.26,23.38,4.52,23.38,24.67,0,9.53-6.81,16.06-16.28,16.06"/>
  <path class="cls-1" d="M837.01,700.58c-9.68,0-16.35-7.1-16.35-16.71h7.74c0,5.16,3.01,9.61,8.61,9.61s8.53-3.8,8.53-8.96c0-5.67-4.09-6.96-8.53-8.68-8.25-3.16-14.84-5.59-14.84-15.92,0-8.25,6.74-14.42,14.84-14.42,8.82,0,15.2,5.81,15.2,14.77h-7.74c0-4.59-2.87-7.67-7.46-7.67-3.87,0-7.1,3.37-7.1,7.24,0,11.26,23.38,4.52,23.38,24.67,0,9.53-6.81,16.06-16.28,16.06"/>
  <polygon class="cls-1" points="867.83 699.58 867.83 646.51 896.44 646.51 896.44 653.61 875.57 653.61 875.57 669.24 896.44 669.24 896.44 676.35 875.57 676.35 875.57 692.48 896.44 692.48 896.44 699.58 867.83 699.58"/>
  <polygon class="cls-1" points="912.56 699.58 912.56 646.51 920.3 646.51 920.3 692.48 938.73 692.48 938.73 699.58 912.56 699.58"/>
</svg>