<?xml version="1.0" encoding="UTF-8"?>
<svg id="Laag_2" data-name="Laag 2" xmlns="http://www.w3.org/2000/svg" viewBox="0 0 106.19 106.19">
  <defs>
    <style>
      .cls-1 {
        fill: #fbfadb;
      }
    </style>
  </defs>
  <g id="Layer_1" data-name="Layer 1">
    <g>
      <path d="M50.39,84.89c0,.24-.04.48-.13.7-.3.8-.96,1.29-1.82,1.29-.81,0-1.45-.43-1.77-1.16-.12-.27-.19-.56-.19-.85s.07-.57.19-.83c.32-.74.96-1.18,1.77-1.18,1.14,0,1.95.92,1.95,2.03Z"/>
      <path d="M15.57,69.21h-5.57c.29-1.31,1.46-2.07,2.78-2.07s2.5.76,2.79,2.07Z"/>
      <path d="M17.19,84.89c0,.24-.05.48-.13.7-.3.8-.96,1.29-1.82,1.29-.81,0-1.45-.43-1.77-1.16-.12-.27-.19-.56-.19-.85s.07-.57.19-.83c.31-.74.96-1.18,1.77-1.18,1.13,0,1.95.92,1.95,2.03Z"/>
      <path d="M70.82,85.97c0,.53-.45.81-.94.81h-.83v-1.65h.73c.34,0,.64.03.86.32.11.14.18.33.18.52Z"/>
      <path d="M70.51,83.7c0,.52-.34.73-.84.73h-.62v-1.47h.58c.49,0,.88.18.88.74Z"/>
      <path d="M75.75,83.93c0,.84-.76,1.03-1.44,1.03h-.52v-2h.8c.61,0,1.16.31,1.16.97Z"/>
      <path d="M57.01,84.89c0,.24-.05.48-.13.7-.3.8-.96,1.29-1.82,1.29-.81,0-1.45-.43-1.77-1.16-.12-.27-.19-.56-.19-.85s.07-.57.19-.83c.31-.74.96-1.18,1.77-1.18,1.13,0,1.95.92,1.95,2.03Z"/>
      <path d="M98.42,0H7.74C3.5,0,.05,3.41,0,7.65v90.89c.05,4.24,3.5,7.65,7.74,7.65h90.69c4.24,0,7.7-3.41,7.76-7.64V7.65c-.06-4.24-3.52-7.65-7.77-7.65ZM36.58,25.17c9.35-9.35,23.29-8.37,32.49.83,1.27,1.27,2.28,2.74,3.22,4.19l-.53.53-7.18,7.17-9.9,9.9-7.41-7.4,10.14-10.13c-4.38-2.17-9.44-1.67-13.42,2.31-5.12,5.11-5.12,13.39,0,18.5,1.11,1.12,2.37,1.99,3.72,2.61h-14.83c-5.27-9.01-4.03-20.78,3.7-28.51ZM76.44,45.89c-.47,2.71-1.42,5.35-2.84,7.79h-14.83c1.35-.62,2.62-1.49,3.73-2.61,1.5-1.5,2.55-3.28,3.17-5.18h10.77ZM34.7,64.08c1.35,0,2.85.5,3.58,1.7h.04v-1.29h3.67v12.13h-3.67v-1.31h-.04c-.66,1.25-2.25,1.73-3.58,1.73-3.78,0-6.16-2.96-6.16-6.5s2.47-6.46,6.16-6.46ZM11.06,87.48h-.76v-2.27h-2.16v2.27h-.76v-5.22h.76v2.25h2.16v-2.25h.76v5.22ZM15.24,87.58c-1.5,0-2.72-1.21-2.72-2.71s1.21-2.71,2.72-2.71,2.71,1.21,2.71,2.72-1.22,2.7-2.71,2.7ZM12.83,77.01c-3.58,0-6.5-2.9-6.5-6.42s2.68-6.51,6.43-6.51,6.48,2.97,6.48,6.62c0,.33-.03.63-.09.96h-9.19c.22,1.44,1.43,2.29,2.87,2.29.9,0,1.51-.33,2.07-.94h3.83c-1.09,2.32-3.21,4-5.9,4ZM22.94,87.33c-.35.16-.74.25-1.13.25-1.5,0-2.68-1.21-2.68-2.69s1.16-2.73,2.67-2.73c.98,0,1.88.55,2.34,1.41h-.89c-.38-.44-.82-.71-1.42-.71-1.1,0-1.94.95-1.94,2.03s.86,1.99,1.94,1.99c.84,0,1.51-.53,1.8-1.3h-2.43v-.69h3.3c0,1.07-.57,1.99-1.56,2.44ZM24.95,69.97v6.71h-3.67v-7.26c0-1.51.11-2.51,1.1-3.74.87-1.05,2.34-1.49,3.67-1.55,0,0,1.13-.03,1.6-.03v3.42h-.74c-1.65,0-1.96,1.07-1.96,2.45ZM28.67,82.96h-2.06v1.54h2.06v.7h-2.06v1.58h2.06v.7h-2.82v-5.22h2.82v.7ZM31.42,87.58c-.96,0-1.61-.7-1.61-1.64h.76c0,.5.3.94.85.94.52,0,.84-.37.84-.88,0-.56-.41-.68-.84-.85-.81-.32-1.46-.55-1.46-1.57,0-.81.66-1.42,1.46-1.42.86,0,1.49.57,1.49,1.45h-.76c0-.45-.28-.75-.73-.75-.38,0-.7.33-.7.71,0,1.11,2.3.45,2.3,2.43,0,.94-.67,1.58-1.6,1.58ZM36.84,86.88c.55,0,1.08-.27,1.43-.69h.94c-.5.87-1.37,1.39-2.37,1.39-1.49,0-2.69-1.25-2.69-2.73s1.2-2.69,2.69-2.69c.56,0,1.15.18,1.6.51.37.26.59.53.8.92h-.91c-.39-.45-.86-.73-1.47-.73-1.1,0-1.94.91-1.94,2s.84,2.02,1.92,2.02ZM44.26,87.48h-.76v-2.27h-2.15v2.27h-.77v-5.22h.77v2.25h2.15v-2.25h.76v5.22ZM43.87,73.01h3.64c.12.75.67,1.12,1.4,1.12.55,0,1.28-.31,1.28-.94,0-.87-1-1.14-1.66-1.4-.53-.17-1.06-.35-1.59-.55-1.46-.52-2.92-1.46-2.92-3.16,0-2.54,2.3-4,4.76-4s4.46,1.24,4.7,3.82h-3.6c-.02-.68-.51-.92-1.15-.92-.49,0-1.04.27-1.04.81,0,1.9,6.17.83,6.17,5.12,0,2.73-2.43,4.13-5,4.13s-4.7-1.36-4.99-4.03ZM48.44,87.58c-1.5,0-2.72-1.21-2.72-2.71s1.22-2.71,2.72-2.71,2.72,1.21,2.72,2.72-1.23,2.7-2.72,2.7ZM55.06,87.58c-1.5,0-2.72-1.21-2.72-2.71s1.21-2.71,2.72-2.71,2.71,1.21,2.71,2.72-1.22,2.7-2.71,2.7ZM61.83,87.48h-2.57v-5.22h.76v4.52h1.81v.7ZM66.94,69.97v6.71h-3.68v-6.71c0-1.38-.31-2.48-1.97-2.48h-.17c-1.66,0-1.97,1.1-1.97,2.48v6.71h-3.66v-7.26c0-1.51.11-2.51,1.1-3.74.87-1.05,2.34-1.49,3.66-1.55,0,0,.47-.03.96-.03s.95.03.95.03c1.01.04,2.09.44,2.94,1.03.84-.59,1.93-.99,2.94-1.03,0,0,.46-.03.95-.03s.95.03.95.03c1.33.06,2.8.5,3.66,1.55,1,1.23,1.11,2.23,1.11,3.74v7.26h-3.67v-6.71c0-1.38-.31-2.48-1.96-2.48h-.18c-1.65,0-1.96,1.1-1.96,2.48ZM71.46,86.59c-.29.67-.93.89-1.61.89h-1.56v-5.22h1.35c.67,0,1.27.23,1.53.87.07.19.1.38.1.57,0,.44-.14.72-.46.99.49.29.78.69.78,1.27,0,.22-.05.43-.13.63ZM76.47,87.48h-.95l-1.72-2.42h-.02v2.42h-.76v-5.22h1.62c.49,0,1.02.08,1.39.44.33.31.48.78.48,1.23,0,.71-.31,1.27-.99,1.51-.15.05-.34.09-.51.09l1.46,1.95ZM81.42,85.8c0,.5-.14.99-.53,1.34-.33.29-.77.44-1.22.44s-.89-.15-1.22-.44c-.39-.35-.53-.84-.53-1.34v-3.54h.76v3.51c0,.63.34,1.11.99,1.11s.99-.48.99-1.11v-3.51h.76v3.54ZM84.39,87.58c-.95,0-1.61-.7-1.61-1.64h.77c0,.5.29.94.84.94.52,0,.84-.37.84-.88,0-.56-.4-.68-.84-.85-.81-.32-1.46-.55-1.46-1.57,0-.81.66-1.42,1.46-1.42.87,0,1.5.57,1.5,1.45h-.76c0-.45-.29-.75-.74-.75-.38,0-.7.33-.7.71,0,1.11,2.3.45,2.3,2.43,0,.94-.67,1.58-1.6,1.58ZM83.53,77.04s-.47.03-.95.03-.95-.03-.95-.03c-1.32-.06-2.8-.5-3.67-1.56-.99-1.22-1.1-2.22-1.1-3.73v-7.26h3.67v6.71c0,1.38.31,2.48,1.96,2.48h.18c1.65,0,1.96-1.1,1.96-2.48v-6.71h3.67v7.26c0,1.5-.11,2.51-1.1,3.73-.87,1.06-2.34,1.5-3.67,1.56ZM88.73,87.58c-.95,0-1.61-.7-1.61-1.64h.76c0,.5.3.94.85.94s.84-.37.84-.88c0-.56-.4-.68-.84-.85-.81-.32-1.46-.55-1.46-1.57,0-.81.66-1.42,1.46-1.42.87,0,1.5.57,1.5,1.45h-.76c0-.45-.29-.75-.74-.75-.38,0-.7.33-.7.71,0,1.11,2.3.45,2.3,2.43,0,.94-.67,1.58-1.6,1.58ZM94.58,82.96h-2.05v1.54h2.05v.7h-2.05v1.58h2.05v.7h-2.81v-5.22h2.81v.7ZM98.75,87.48h-2.58v-5.22h.76v4.52h1.82v.7ZM94.86,77.04c-2.56,0-4.7-1.36-4.99-4.03h3.64c.12.75.67,1.12,1.4,1.12.55,0,1.28-.31,1.28-.94,0-.87-1-1.14-1.66-1.4-.53-.17-1.06-.35-1.59-.55-1.46-.52-2.92-1.46-2.92-3.16,0-2.54,2.3-4,4.75-4s4.47,1.24,4.71,3.82h-3.6c-.02-.68-.51-.92-1.15-.92-.49,0-1.04.27-1.04.81,0,1.9,6.16.83,6.16,5.12,0,2.73-2.42,4.13-4.99,4.13Z"/>
      <polygon class="cls-1" points="11.06 82.26 11.06 87.48 10.3 87.48 10.3 85.21 8.14 85.21 8.14 87.48 7.38 87.48 7.38 82.26 8.14 82.26 8.14 84.51 10.3 84.51 10.3 82.26 11.06 82.26"/>
      <path class="cls-1" d="M15.24,82.16c-1.51,0-2.72,1.21-2.72,2.71s1.22,2.71,2.72,2.71,2.71-1.18,2.71-2.7-1.21-2.72-2.71-2.72ZM17.06,85.59c-.3.8-.96,1.29-1.82,1.29-.81,0-1.45-.43-1.77-1.16-.12-.27-.19-.56-.19-.85s.07-.57.19-.83c.31-.74.96-1.18,1.77-1.18,1.13,0,1.95.92,1.95,2.03,0,.24-.05.48-.13.7Z"/>
      <path class="cls-1" d="M24.5,84.89c0,1.07-.57,1.99-1.56,2.44-.35.16-.74.25-1.13.25-1.5,0-2.68-1.21-2.68-2.69s1.16-2.73,2.67-2.73c.98,0,1.88.55,2.34,1.41h-.89c-.38-.44-.82-.71-1.42-.71-1.1,0-1.94.95-1.94,2.03s.86,1.99,1.94,1.99c.84,0,1.51-.53,1.8-1.3h-2.43v-.69h3.3Z"/>
      <polygon class="cls-1" points="26.61 82.96 26.61 84.5 28.67 84.5 28.67 85.2 26.61 85.2 26.61 86.78 28.67 86.78 28.67 87.48 25.85 87.48 25.85 82.26 28.67 82.26 28.67 82.96 26.61 82.96"/>
      <path class="cls-1" d="M33.02,86c0,.94-.67,1.58-1.6,1.58s-1.61-.7-1.61-1.64h.76c0,.5.3.94.85.94.52,0,.84-.37.84-.88,0-.56-.41-.68-.84-.85-.81-.32-1.46-.55-1.46-1.57,0-.81.66-1.42,1.46-1.42.86,0,1.49.57,1.49,1.45h-.76c0-.45-.28-.75-.73-.75-.38,0-.7.33-.7.71,0,1.11,2.3.45,2.3,2.43Z"/>
      <path class="cls-1" d="M38.27,86.19h.94c-.5.87-1.37,1.39-2.37,1.39-1.49,0-2.69-1.25-2.69-2.73s1.2-2.69,2.69-2.69c.56,0,1.15.18,1.6.51.37.26.59.53.8.92h-.91c-.39-.45-.86-.73-1.47-.73-1.1,0-1.94.91-1.94,2s.84,2.02,1.92,2.02c.55,0,1.08-.27,1.43-.69Z"/>
      <polygon class="cls-1" points="44.26 82.26 44.26 87.48 43.5 87.48 43.5 85.21 41.35 85.21 41.35 87.48 40.58 87.48 40.58 82.26 41.35 82.26 41.35 84.51 43.5 84.51 43.5 82.26 44.26 82.26"/>
      <path class="cls-1" d="M48.44,82.16c-1.5,0-2.72,1.21-2.72,2.71s1.22,2.71,2.72,2.71,2.72-1.18,2.72-2.7-1.22-2.72-2.72-2.72ZM50.26,85.59c-.3.8-.96,1.29-1.82,1.29-.81,0-1.45-.43-1.77-1.16-.12-.27-.19-.56-.19-.85s.07-.57.19-.83c.32-.74.96-1.18,1.77-1.18,1.14,0,1.95.92,1.95,2.03,0,.24-.04.48-.13.7Z"/>
      <polygon class="cls-1" points="61.83 86.78 61.83 87.48 59.26 87.48 59.26 82.26 60.02 82.26 60.02 86.78 61.83 86.78"/>
      <path class="cls-1" d="M55.06,82.16c-1.51,0-2.72,1.21-2.72,2.71s1.22,2.71,2.72,2.71,2.71-1.18,2.71-2.7-1.21-2.72-2.71-2.72ZM56.88,85.59c-.3.8-.96,1.29-1.82,1.29-.81,0-1.45-.43-1.77-1.16-.12-.27-.19-.56-.19-.85s.07-.57.19-.83c.31-.74.96-1.18,1.77-1.18,1.13,0,1.95.92,1.95,2.03,0,.24-.05.48-.13.7Z"/>
      <path class="cls-1" d="M70.81,84.69c.32-.27.46-.55.46-.99,0-.19-.03-.38-.1-.57-.26-.64-.86-.87-1.53-.87h-1.35v5.22h1.56c.68,0,1.32-.22,1.61-.89.08-.2.13-.41.13-.63,0-.58-.29-.98-.78-1.27ZM69.05,82.96h.58c.49,0,.88.18.88.74,0,.52-.34.73-.84.73h-.62v-1.47ZM69.88,86.78h-.83v-1.65h.73c.34,0,.64.03.86.32.11.14.18.33.18.52,0,.53-.45.81-.94.81Z"/>
      <path class="cls-1" d="M75.52,85.44c.68-.24.99-.8.99-1.51,0-.45-.15-.92-.48-1.23-.37-.36-.9-.44-1.39-.44h-1.62v5.22h.76v-2.42h.02l1.72,2.42h.95l-1.46-1.95c.17,0,.36-.04.51-.09ZM73.79,84.96v-2h.8c.61,0,1.16.31,1.16.97,0,.84-.76,1.03-1.44,1.03h-.52Z"/>
      <path class="cls-1" d="M81.42,82.26v3.54c0,.5-.14.99-.53,1.34-.33.29-.77.44-1.22.44s-.89-.15-1.22-.44c-.39-.35-.53-.84-.53-1.34v-3.54h.76v3.51c0,.63.34,1.11.99,1.11s.99-.48.99-1.11v-3.51h.76Z"/>
      <path class="cls-1" d="M85.99,86c0,.94-.67,1.58-1.6,1.58s-1.61-.7-1.61-1.64h.77c0,.5.29.94.84.94.52,0,.84-.37.84-.88,0-.56-.4-.68-.84-.85-.81-.32-1.46-.55-1.46-1.57,0-.81.66-1.42,1.46-1.42.87,0,1.5.57,1.5,1.45h-.76c0-.45-.29-.75-.74-.75-.38,0-.7.33-.7.71,0,1.11,2.3.45,2.3,2.43Z"/>
      <path class="cls-1" d="M90.33,86c0,.94-.67,1.58-1.6,1.58s-1.61-.7-1.61-1.64h.76c0,.5.3.94.85.94s.84-.37.84-.88c0-.56-.4-.68-.84-.85-.81-.32-1.46-.55-1.46-1.57,0-.81.66-1.42,1.46-1.42.87,0,1.5.57,1.5,1.45h-.76c0-.45-.29-.75-.74-.75-.38,0-.7.33-.7.71,0,1.11,2.3.45,2.3,2.43Z"/>
      <polygon class="cls-1" points="92.53 82.96 92.53 84.5 94.58 84.5 94.58 85.2 92.53 85.2 92.53 86.78 94.58 86.78 94.58 87.48 91.77 87.48 91.77 82.26 94.58 82.26 94.58 82.96 92.53 82.96"/>
      <polygon class="cls-1" points="98.75 86.78 98.75 87.48 96.17 87.48 96.17 82.26 96.93 82.26 96.93 86.78 98.75 86.78"/>
      <path class="cls-1" d="M99.85,72.91c0,2.73-2.42,4.13-4.99,4.13s-4.7-1.36-4.99-4.03h3.64c.12.75.67,1.12,1.4,1.12.55,0,1.28-.31,1.28-.94,0-.87-1-1.14-1.66-1.4-.53-.17-1.06-.35-1.59-.55-1.46-.52-2.92-1.46-2.92-3.16,0-2.54,2.3-4,4.75-4s4.47,1.24,4.71,3.82h-3.6c-.02-.68-.51-.92-1.15-.92-.49,0-1.04.27-1.04.81,0,1.9,6.16.83,6.16,5.12Z"/>
      <path class="cls-1" d="M88.3,64.49v7.26c0,1.5-.11,2.51-1.1,3.73-.87,1.06-2.34,1.5-3.67,1.56,0,0-.47.03-.95.03s-.95-.03-.95-.03c-1.32-.06-2.8-.5-3.67-1.56-.99-1.22-1.1-2.22-1.1-3.73v-7.26h3.67v6.71c0,1.38.31,2.48,1.96,2.48h.18c1.65,0,1.96-1.1,1.96-2.48v-6.71h3.67Z"/>
      <path class="cls-1" d="M74.71,69.42v7.26h-3.67v-6.71c0-1.38-.31-2.48-1.96-2.48h-.18c-1.65,0-1.96,1.1-1.96,2.48v6.71h-3.68v-6.71c0-1.38-.31-2.48-1.97-2.48h-.17c-1.66,0-1.97,1.1-1.97,2.48v6.71h-3.66v-7.26c0-1.51.11-2.51,1.1-3.74.87-1.05,2.34-1.49,3.66-1.55,0,0,.47-.03.96-.03s.95.03.95.03c1.01.04,2.09.44,2.94,1.03.84-.59,1.93-.99,2.94-1.03,0,0,.46-.03.95-.03s.95.03.95.03c1.33.06,2.8.5,3.66,1.55,1,1.23,1.11,2.23,1.11,3.74Z"/>
      <path class="cls-1" d="M53.86,72.91c0,2.73-2.43,4.13-5,4.13s-4.7-1.36-4.99-4.03h3.64c.12.75.67,1.12,1.4,1.12.55,0,1.28-.31,1.28-.94,0-.87-1-1.14-1.66-1.4-.53-.17-1.06-.35-1.59-.55-1.46-.52-2.92-1.46-2.92-3.16,0-2.54,2.3-4,4.76-4s4.46,1.24,4.7,3.82h-3.6c-.02-.68-.51-.92-1.15-.92-.49,0-1.04.27-1.04.81,0,1.9,6.17.83,6.17,5.12Z"/>
      <path class="cls-1" d="M38.32,64.49v1.29h-.04c-.73-1.2-2.23-1.7-3.58-1.7-3.69,0-6.16,2.92-6.16,6.46s2.38,6.5,6.16,6.5c1.33,0,2.92-.48,3.58-1.73h.04v1.31h3.67v-12.13h-3.67ZM38.32,70.54c0,1.75-1.28,3.11-3.07,3.11s-3.05-1.38-3.05-3.06,1.24-3.13,3.03-3.13,3.1,1.31,3.1,3.08h0Z"/>
      <path class="cls-1" d="M27.65,64.1v3.42h-.74c-1.65,0-1.96,1.07-1.96,2.45v6.71h-3.67v-7.26c0-1.51.11-2.51,1.1-3.74.87-1.05,2.34-1.49,3.67-1.55,0,0,1.13-.03,1.6-.03Z"/>
      <path class="cls-1" d="M19.24,70.7c0-3.65-2.72-6.62-6.48-6.62s-6.43,2.99-6.43,6.51,2.92,6.42,6.5,6.42c2.69,0,4.81-1.68,5.9-4h-3.83c-.56.61-1.17.94-2.07.94-1.44,0-2.65-.85-2.87-2.29h9.19c.06-.33.09-.63.09-.96ZM10,69.21c.29-1.31,1.46-2.07,2.78-2.07s2.5.76,2.79,2.07h-5.57Z"/>
      <path class="cls-1" d="M76.44,45.89c-.47,2.71-1.42,5.35-2.84,7.79h-14.83c1.35-.62,2.62-1.49,3.73-2.61,1.5-1.5,2.55-3.28,3.17-5.18h10.77Z"/>
      <path class="cls-1" d="M72.29,30.19l-.53.53-7.18,7.17-9.9,9.9-7.41-7.4,10.14-10.13c-4.38-2.17-9.44-1.67-13.42,2.31-5.12,5.11-5.12,13.39,0,18.5,1.11,1.12,2.37,1.99,3.72,2.61h-14.83c-5.27-9.01-4.03-20.78,3.7-28.51,9.35-9.35,23.29-8.37,32.49.83,1.27,1.27,2.28,2.74,3.22,4.19Z"/>
      <path d="M38.33,70.54h0c0,1.75-1.28,3.11-3.07,3.11s-3.05-1.38-3.05-3.06,1.24-3.13,3.03-3.13,3.1,1.31,3.1,3.08Z"/>
    </g>
  </g>
</svg>