<?xml version="1.0" encoding="UTF-8"?>
<svg id="Laag_2" data-name="Laag 2" xmlns="http://www.w3.org/2000/svg" viewBox="0 0 106.19 106.19">
  <defs>
    <style>
      .cls-1 {
        fill: #fbfadb;
      }
    </style>
  </defs>
  <g id="Layer_1" data-name="Layer 1">
    <g>
      <path class="cls-1" d="M73.27,38.83v10.22h15.86l-2.05,15.99h-13.81v41.15h-16.52v-41.15h-13.88v-15.99h13.88v-11.81c0-13.74,8.36-21.18,20.64-21.18,5.84,0,10.88.4,12.34.6v14.34h-8.49c-6.64,0-7.97,3.18-7.97,7.83Z"/>
      <path d="M106.19,5.84v94.51c0,3.19-2.59,5.84-5.84,5.84h-27.08v-41.15h13.81l2.05-15.99h-15.86v-10.22c0-4.65,1.33-7.83,7.97-7.83h8.49v-14.34c-1.46-.2-6.5-.6-12.34-.6-12.28,0-20.64,7.44-20.64,21.18v11.81h-13.88v15.99h13.88v41.15H5.91c-3.26,0-5.91-2.65-5.91-5.84V5.84C0,2.59,2.65,0,5.91,0h94.44c3.25,0,5.84,2.59,5.84,5.84Z"/>
    </g>
  </g>
</svg>