<?xml version="1.0" encoding="UTF-8"?>
<svg id="Layer_1" xmlns="http://www.w3.org/2000/svg" version="1.1" viewBox="0 0 24 24">
  <!-- Generator: Adobe Illustrator 29.8.5, SVG Export Plug-In . SVG Version: 2.1.1 Build 2)  -->
  <path d="M9.6,21v-7.3h-2.8c-.3,0-.5-.2-.5-.5h0v-2.9c0-.3.2-.5.5-.5h2.8v-2.8c-.3-2.5,1.6-4.7,4.1-5,.3,0,.5,0,.8,0h2.3c.3,0,.6.2.6.5v2.4c0,.3-.3.5-.6.5h-1.4c-1.6,0-1.9.7-1.9,1.8v2.4h3.7c.3,0,.5.2.6.5,0,0,0,0,0,0l-.3,2.9c0,.3-.3.5-.5.5h-3.4v7.3c0,.5-.4,1-.9,1,0,0,0,0,0,0h-1.9c-.5,0-1-.4-1-1,0,0,0,0,0,0"/>
</svg>