<?xml version="1.0" encoding="UTF-8"?>
<svg id="Laag_2" data-name="Laag 2" xmlns="http://www.w3.org/2000/svg" viewBox="0 0 106.19 106.19">
  <defs>
    <style>
      .cls-1 {
        fill: #fbfadb;
      }
    </style>
  </defs>
  <g id="Layer_1" data-name="Layer 1">
    <g>
      <path d="M66.48,53.1c0,7.43-5.95,13.38-13.38,13.38s-13.39-5.95-13.39-13.38,5.95-13.38,13.39-13.38,13.38,5.94,13.38,13.38Z"/>
      <path d="M98.42,0H7.74C3.49,0,.05,3.41,0,7.64v90.9c.05,4.23,3.49,7.65,7.74,7.65h90.68c4.25,0,7.7-3.41,7.77-7.65V7.65c-.07-4.24-3.52-7.65-7.77-7.65ZM92.74,69.45c0,5.95-1.98,11.9-6.44,16.85-4.46,4.46-10.41,6.44-16.85,6.44h-32.71c-5.95,0-11.89-1.98-16.85-6.44-3.96-4.46-6.44-10.41-6.44-16.85v-32.71c0-6.44,2.48-12.39,6.44-16.85,4.96-3.96,10.9-6.44,16.85-6.44h32.71c5.95,0,11.89,1.98,16.85,6.44,3.96,4.46,6.44,10.41,6.44,16.85v32.71Z"/>
      <path class="cls-1" d="M86.3,19.89c-4.96-4.46-10.9-6.44-16.85-6.44h-32.71c-5.95,0-11.89,2.48-16.85,6.44-3.96,4.46-6.44,10.41-6.44,16.85v32.71c0,6.44,2.48,12.39,6.44,16.85,4.96,4.46,10.9,6.44,16.85,6.44h32.71c6.44,0,12.39-1.98,16.85-6.44,4.46-4.95,6.44-10.9,6.44-16.85v-32.71c0-6.44-2.48-12.39-6.44-16.85ZM83.82,76.39c-1.49,3.47-3.96,5.95-7.43,7.43-4.96,1.99-17.84,1.49-23.29,1.49s-18.34.5-23.3-1.49c-3.47-.99-6.44-3.96-7.43-7.43-1.98-4.96-1.49-17.35-1.49-23.29s-.49-18.34,1.49-23.29c.99-3.47,3.96-6.45,7.43-7.93,4.96-1.99,17.35-1.49,23.3-1.49s18.33-.5,23.29,1.98c3.47.99,6.44,3.97,7.43,7.44,1.98,4.95,1.49,17.84,1.49,23.29s.49,17.84-1.49,23.29Z"/>
      <path d="M83.82,29.81c-.99-3.47-3.96-6.45-7.43-7.44-4.96-2.48-17.35-1.98-23.29-1.98s-18.34-.5-23.3,1.49c-3.47,1.48-6.44,4.46-7.43,7.93-1.98,4.95-1.49,17.34-1.49,23.29s-.49,18.33,1.49,23.29c.99,3.47,3.96,6.44,7.43,7.43,4.96,1.99,17.84,1.49,23.3,1.49s18.33.5,23.29-1.49c3.47-1.48,5.94-3.96,7.43-7.43,1.98-5.45,1.49-17.84,1.49-23.29s.49-18.34-1.49-23.29ZM53.1,73.42c-11.4,0-20.32-8.92-20.32-20.32s8.92-20.32,20.32-20.32,20.31,8.92,20.31,20.32-8.92,20.32-20.31,20.32ZM73.91,36.74c-2.97,0-4.96-1.98-4.96-4.95s1.99-4.96,4.96-4.96,4.95,2.48,4.95,4.96c0,2.97-1.98,4.95-4.95,4.95Z"/>
      <path class="cls-1" d="M53.1,32.78c-11.4,0-20.32,8.92-20.32,20.32s8.92,20.32,20.32,20.32,20.31-8.92,20.31-20.32-8.92-20.32-20.31-20.32ZM53.1,66.48c-7.44,0-13.39-5.95-13.39-13.38s5.95-13.38,13.39-13.38,13.38,5.94,13.38,13.38-5.95,13.38-13.38,13.38Z"/>
      <path class="cls-1" d="M78.86,31.79c0,2.97-1.98,4.95-4.95,4.95s-4.96-1.98-4.96-4.95,1.99-4.96,4.96-4.96,4.95,2.48,4.95,4.96Z"/>
    </g>
  </g>
</svg>