<?xml version="1.0" encoding="UTF-8"?>
<svg id="Laag_2" data-name="Laag 2" xmlns="http://www.w3.org/2000/svg" viewBox="0 0 106.19 106.19">
  <defs>
    <style>
      .cls-1 {
        fill: #fbfadb;
      }
    </style>
  </defs>
  <g id="Layer_1" data-name="Layer 1">
    <g>
      <path d="M98.41,0H7.74C3.49,0,.04,3.42,0,7.65v90.89c.04,4.24,3.49,7.65,7.74,7.65h90.68c4.25,0,7.7-3.41,7.77-7.64V7.65c-.07-4.23-3.52-7.65-7.78-7.65ZM31.49,90.49h-15.77v-50.67h15.77v50.67ZM32.74,23.77c0,5.04-4.09,9.12-9.13,9.12h-.01c-5.05-.01-9.12-4.09-9.12-9.13s4.09-9.13,9.13-9.13,9.13,4.08,9.13,9.13h0ZM90.47,90.5h-.01s-15.72-.01-15.72-.01v-24.64c0-5.87-.12-13.43-8.2-13.43s-9.45,6.39-9.45,13v25.08h-15.72v-50.67h15.11v6.91h.2c2.93-4.94,8.24-8.2,14.3-8.2.21,0,.41,0,.61.01,15.93,0,18.88,10.49,18.88,24.14v27.81Z"/>
      <path class="cls-1" d="M32.74,23.76h0c0,5.05-4.09,9.13-9.13,9.13h-.01c-5.05-.01-9.12-4.09-9.12-9.13s4.09-9.13,9.13-9.13,9.13,4.08,9.13,9.13Z"/>
      <rect class="cls-1" x="15.72" y="39.82" width="15.77" height="50.67"/>
      <path class="cls-1" d="M90.47,62.69v27.81h-.01s-15.72-.01-15.72-.01v-24.64c0-5.87-.12-13.43-8.2-13.43s-9.45,6.39-9.45,13v25.08h-15.72v-50.67h15.11v6.91h.2c2.93-4.94,8.24-8.2,14.3-8.2.21,0,.41,0,.61.01,15.93,0,18.88,10.49,18.88,24.14Z"/>
    </g>
  </g>
</svg>