<?xml version="1.0" encoding="UTF-8"?>
<svg id="Layer_1" xmlns="http://www.w3.org/2000/svg" version="1.1" viewBox="0 0 24 24">
  <!-- Generator: Adobe Illustrator 29.8.5, SVG Export Plug-In . SVG Version: 2.1.1 Build 2)  -->
  <path d="M19,3c1.1,0,2,.9,2,2v14c0,1.1-.9,2-2,2H5c-1.1,0-2-.9-2-2V5c0-1.1.9-2,2-2h14ZM18.5,18.5v-5.3c0-1.8-1.5-3.3-3.3-3.3h0c-.9,0-1.8.5-2.3,1.3v-1.1h-2.8v8.4h2.8v-4.9c0-.8.6-1.4,1.4-1.4s1.4.6,1.4,1.4v4.9h2.8ZM6.9,8.6c.9,0,1.7-.8,1.7-1.7h0c0-.9-.8-1.7-1.7-1.7s-1.7.8-1.7,1.7h0c0,.9.8,1.7,1.7,1.7M8.3,18.5v-8.4h-2.8v8.4h2.8Z"/>
</svg>