<?xml version="1.0" encoding="UTF-8"?>
<svg id="Laag_2" data-name="Laag 2" xmlns="http://www.w3.org/2000/svg" viewBox="0 0 106.19 106.19">
  <defs>
    <style>
      .cls-1 {
        fill: #fbfadb;
      }
    </style>
  </defs>
  <g id="Layer_1" data-name="Layer 1">
    <g>
      <path d="M98.42,0H7.74C3.5,0,.05,3.41,0,7.65v90.89c.05,4.24,3.5,7.65,7.74,7.65h90.69c4.24,0,7.7-3.41,7.76-7.64V7.65c-.06-4.24-3.52-7.65-7.77-7.65ZM87.87,46.39c-4.81-.16-9.64-1.16-14.01-3.23-1.9-.86-3.67-1.97-5.4-3.1-.03,9.74.04,19.48-.07,29.18-.26,4.66-1.79,9.3-4.51,13.14-4.36,6.4-11.93,10.57-19.71,10.7-4.77.27-9.53-1.03-13.6-3.42-6.73-3.98-11.47-11.25-12.16-19.05-.08-1.67-.11-3.34-.04-4.96.6-6.35,3.74-12.42,8.61-16.55,5.52-4.81,13.26-7.1,20.5-5.75.07,4.94-.13,9.88-.13,14.82-3.31-1.07-7.17-.77-10.06,1.24-2.12,1.37-3.72,3.46-4.55,5.83-.69,1.69-.5,3.57-.46,5.37.8,5.47,6.06,10.07,11.68,9.57,3.72-.04,7.29-2.2,9.23-5.36.63-1.11,1.33-2.24,1.37-3.55.33-5.96.2-11.9.24-17.87.02-13.44-.04-26.85.06-40.25,4.36-.07,8.7-.03,13.04-.07.26,5.1,2.09,10.3,5.83,13.91,3.73,3.7,9.01,5.4,14.14,5.97v13.43Z"/>
      <path class="cls-1" d="M87.87,32.96v13.43c-4.81-.16-9.64-1.16-14.01-3.23-1.9-.86-3.67-1.97-5.4-3.1-.03,9.74.04,19.48-.07,29.18-.26,4.66-1.79,9.3-4.51,13.14-4.36,6.4-11.93,10.57-19.71,10.7-4.77.27-9.53-1.03-13.6-3.42-6.73-3.98-11.47-11.25-12.16-19.05-.08-1.67-.11-3.34-.04-4.96.6-6.35,3.74-12.42,8.61-16.55,5.52-4.81,13.26-7.1,20.5-5.75.07,4.94-.13,9.88-.13,14.82-3.31-1.07-7.17-.77-10.06,1.24-2.12,1.37-3.72,3.46-4.55,5.83-.69,1.69-.5,3.57-.46,5.37.8,5.47,6.06,10.07,11.68,9.57,3.72-.04,7.29-2.2,9.23-5.36.63-1.11,1.33-2.24,1.37-3.55.33-5.96.2-11.9.24-17.87.02-13.44-.04-26.85.06-40.25,4.36-.07,8.7-.03,13.04-.07.26,5.1,2.09,10.3,5.83,13.91,3.73,3.7,9.01,5.4,14.14,5.97Z"/>
    </g>
  </g>
</svg>