<svg width="27" height="25" viewBox="0 0 27 25" fill="none" xmlns="http://www.w3.org/2000/svg">
<path d="M25.2086 8.88245V7.10588H16.2522V1.77617H14.4608V0H7.16547V1.77617H5.3741V3.55274H3.58273V5.32931H1.79137V7.10588H0V16.1176H1.79137V17.8941H3.58273V19.6707H5.3741V21.4473H7.16547V23.2238H8.95684V25H16.2522V17.8941H27V8.88245H25.2086Z" fill="#FBFADB"/>
<path d="M14.8761 10.2469V3.14062H10.3325V4.91719H8.54118V6.69377H6.75021V8.47034H4.95885V10.2469H3.16748V16.5291H4.95885V18.3057H6.75021V20.0823H8.54118V21.8588H10.3325V23.6354H14.8761V16.5291H25.6239V10.2469H14.8761Z" fill="black"/>
<path d="M8.54104 21.859V20.0825H6.75008V18.3059H4.95871V16.5293H3.16734V14.7527H1.37598V8.47054H3.16734V6.69397H4.95871V4.9174H6.75008V3.14083H8.54104V1.36426H13.0846V8.47054H23.8324V14.7527H13.0846V21.859H8.54104Z" fill="black"/>
<path d="M2.75195 13.388V9.83528H4.54332V8.05871H6.33469V6.28214H8.12565V4.50557H9.91701V2.729H11.7084V9.83528H22.4562V13.388H11.7084V20.4943H9.91701V18.7177H8.12565V16.9412H6.33469V15.1646H4.54332V13.388H2.75195Z" fill="#00C6D3"/>
</svg>
