<?xml version="1.0" encoding="UTF-8"?>
<svg id="Layer_1" data-name="Layer 1" xmlns="http://www.w3.org/2000/svg" viewBox="0 0 950 950">
  <defs>
    <style>
      .cls-1 {
        fill: #00c6d3;
      }

      .cls-2 {
        fill: #fbfadb;
      }
    </style>
  </defs>
  <polygon class="cls-2" points="803.53 213.99 765.78 213.99 765.78 176.24 340.99 176.21 329.32 176.22 329.32 176.17 146.44 176.28 146.45 736.07 184.21 736.07 184.21 773.83 803.56 773.83 803.53 213.99"/>
  <g>
    <polygon points="767.74 249.78 378.74 249.76 378.74 249.77 331.28 249.77 331.28 249.73 220 249.8 220.01 738.02 767.76 738.02 767.74 249.78"/>
    <g>
      <path d="M729.98,212.02l-389-.02h0s-47.46.01-47.46.01v-.03l-111.29.06v488.22h547.77l-.02-488.24ZM654.56,346.99l.02,277.96-396.85.03-.03-277.96,396.86-.03Z"/>
      <path class="cls-1" d="M694.19,247.82h-317.41s-.01,39.68-.01,39.68l-39.68-.02v-39.67s-39.68,0-39.68,0v39.68s-39.67,0-39.67,0v-39.69l-39.69.02v416.65h476.17l-.02-416.65ZM257.73,624.98l-.03-277.96,396.86-.03.02,277.96-396.85.03Z"/>
      <path d="M654.56,346.99l-396.86.03.03,277.96,396.85-.03-.02-277.96ZM376.77,545.41h-39.68s0-39.68,0-39.68l-39.65.02-.05-39.72h39.7v-39.54s39.67-.06,39.67-.06v39.64l-39.68-.02v39.68h39.69v39.69ZM495.81,485.89h-39.69v99.21s-39.67.01-39.67.01v-99.22h39.68s-.01-99.22-.01-99.22h39.69v99.22ZM575.18,545.45l-39.69-.04v-39.68h39.69v-39.69l-39.69.03.02-39.62,39.64.03.04,39.56,39.66-.02v39.72s-39.68,0-39.68,0v39.7Z"/>
      <g>
        <polygon points="575.16 505.74 575.18 545.45 535.48 545.4 535.49 505.72 575.18 505.72 575.18 466.03 535.48 466.06 535.51 426.45 575.14 426.48 575.19 466.04 614.85 466.02 614.86 505.74 575.16 505.74"/>
        <polygon class="cls-1" points="575.16 505.74 575.18 545.45 535.48 545.4 535.49 505.72 575.18 505.72 575.18 466.03 535.48 466.06 535.51 426.45 575.14 426.48 575.19 466.04 614.85 466.02 614.86 505.74 575.16 505.74"/>
        <polygon points="376.77 505.72 376.77 545.41 337.09 545.43 337.09 505.73 297.44 505.76 297.39 466.03 337.09 466.03 337.08 426.49 376.76 426.43 376.76 466.06 337.08 466.04 337.09 505.72 376.77 505.72"/>
        <polygon class="cls-1" points="376.77 505.72 376.77 545.41 337.09 545.43 337.09 505.73 297.44 505.76 297.39 466.03 337.09 466.03 337.08 426.49 376.76 426.43 376.76 466.06 337.08 466.04 337.09 505.72 376.77 505.72"/>
        <polygon points="495.81 485.89 456.12 485.89 456.13 585.11 416.45 585.12 416.45 485.89 456.13 485.88 456.12 386.67 495.81 386.68 495.81 485.89"/>
        <polygon class="cls-1" points="495.81 485.89 456.12 485.89 456.13 585.11 416.45 585.12 416.45 485.89 456.13 485.88 456.12 386.67 495.81 386.68 495.81 485.89"/>
      </g>
    </g>
  </g>
</svg>