<svg width="69" height="85" viewBox="0 0 69 85" fill="none" xmlns="http://www.w3.org/2000/svg">
<path d="M63.7308 21.1394V15.8435H58.4616V10.5623H53.1777V5.28115H47.9085V0H0V79.7189H5.28392V85H69V21.1394H63.7308ZM42.4185 16.0795H47.6877V21.3606H42.4185V16.0795ZM52.9569 68.9205H10.7739V10.7983H37.1346V26.6418H52.9569V68.9205Z" fill="#FAF6C5"/>
<path d="M26.5961 21.3594H16.043V31.9364H26.5961V21.3594Z" fill="#FAF6C5"/>
<path d="M47.6876 37.2188H16.043V42.4999H47.6876V37.2188Z" fill="#FAF6C5"/>
<path d="M47.6876 47.7812H16.043V53.0772H47.6876V47.7812Z" fill="#FAF6C5"/>
<path d="M37.1345 58.3594H16.043V63.6405H37.1345V58.3594Z" fill="#FAF6C5"/>
<path d="M37.1341 26.6442V10.8008H10.7734V68.923H52.9564V26.6442H37.1341ZM16.0426 21.3631H26.5957V31.9401H16.0426V21.3631ZM37.1341 63.6418H16.0426V58.3607H37.1341V63.6418ZM47.6873 53.0795H16.0426V47.7836H47.6873V53.0795ZM47.6873 42.5025H16.0426V37.2213H47.6873V42.5025Z" fill="#29BFCD"/>
<path d="M47.6872 16.082H42.418V21.3632H47.6872V16.082Z" fill="#29BFCD"/>
<path d="M21.3115 10.7998H26.5954H31.8646H37.1338V5.50391H31.8646H26.5954H21.3115H16.0423H10.7731H5.50391V10.7998H10.7731H16.0423H21.3115Z" fill="black"/>
<path d="M42.404 5.50391H37.1348V10.7851H42.404V5.50391Z" fill="black"/>
<path d="M10.7731 58.3607V53.0795V47.7836V42.5025V37.2213V31.9401V26.6442V21.3631V16.0819V10.8008H5.50391V16.0819V21.3631V26.6442V31.9401V37.2213V42.5025V47.7836V53.0795V58.3607V63.6418V68.923H10.7731V63.6418V58.3607Z" fill="black"/>
<path d="M63.5092 31.9401V26.6442H58.2253V21.3631H52.9561V16.0819H47.6869V21.3631H42.4177V16.0819H47.6869V10.8008H42.4177H37.1338V16.0819V21.3631V26.6442H42.4177H47.6869H52.9561V31.9401V37.2213V42.5024V47.7836V53.0795V58.3607V63.6418V68.923H47.6869H42.4177H37.1338H31.8646H26.5954H21.3115H16.0423H10.7731H5.50391V74.2189H10.7731V79.5H63.5092V74.2041H63.4945V31.9401H63.5092Z" fill="black"/>
<rect x="14" y="34" width="20" height="33" fill="#29BFCD"/>
<rect x="16" y="21" width="11" height="18" fill="#29BFCD"/>
<rect x="15" y="31" width="34" height="35" fill="#29BFCD"/>
<path d="M43.2238 41.7478H37.8941V32.7914H36.1176V31H27.1059V41.7478H20V49.0436H21.7762V50.8345H23.5527V52.6259H25.3293V54.4173H27.1059V56.2086H28.8824V58H37.8941V56.2086H39.6707V54.4173H41.4473V52.6259H43.2238V50.8345H45V43.5392H43.2238V41.7478Z" fill="#FBFADB"/>
<path d="M36.5291 34.168H30.2469V44.9158H23.1406V49.4593H24.9172V51.2503H26.6938V53.0417H28.4703V54.833H30.2469V56.6244H36.5291V54.833H38.3057V53.0417H40.0823V51.2503H41.8588V49.4593H43.6354V44.9158H36.5291V34.168Z" fill="black"/>
<path d="M28.4715 54.8314V53.0401H26.6949V51.2487H24.9184V49.4577H23.1418V47.6664H21.3652V43.1228H28.4715V32.375H34.7537V43.1228H41.86V47.6664H40.0834V49.4577H38.3069V51.2487H36.5303V53.0401H34.7537V54.8314H28.4715Z" fill="black"/>
<path d="M33.3875 53.4581H29.8348V51.6668H28.0582V49.8758H26.2817V48.0844H24.5051V46.2931H22.7285V44.5017H29.8348V33.7539H33.3875V44.5017H40.4938V46.2931H38.7172V48.0844H36.9407V49.8758H35.1641V51.6668H33.3875V53.4581Z" fill="#FAF6C5"/>
</svg>
