<?xml version="1.0" encoding="UTF-8"?>
<svg id="Layer_1" data-name="Layer 1" xmlns="http://www.w3.org/2000/svg" viewBox="0 0 950 950">
  <defs>
    <style>
      .cls-1 {
        fill: #00c6d3;
      }

      .cls-2 {
        fill: #fbfadb;
      }
    </style>
  </defs>
  <polygon class="cls-2" points="743.25 267.71 743.25 236.93 712.87 236.93 712.87 206.55 682.49 206.55 682.49 176.16 510.59 176.16 510.59 206.55 480.2 206.55 480.2 236.93 449.82 236.93 449.82 267.32 419.44 267.32 419.44 297.7 389.05 297.7 389.05 328.09 358.67 328.09 358.67 358.47 328.28 358.47 328.28 388.85 297.9 388.85 297.9 419.24 267.51 419.24 267.51 449.62 237.13 449.62 237.13 480.01 206.75 480.01 206.75 510.39 176.36 510.39 176.36 743.06 206.75 743.06 206.75 773.84 439.41 773.84 439.41 743.45 469.8 743.45 469.8 713.07 500.18 713.07 500.18 682.68 530.56 682.68 530.56 652.3 560.95 652.3 560.95 621.92 591.33 621.92 591.33 591.53 621.72 591.53 621.72 561.15 652.1 561.15 652.1 530.76 682.49 530.76 682.49 500.38 712.87 500.38 712.87 469.99 743.25 469.99 743.25 439.61 773.64 439.61 773.64 267.71 743.25 267.71"/>
  <g>
    <polygon points="715.47 295.49 715.47 265.11 685.09 265.11 685.09 234.73 568.75 234.73 568.75 265.11 538.37 265.11 538.37 295.49 507.99 295.49 507.99 325.88 477.6 325.88 477.6 356.26 447.22 356.26 447.22 386.65 416.83 386.65 416.83 417.03 386.45 417.03 386.45 447.42 356.06 447.42 356.06 477.8 325.68 477.8 325.68 508.18 295.3 508.18 295.3 538.57 264.91 538.57 264.91 568.95 234.53 568.95 234.53 746.05 411.63 746.05 411.63 715.67 442.01 715.67 442.01 685.28 472.4 685.28 472.4 654.9 502.78 654.9 502.78 624.52 533.17 624.52 533.17 594.13 563.55 594.13 563.55 563.75 593.93 563.75 593.93 533.36 624.32 533.36 624.32 502.98 654.7 502.98 654.7 472.6 685.09 472.6 685.09 442.21 715.47 442.21 715.47 411.83 745.86 411.83 745.86 295.49 715.47 295.49"/>
    <g>
      <rect x="356.06" y="568.56" width="85.95" height="85.95"/>
      <polygon points="381.25 715.27 381.25 684.89 411.63 684.89 411.63 598.94 381.25 598.94 381.25 538.17 320.48 538.17 320.48 507.79 234.53 507.79 234.53 538.17 204.14 538.17 204.14 715.27 381.25 715.27"/>
      <rect x="386.45" y="538.17" width="85.95" height="85.95"/>
      <rect x="416.83" y="507.79" width="85.95" height="85.95"/>
      <rect x="264.91" y="477.4" width="85.95" height="85.95"/>
      <rect x="356.06" y="477.4" width="85.95" height="85.95"/>
      <rect x="447.22" y="477.4" width="85.95" height="85.95"/>
      <rect x="295.3" y="447.02" width="85.95" height="85.95"/>
      <rect x="386.45" y="447.02" width="85.95" height="85.95"/>
      <rect x="477.6" y="447.02" width="85.95" height="85.95"/>
      <rect x="325.68" y="416.64" width="85.95" height="85.95"/>
      <rect x="416.83" y="416.64" width="85.95" height="85.95"/>
      <rect x="507.99" y="416.64" width="85.95" height="85.95"/>
      <rect x="356.06" y="386.25" width="85.95" height="85.95"/>
      <rect x="447.22" y="386.25" width="85.95" height="85.95"/>
      <rect x="538.37" y="386.25" width="85.95" height="85.95"/>
      <rect x="386.45" y="355.87" width="85.95" height="85.95"/>
      <rect x="477.6" y="355.87" width="85.95" height="85.95"/>
      <rect x="416.83" y="325.48" width="85.95" height="85.95"/>
      <rect x="507.99" y="325.48" width="85.95" height="85.95"/>
      <polygon points="654.7 441.82 654.7 411.43 685.09 411.43 685.09 381.05 715.47 381.05 715.47 264.72 685.09 264.72 685.09 234.33 654.7 234.33 654.7 203.95 538.37 203.95 538.37 234.33 507.99 234.33 507.99 264.72 477.6 264.72 477.6 350.66 538.37 350.66 538.37 381.05 568.75 381.05 568.75 441.82 654.7 441.82"/>
      <rect x="447.22" y="295.1" width="85.95" height="85.95"/>
      <rect class="cls-1" x="383.85" y="596.34" width="30.38" height="30.38"/>
      <path class="cls-1" d="M231.93,565.96v30.38s0,30.38,0,30.38v30.38s0,30.38,0,30.38h30.38s30.38,0,30.38,0h30.38s30.38,0,30.38,0v-30.38h30.38s0-30.38,0-30.38h-30.38v-30.38s0-30.38,0-30.38h-30.38s-30.38,0-30.38,0v-30.38s-30.38,0-30.38,0v30.38h-30.38ZM262.31,596.34h30.38v30.38s30.38,0,30.38,0v30.38h-30.38v-30.38s-30.38,0-30.38,0v-30.38Z"/>
      <rect class="cls-1" x="414.23" y="565.96" width="30.38" height="30.38"/>
      <rect x="325.68" y="507.79" width="85.95" height="85.95"/>
      <rect class="cls-1" x="353.46" y="535.57" width="30.38" height="30.38"/>
      <rect class="cls-1" x="444.62" y="535.57" width="30.38" height="30.38"/>
      <rect class="cls-1" x="292.69" y="505.19" width="30.38" height="30.38"/>
      <rect class="cls-1" x="383.85" y="505.19" width="30.38" height="30.38"/>
      <rect class="cls-1" x="475" y="505.19" width="30.38" height="30.38"/>
      <rect class="cls-1" x="323.08" y="474.8" width="30.38" height="30.38"/>
      <rect class="cls-1" x="414.23" y="474.8" width="30.38" height="30.38"/>
      <rect class="cls-1" x="505.38" y="474.8" width="30.38" height="30.38"/>
      <rect class="cls-1" x="353.46" y="444.42" width="30.38" height="30.38"/>
      <rect class="cls-1" x="444.62" y="444.42" width="30.38" height="30.38"/>
      <rect class="cls-1" x="535.77" y="444.42" width="30.38" height="30.38"/>
      <rect class="cls-1" x="383.85" y="414.03" width="30.38" height="30.38"/>
      <rect class="cls-1" x="475" y="414.03" width="30.38" height="30.38"/>
      <rect class="cls-1" x="566.15" y="414.03" width="30.38" height="30.38"/>
      <rect class="cls-1" x="414.23" y="383.65" width="30.38" height="30.38"/>
      <rect class="cls-1" x="505.38" y="383.65" width="30.38" height="30.38"/>
      <rect class="cls-1" x="444.62" y="353.27" width="30.38" height="30.38"/>
      <rect class="cls-1" x="535.77" y="353.27" width="30.38" height="30.38"/>
      <polygon class="cls-1" points="596.54 353.27 566.15 353.27 566.15 322.88 535.77 322.88 505.38 322.88 505.38 292.5 535.77 292.5 535.77 262.11 566.15 262.11 566.15 231.73 596.54 231.73 626.92 231.73 626.92 262.11 657.31 262.11 657.31 292.5 687.69 292.5 687.69 322.88 687.69 353.27 657.31 353.27 657.31 383.65 626.92 383.65 626.92 414.03 596.54 414.03 596.54 383.65 596.54 353.27"/>
      <rect class="cls-1" x="475" y="322.88" width="30.38" height="30.38"/>
    </g>
  </g>
</svg>