<svg width="43" height="46" viewBox="0 0 43 46" fill="none" xmlns="http://www.w3.org/2000/svg">
<path d="M39.945 18.3111H30.7779V3.05196H27.7222V0H12.2221V18.3111H0V30.7409H3.05501V33.7922H6.11071V36.8441H9.16641V39.8961H12.2221V42.948H15.2778V46H30.7779V42.948H33.8336V39.8961H36.8893V36.8441H39.945V33.7922H43V21.363H39.945V18.3111Z" fill="#FBFADB"/>
<path d="M28.4304 5.39648H17.625V23.7075H5.40222V31.4484H8.45792V34.4997H11.5136V37.5517H14.5693V40.6036H17.625V43.6556H28.4304V40.6036H31.4861V37.5517H34.5418V34.4997H37.5975V31.4484H40.6532V23.7075H28.4304V5.39648Z" fill="black"/>
<path d="M14.5694 40.6038V37.5519H11.5137V34.4999H8.45796V31.4486H5.40226V28.3967H2.34656V20.6558H14.5694V2.34473H25.3748V20.6558H37.5976V28.3967H34.5419V31.4486H31.4862V34.4999H28.4305V37.5519H25.3748V40.6038H14.5694Z" fill="black"/>
<path d="M23.0275 38.2586H16.9168V35.2067H13.8611V32.1554H10.8054V29.1035H7.74967V26.0515H4.69397V22.9995H16.9168V4.68848H23.0275V22.9995H35.2503V26.0515H32.1946V29.1035H29.1389V32.1554H26.0832V35.2067H23.0275V38.2586Z" fill="#00C6D3"/>
</svg>
