<svg width="53" height="53" viewBox="0 0 53 53" fill="none" xmlns="http://www.w3.org/2000/svg">
<rect width="53" height="53" rx="12" fill="black"/>
<path d="M17.6667 41V37.6667H24.3333V32.5C22.9722 32.1944 21.7572 31.6183 20.6883 30.7717C19.6194 29.925 18.8344 28.8622 18.3333 27.5833C16.25 27.3333 14.5072 26.4239 13.105 24.855C11.7028 23.2861 11.0011 21.4456 11 19.3333V17.6667C11 16.75 11.3267 15.9656 11.98 15.3133C12.6333 14.6611 13.4178 14.3344 14.3333 14.3333H17.6667V11H34.3333V14.3333H37.6667C38.5833 14.3333 39.3683 14.66 40.0217 15.3133C40.675 15.9667 41.0011 16.7511 41 17.6667V19.3333C41 21.4444 40.2983 23.285 38.895 24.855C37.4917 26.425 35.7489 27.3344 33.6667 27.5833C33.1667 28.8611 32.3822 29.9239 31.3133 30.7717C30.2444 31.6194 29.0289 32.1956 27.6667 32.5V37.6667H34.3333V41H17.6667ZM17.6667 24V17.6667H14.3333V19.3333C14.3333 20.3889 14.6389 21.3406 15.25 22.1883C15.8611 23.0361 16.6667 23.64 17.6667 24ZM34.3333 24C35.3333 23.6389 36.1389 23.0344 36.75 22.1867C37.3611 21.3389 37.6667 20.3878 37.6667 19.3333V17.6667H34.3333V24Z" fill="white"/>
</svg>
