<svg width="116" height="125" viewBox="0 0 116 125" fill="none" xmlns="http://www.w3.org/2000/svg">
<path d="M109.392 27.3571V21.5412H109.334V21.4836H103.516V15.666H103.459V5.81761H97.6412V0H10.4295V15.666H5.21386V21.5412H0V65.6705H5.21386V70.8861H5.81586V71.4881H10.4295V76.7805H16.2471V82.5981H31.9131V85.4825H26.0955V119.182H31.9131V125H87.8137V91.3001H82.5772V87.1541H87.8137V82.5981H103.459V76.7038H109.334V71.4881H115.207V27.3571H109.392Z" fill="#FBFADB"/>
<path d="M109.392 33.1746H103.516V27.3012H97.6413V11.6352H22.0647V27.3012H16.8491V33.1746H11.6335V65.6705H16.8491V70.8861H22.0647V76.7805H37.7308V81.3365H43.6059V87.2117H49.4794V97.1177H37.7308V119.182H81.9962V97.1177H70.9054V87.2117H76.7597V81.3365H81.9962V76.7805H97.6413V70.8861H103.516V65.6705H109.392V33.1746Z" fill="black"/>
<path d="M11.0332 48.2195L11.0332 65.0703H27.884V48.2195H11.0332Z" fill="black"/>
<path d="M22.0647 54.0371H16.8491V59.2527H22.0647V54.0371Z" fill="#FBA927"/>
<path d="M5.81763 27.3588L5.81763 59.8547H22.6684L22.6684 27.3588H5.81763Z" fill="black"/>
<path d="M80.1897 48.2189V65.0697H97.6984V48.2189H80.1897Z" fill="black"/>
<path d="M91.8813 54.0371H86.0061V59.2527H91.8813V54.0371Z" fill="#FBA927"/>
<path d="M86.0645 27.3577V59.8536H103.573V27.3577H86.0645Z" fill="black"/>
<path d="M31.9131 113.365V91.3001H43.6617V81.3942H37.7883V75.519H31.9131V70.9629H16.2471V53.4543H22.1223V38.9923H11.0315V21.4836H16.2471V5.81763H91.8236V21.4836H97.6988V38.9923H87.2676V53.4543H91.8236V70.9629H76.1786V75.519H70.9438V81.3942H65.0878V91.3001H76.1786V113.365H31.9131Z" fill="black"/>
<path d="M16.8491 33.1747H11.6335V54.0353H16.8491V33.1747Z" fill="#FBA927"/>
<path d="M97.7563 33.1747H91.8811V54.0353H97.7563V33.1747Z" fill="#FBA927"/>
<path d="M75.5766 54.0371V59.2719H86.006V65.147H70.361V69.7013H65.1262V75.5765H59.2702V97.1177H70.361V107.547H37.7307V97.1177H49.4794V75.5765H43.6059V69.7013H37.7307V65.147H22.0647V59.2719H33.1538V54.0371H27.9399V33.1746H16.8491V27.3012H27.9399V16.8508H22.0647V11.6352H86.006V16.8508H81.45V27.3012H91.8812V33.1746H81.45V54.0371H75.5766Z" fill="#FBA927"/>
<path d="M75.6117 41.0388V38.6735H68.2399H66.0517V36.3081H63.6634V33.9361H61.2684V29.2054H58.8801V24.6729V17.3654H56.4917V15H49.1199V22.3009V26.8334H46.7249V31.5642H44.3366V33.9361H41.9483V36.3015H39.56V38.6669H37.3718H30V45.9678H32.3883V48.3331H41.9483V50.7051H44.3366V53.0705H46.7249V57.8012H49.1199V62.3337V69.6346H51.5083V72H58.8801V64.6991V60.1666H61.2684V55.4292H63.6634V53.0639H66.0517V50.6985H68.44V48.3265H78V41.0256H75.6117V41.0388ZM44.4367 41.1379V38.7726H46.8317V36.4072H49.22V34.0418H51.6083V29.4036H53.9967V34.0418H56.3917V36.4072H58.78V38.7726H61.1683V41.1379H63.5566V43.5099H61.1683V45.8753H58.78V48.2406H56.3917V50.606H53.9967V55.3433H51.6083V50.606H49.22V48.2406H46.8317V45.8753H44.4367V43.5099H42.0484V41.1379H44.4367Z" fill="#FBF6C7"/>
<path d="M56.3916 19.8364H54.0032V22.2019H56.3916V19.8364Z" fill="black"/>
<path d="M58.7804 31.6703H56.3919V29.3048V26.9326V24.5671H54.0035V26.9326V29.3048V26.9392H51.615V29.3048H53.9968V31.6703V34.0424H56.3919V36.4079H58.7804V34.0424V31.6703Z" fill="black"/>
<path d="M75.5118 43.5032H73.1233V45.8687H75.5118V43.5032Z" fill="black"/>
<path d="M56.3916 67.1767H54.0032V69.5422H56.3916V67.1767Z" fill="black"/>
<path d="M53.9966 17.4644H51.6082V19.8299H53.9966V17.4644Z" fill="black"/>
<path d="M54.0033 24.5673V22.2018H51.6082V24.5673V26.9328H54.0033V24.5673Z" fill="black"/>
<path d="M51.6084 31.6699V29.3044H49.22V31.6699V34.0421H51.6084V31.6699Z" fill="black"/>
<path d="M49.22 34.0418H46.8315V36.4073H49.22V34.0418Z" fill="black"/>
<path d="M46.8317 36.4072H44.4365V38.7727H46.8317V36.4072Z" fill="black"/>
<path d="M61.1683 36.4072H58.7798V38.7727H61.1683V36.4072Z" fill="black"/>
<path d="M44.4368 38.7725H42.0483V41.138H44.4368V38.7725Z" fill="black"/>
<path d="M63.5567 38.7725H61.1682V41.138H63.5567V38.7725Z" fill="black"/>
<path d="M34.8767 41.1378H32.4883V43.5033H34.8767V41.1378Z" fill="black"/>
<path d="M37.2718 43.5033H34.8833V45.8688H37.2718V43.5033H39.6602V41.1378H37.2718V43.5033Z" fill="black"/>
<path d="M70.7281 43.5032H68.3398V43.5098H65.9515V43.5032H68.3398V41.1378H65.9515H65.9448H63.5565V43.5098H61.1681V45.8752H58.7798V48.2405H56.3915V50.6059H53.9965V52.9779V55.3432H51.6082V57.7086H53.9965H51.6082V60.0739V62.4393H53.9965V64.8047H51.6082V67.1766H54.0032V64.8113H56.3915V57.7086H58.7798V52.9779H61.1681V50.6059H63.5565V48.2405H65.9515V45.8752H68.3398V45.8685H70.7281V43.5032H73.1231V41.1378H70.7281V43.5032Z" fill="black"/>
<path d="M42.0484 43.5099V41.1378H39.6599V43.5099V45.8754H42.0484H44.4368V43.5099H42.0484Z" fill="black"/>
<path d="M46.8317 45.8751H44.4365V48.2406H46.8317V45.8751Z" fill="black"/>
<path d="M49.22 48.2405H46.8315V50.606H49.22V48.2405Z" fill="black"/>
<path d="M51.6084 50.6059H49.22V52.978V55.3435H51.6084V52.978V50.6059Z" fill="black"/>
<path d="M63.5566 41.138V43.5099H61.1683V45.8753H58.78V48.2407H56.3916V50.606H53.9966V55.3434H51.6083V50.606H49.22V48.2407H46.8317V45.8753H44.4367V43.5099H42.0483V41.138H44.4367V38.7726H46.8317V36.4072H49.22V34.0419H51.6083V29.4036H53.9966V34.0419H56.3916V36.4072H58.78V38.7726H61.1683V41.138H63.5566Z" fill="#29BFCD"/>
</svg>
