<svg width="53" height="53" viewBox="0 0 53 53" fill="none" xmlns="http://www.w3.org/2000/svg">
<rect width="53" height="53" rx="12" fill="black"/>
<path d="M26.5 11.5C23.7152 11.5 21.0445 12.6062 19.0754 14.5754C17.1062 16.5445 16 19.2152 16 22C16 25.57 17.785 28.705 20.5 30.61V34C20.5 34.3978 20.658 34.7794 20.9393 35.0607C21.2206 35.342 21.6022 35.5 22 35.5H31C31.3978 35.5 31.7794 35.342 32.0607 35.0607C32.342 34.7794 32.5 34.3978 32.5 34V30.61C35.215 28.705 37 25.57 37 22C37 19.2152 35.8938 16.5445 33.9246 14.5754C31.9555 12.6062 29.2848 11.5 26.5 11.5ZM22 40C22 40.3978 22.158 40.7794 22.4393 41.0607C22.7206 41.342 23.1022 41.5 23.5 41.5H29.5C29.8978 41.5 30.2794 41.342 30.5607 41.0607C30.842 40.7794 31 40.3978 31 40V38.5H22V40Z" fill="white"/>
</svg>
