<svg width="116" height="125" viewBox="0 0 116 125" fill="none" xmlns="http://www.w3.org/2000/svg">
<path d="M109.392 27.3571V21.5412H109.334V21.4836H103.516V15.666H103.459V5.81761H97.6412V0H10.4295V15.666H5.21386V21.5412H0V65.6705H5.21386V70.8861H5.81586V71.4881H10.4295V76.7805H16.2471V82.5981H31.9131V85.4825H26.0955V119.182H31.9131V125H87.8137V91.3001H82.5772V87.1541H87.8137V82.5981H103.459V76.7038H109.334V71.4881H115.207V27.3571H109.392Z" fill="#FBFADB"/>
<path d="M109.392 33.1747H103.516V27.3013H97.6413V11.6353H22.0647V27.3013H16.8491V33.1747H11.6335V65.6706H16.8491V70.8862H22.0647V76.7806H37.7308V81.3366H43.6059V87.2118H49.4794V97.1178H37.7308V119.182H81.9962V97.1178H70.9054V87.2118H76.7597V81.3366H81.9962V76.7806H97.6413V70.8862H103.516V65.6706H109.392V33.1747Z" fill="black"/>
<path d="M11.0332 48.2195L11.0332 65.0703H27.884V48.2195H11.0332Z" fill="black"/>
<path d="M22.0647 54.0371H16.8491V59.2527H22.0647V54.0371Z" fill="#FBA927"/>
<path d="M5.81763 27.3589L5.81763 59.8547H22.6684L22.6684 27.3589H5.81763Z" fill="black"/>
<path d="M80.1897 48.2189V65.0697H97.6984V48.2189H80.1897Z" fill="black"/>
<path d="M91.8813 54.0371H86.0061V59.2527H91.8813V54.0371Z" fill="#FBA927"/>
<path d="M86.0645 27.3577V59.8536H103.573V27.3577H86.0645Z" fill="black"/>
<path d="M31.9131 113.365V91.3001H43.6617V81.3942H37.7883V75.519H31.9131V70.9629H16.2471V53.4543H22.1223V38.9923H11.0315V21.4836H16.2471V5.81763H91.8236V21.4836H97.6988V38.9923H87.2676V53.4543H91.8236V70.9629H76.1786V75.519H70.9438V81.3942H65.0878V91.3001H76.1786V113.365H31.9131Z" fill="black"/>
<path d="M16.8491 33.1747H11.6335V54.0353H16.8491V33.1747Z" fill="#FBA927"/>
<path d="M97.7563 33.1747H91.8811V54.0353H97.7563V33.1747Z" fill="#FBA927"/>
<path d="M75.5766 54.0371V59.2719H86.006V65.1471H70.361V69.7014H65.1262V75.5766H59.2702V97.1178H70.361V107.547H37.7307V97.1178H49.4794V75.5766H43.6059V69.7014H37.7307V65.1471H22.0647V59.2719H33.1538V54.0371H27.9399V33.1747H16.8491V27.3013H27.9399V16.8509H22.0647V11.6353H86.006V16.8509H81.45V27.3013H91.8812V33.1747H81.45V54.0371H75.5766Z" fill="#FBA927"/>
<path d="M73.9133 41.0019V38.9066H71.8324V36.823H69.7516V34.7276H67.6707V32.8191H69.7516V30.7296H71.8324V22.1907H69.7516V20.0953H67.6649V18H61.2421V20.0953H59.1612V24.2743H52.9128V26.3638H50.8319V28.4591H48.7453V30.5486H46.6644V32.6381H36.2542V34.7276H34.1676V36.8171H32.0867V38.9125H30V51.6362H32.0809V53.7315H34.1676V55.821H36.26V57.9105H38.3525V60H51.0179V57.9105H53.0988V55.821H54.9879V57.9105H57.0746V60H69.7516V57.9105H71.8383V55.821H73.9191V53.7315H76V41.0019H73.9133ZM63.416 22.2724H65.4968V26.4514H63.416V22.2724ZM53.0058 30.6362H55.0867V28.5467H61.3351V26.4572H63.416V28.5467H61.3351V30.6362H55.0867V32.7257H53.0058V30.6362ZM69.6644 49.4533H67.5835V51.5428H65.5027V53.6381H65.4968H61.3351H61.3293H57.1792V51.5545H57.1617H55.0867V49.465H48.8383V51.5545H46.769H46.7574V53.6381H38.4397H38.4339V51.5486H38.4281H36.3472V49.4591H34.2664V41.0953H36.3472V39.0058H38.4281V36.9163H50.9249V32.7374H53.0058V36.9163H65.4968V39.0058H67.5835V41.1012H69.6644V49.4591V49.4533Z" fill="#FAF6C5"/>
<path d="M59.2542 45.2743H57.1733V47.3638H59.2542V45.2743Z" fill="#FAF6C5"/>
<path d="M61.335 41.0895H59.2542V43.1848H61.335V41.0895Z" fill="#FAF6C5"/>
<path d="M63.4161 47.3638H61.3352V49.4533H63.4161V47.3638Z" fill="#FAF6C5"/>
<path d="M65.5027 43.1848H63.416V45.2743H65.5027V43.1848Z" fill="#FAF6C5"/>
<path d="M40.5091 43.1848H38.4282V47.3638H40.5091V43.1848Z" fill="#FAF6C5"/>
<path d="M44.6766 47.3638H40.509V49.4533H44.6766V47.3638Z" fill="#FAF6C5"/>
<path d="M46.7574 43.1848H44.6765V47.3638H46.7574V43.1848Z" fill="#FAF6C5"/>
<path d="M44.6766 41.0895H40.5962H40.509V41.177V43.1848H44.6766V41.0895Z" fill="#FAF6C5"/>
<path d="M73.8319 45.2743V43.1848H71.751V41.0953H71.7452V41.0895H69.6643V39.0059V39H67.5893V36.9105H67.5776H65.4968V39H67.5776H67.5834V39.0059V41.0953H69.6643V43.179V43.1848V45.2743V47.3638V47.3697V49.4533H67.5834V51.5428H65.5026V53.6323V53.6381H65.4968V53.6323H63.4159H61.335V53.6381H61.3292V53.6323H59.2483H57.1791H57.1675V51.5486H57.1617V51.5428H55.0866V49.4533H55.0808H53.0057H52.9999H50.9249H48.844H48.8382V51.5428H46.7689V51.5486H46.7573V53.6323H44.6823H42.6014H40.5205H38.4397V53.6381H38.4338V55.7335H40.5263V57.8171H48.8556V55.7276H48.844V53.644H48.8556V55.7276H50.9365V53.6381H57.1675V55.7218V55.7276H59.2483V55.7218H59.26V55.7276H59.2542V57.8171H63.4159V55.7335H63.4217V57.8171H67.5893V55.7276H69.6701V53.6381H71.751V51.5545H73.8319V45.2802H71.751V45.2743H73.8319Z" fill="black"/>
<path d="M48.844 34.8151V34.8209V36.9104H50.9249V34.8209V34.8151V32.7314H48.844V34.8151Z" fill="black"/>
<path d="M55.0867 28.5466H53.0059V30.6361H55.0867V28.5466Z" fill="black"/>
<path d="M57.1675 26.4572H55.0867V28.5466H57.1675V26.4572Z" fill="black"/>
<path d="M59.2542 26.4572H57.1733V28.5466H59.2542H61.3351V26.4572H59.2542Z" fill="black"/>
<path d="M63.4216 34.8151V32.7315H65.5025V30.642H67.5892V28.5525H69.6701V24.3677H67.5892V22.2782H67.5834V22.2723H65.4967V24.3618V24.3677V26.4513H63.4216H63.4158V24.3618V22.2723H61.335V24.3618V26.4572H63.4158V28.5467H63.4216V28.5525H63.4158V28.5467H61.335V28.5525V30.6362H59.2599H59.2541H57.1732H55.0865V32.7256H53.0057V30.6362H50.9248V32.7315H53.0057V34.8151V34.821V36.9105H53.0115H55.0865H55.0924H57.1732H59.2541H61.335H63.4158H63.4216H65.4967V34.8151H63.4216Z" fill="black"/>
<path d="M36.3472 51.5428V51.5486H36.3414V49.4533H36.3356H34.2663V43.1848H34.2605V49.4533H34.2547V47.3638V45.2743V43.1848V41.0895H32.1738V43.1848V45.2743V47.3638V49.4533H34.2547V51.5428H34.2605V51.5545H36.3414V53.6381H36.3472H38.4281V51.5428H36.353H36.3472Z" fill="black"/>
<path d="M36.3472 39H34.2664V41.0895H36.3472V39Z" fill="black"/>
<path d="M38.428 36.9105H36.3472V39H38.428V36.9105Z" fill="black"/>
<path d="M40.5088 34.8152H38.428V36.9105H40.5088V34.8152Z" fill="black"/>
<path d="M44.6764 36.9105H46.7573H48.8381V34.8152H46.7573H44.6764H42.5955H40.5146V36.9105H42.5955H44.6764Z" fill="black"/>
<path d="M65.4969 20.1829H63.416V22.2724H65.4969V20.1829Z" fill="black"/>
<path d="M44.6766 43.1848V41.0895H42.5957H40.5148H40.509V41.0953V43.1848H42.5957H44.6766Z" fill="black"/>
<path d="M61.335 41.0895H59.2542V43.1848H61.335V41.0895Z" fill="black"/>
<path d="M40.5088 45.2743V43.1848H38.428V45.2743V47.3638H40.5088V45.2743Z" fill="black"/>
<path d="M44.6765 47.3638H46.7574V45.2743V43.1848H44.6765V45.2743V47.3638Z" fill="black"/>
<path d="M65.5027 43.1848H63.416V45.2743H65.5027V43.1848Z" fill="black"/>
<path d="M59.2542 45.2743H57.1733V47.3638H59.2542V45.2743Z" fill="black"/>
<path d="M40.509 47.3638V49.4533H42.5957H44.6766V47.3638H42.5957H40.509Z" fill="black"/>
<path d="M63.4158 47.3638H61.335V49.4533H63.4158V47.3638Z" fill="black"/>
<path d="M65.4969 22.2723H63.416V26.4513H65.4969V22.2723Z" fill="#29BFCD"/>
<path d="M65.5027 22.2723V26.4572H63.416V26.4513H65.4969V22.2723H65.5027Z" fill="#23BECC"/>
<path d="M55.0867 30.6361H53.0059V32.7256H55.0867V30.6361Z" fill="#29BFCD"/>
<path d="M55.0867 32.7256H53.0059V32.7314H55.0867V32.7256Z" fill="#23BECC"/>
<path d="M63.4161 26.4572H61.3352V28.5466H63.4161V26.4572Z" fill="#29BFCD"/>
<path d="M61.3351 28.5466H55.0867V30.6361H61.3351V28.5466Z" fill="#29BFCD"/>
<path d="M38.428 51.5487V53.6382H38.4338V51.5487H38.428ZM57.1791 53.6323V51.5487H57.1733V53.6382H61.3292H57.1791V53.6323ZM65.4968 36.9105V39H65.5026V36.9105H65.4968Z" fill="#23BECC"/>
<path d="M67.5835 41.0953V38.9999H65.4968V36.9104H53.0058V32.7314H50.9249V36.9104H38.4281V38.9999H36.3472V41.0894H34.2664V49.4532H36.3472V51.5427H38.4281H38.4339V53.6322H38.4397H46.7574V51.5486H46.769H48.8383V49.4591H55.0867V51.5486H57.1617H57.1792V53.6322H61.3293H61.3351H65.4968H65.5027V51.5369H67.5835V49.4474H69.6644V41.0894H67.5835V41.0953ZM46.7574 47.3637H44.6765V49.4532H40.509V47.3637H38.4281V43.1848H40.509V41.0894H44.6765V43.1848H46.7574V47.3637ZM59.2542 47.3637H57.1734V45.2742H59.2542V47.3637ZM59.2542 43.1848V41.0894H61.3351V43.1848H59.2542ZM63.416 49.4532H61.3351V47.3637H63.416V49.4532ZM65.5027 45.2742H63.416V43.1848H65.5027V45.2742Z" fill="#29BFCD"/>
<path d="M44.6766 43.1848H40.509V47.3638H44.6766V43.1848Z" fill="#29BFCD"/>
</svg>
