<svg width="53" height="53" viewBox="0 0 53 53" fill="none" xmlns="http://www.w3.org/2000/svg">
<rect width="53" height="53" rx="12" fill="black"/>
<path d="M31.9545 25.1429C34.2182 25.1429 36.0318 23.3243 36.0318 21.0714C36.0318 18.8186 34.2182 17 31.9545 17C29.6909 17 27.8636 18.8186 27.8636 21.0714C27.8636 23.3243 29.6909 25.1429 31.9545 25.1429ZM21.0455 25.1429C23.3091 25.1429 25.1227 23.3243 25.1227 21.0714C25.1227 18.8186 23.3091 17 21.0455 17C18.7818 17 16.9545 18.8186 16.9545 21.0714C16.9545 23.3243 18.7818 25.1429 21.0455 25.1429ZM21.0455 27.8571C17.8682 27.8571 11.5 29.445 11.5 32.6071V34.6429C11.5 35.3893 12.1136 36 12.8636 36H29.2273C29.9773 36 30.5909 35.3893 30.5909 34.6429V32.6071C30.5909 29.445 24.2227 27.8571 21.0455 27.8571ZM31.9545 27.8571C31.5591 27.8571 31.1091 27.8843 30.6318 27.925C30.6591 27.9386 30.6727 27.9657 30.6864 27.9793C32.2409 29.1057 33.3182 30.6121 33.3182 32.6071V34.6429C33.3182 35.1179 33.2227 35.5793 33.0727 36H40.1364C40.8864 36 41.5 35.3893 41.5 34.6429V32.6071C41.5 29.445 35.1318 27.8571 31.9545 27.8571Z" fill="white"/>
</svg>
