<svg width="116" height="125" viewBox="0 0 116 125" fill="none" xmlns="http://www.w3.org/2000/svg">
<path d="M109.392 27.3571V21.5412H109.334V21.4836H103.516V15.666H103.459V5.81761H97.6412V0H10.4295V15.666H5.21386V21.5412H0V65.6705H5.21386V70.8861H5.81586V71.4881H10.4295V76.7805H16.2471V82.5981H31.9131V85.4825H26.0955V119.182H31.9131V125H87.8137V91.3001H82.5772V87.1541H87.8137V82.5981H103.459V76.7038H109.334V71.4881H115.207V27.3571H109.392Z" fill="#FBFADB"/>
<path d="M109.392 33.1747H103.516V27.3013H97.6413V11.6353H22.0647V27.3013H16.8491V33.1747H11.6335V65.6706H16.8491V70.8862H22.0647V76.7806H37.7308V81.3366H43.6059V87.2118H49.4794V97.1178H37.7308V119.182H81.9962V97.1178H70.9054V87.2118H76.7597V81.3366H81.9962V76.7806H97.6413V70.8862H103.516V65.6706H109.392V33.1747Z" fill="black"/>
<path d="M11.0332 48.2195L11.0332 65.0703H27.884V48.2195H11.0332Z" fill="black"/>
<path d="M22.0647 54.0371H16.8491V59.2527H22.0647V54.0371Z" fill="#FBA927"/>
<path d="M5.81763 27.3589L5.81763 59.8547H22.6684L22.6684 27.3589H5.81763Z" fill="black"/>
<path d="M80.1897 48.2189V65.0697H97.6984V48.2189H80.1897Z" fill="black"/>
<path d="M91.8813 54.0371H86.0061V59.2527H91.8813V54.0371Z" fill="#FBA927"/>
<path d="M86.0645 27.3577V59.8536H103.573V27.3577H86.0645Z" fill="black"/>
<path d="M31.9131 113.365V91.3001H43.6617V81.3942H37.7883V75.519H31.9131V70.9629H16.2471V53.4543H22.1223V38.9923H11.0315V21.4836H16.2471V5.81763H91.8236V21.4836H97.6988V38.9923H87.2676V53.4543H91.8236V70.9629H76.1786V75.519H70.9438V81.3942H65.0878V91.3001H76.1786V113.365H31.9131Z" fill="black"/>
<path d="M16.8491 33.1747H11.6335V54.0353H16.8491V33.1747Z" fill="#FBA927"/>
<path d="M97.7563 33.1747H91.8811V54.0353H97.7563V33.1747Z" fill="#FBA927"/>
<path d="M75.5766 54.0371V59.2719H86.006V65.1471H70.361V69.7014H65.1262V75.5766H59.2702V97.1178H70.361V107.547H37.7307V97.1178H49.4794V75.5766H43.6059V69.7014H37.7307V65.1471H22.0647V59.2719H33.1538V54.0371H27.9399V33.1747H16.8491V27.3013H27.9399V16.8509H22.0647V11.6353H86.006V16.8509H81.45V27.3013H91.8812V33.1747H81.45V54.0371H75.5766Z" fill="#FBA927"/>
<path d="M75.3096 34.8435V32.1526H72.6117V29.4618H67.2308V21.3817H64.5404V18.6908H61.85V16H50.8479V18.6908H48.1575V26.7709H45.4596V29.4618H42.7692V32.1526H32V59.3092H34.6904V62H72.6117V59.3092H75.3096V53.9199H78V34.8435H75.3096ZM48.2702 34.9562V32.2654H50.9606V29.5745H53.651V21.4944H59.0394V32.2654H56.349V34.9562H69.8085V37.6546H59.0394V40.3454H69.8085V43.0363H59.0394V45.7271H69.8085V48.4255H59.0394V51.1163H67.1181V53.8072H42.8819V37.6546H45.5798V34.9562H48.2702ZM40.1915 37.6546V53.8072H37.5011V37.6546H40.1915Z" fill="#FBF6C7"/>
<path d="M72.4989 37.6545V34.9561H69.8084V37.6545H59.0393V40.3454H69.8084V43.0362H59.0393V45.7271H69.8084V48.4254H59.0393V51.1163H67.118V53.8071H42.8818V37.6545H40.1914V53.8071H37.501V59.1963H69.8084V56.498H72.4989V51.1163H75.1893V37.6545H72.4989ZM64.4201 34.9561V24.1852H61.7297V21.4944H59.0393V32.2653H56.3489V34.9561H64.4201Z" fill="black"/>
<path d="M69.8085 37.6545V34.9561H56.3489V32.2653H59.0393V21.4944H53.651V29.5744H50.9606V32.2653H48.2702V34.9561H45.5798V37.6545H42.8818V53.8071H67.1181V51.1163H59.0393V48.4254H69.8085V45.7271H59.0393V43.0362H69.8085V40.3454H59.0393V37.6545H69.8085Z" fill="#29BFCD"/>
<path d="M40.1914 37.6545H37.501V53.8072H40.1914V37.6545Z" fill="#29BFCD"/>
<path d="M59.0392 21.4944V18.8036H56.3488H53.6509V21.4944H56.3488H59.0392Z" fill="black"/>
<path d="M59.0393 26.8836V29.5744V32.2653H56.3489V34.9561H59.0393H61.7297H64.4276H67.118H69.8084V32.2653H67.118H64.4276H61.7297V29.5744V26.8836V24.1928V21.4944H59.0393V24.1928V26.8836Z" fill="black"/>
<path d="M53.6509 26.8836V24.1928V21.4944H50.9604V24.1928V26.8836V29.5744H53.6509V26.8836Z" fill="black"/>
<path d="M50.9604 29.5745H48.27V32.2653H50.9604V29.5745Z" fill="black"/>
<path d="M48.27 32.2654H45.5796V34.9562H48.27V32.2654Z" fill="black"/>
<path d="M37.501 34.9562H34.8105V37.647H37.501V34.9562Z" fill="black"/>
<path d="M40.1914 34.9562H37.501V37.6545H40.1914V34.9562Z" fill="black"/>
<path d="M45.5797 34.9562H42.8818H40.1914V37.6545H42.8818H45.5797V34.9562Z" fill="black"/>
<path d="M69.8085 37.6545H67.1181H64.4276H61.7297H59.0393V40.3454H61.7297H64.4276H67.1181H69.8085V43.0362H72.4989V40.3454V37.6545V34.9562H69.8085V37.6545Z" fill="black"/>
<path d="M67.1181 43.0363H64.4276H61.7297H59.0393V45.7271H61.7297H64.4276H67.1181H69.8085V48.4255H72.4989V45.7271V43.0363H69.8085H67.1181Z" fill="black"/>
<path d="M37.501 48.4255V45.7271V43.0362V40.3454V37.6545H34.8105V40.3454V43.0362V45.7271V48.4255V51.1163V53.8072H37.501V51.1163V48.4255Z" fill="black"/>
<path d="M42.8818 48.4255V45.7271V43.0362V40.3454V37.6545H40.1914V40.3454V43.0362V45.7271V48.4255V51.1163V53.8072H42.8818V51.1163V48.4255Z" fill="black"/>
<path d="M64.4276 48.4255H61.7297H59.0393V51.1164H61.7297H64.4276H67.1181V53.8072H69.8085V51.1164V48.4255H67.1181H64.4276Z" fill="black"/>
<path d="M37.501 53.8071H34.8105V56.498H37.501V53.8071Z" fill="black"/>
<path d="M40.1914 53.8071H37.501V56.498H40.1914V53.8071Z" fill="black"/>
<path d="M61.7297 53.8071H59.0393H56.3489H53.651H50.9606H48.2702H45.5797H42.8818H40.1914V56.498H42.8818H45.5797H48.2702H50.9606H53.651H56.3489H59.0393H61.7297H64.4276H67.1181V53.8071H64.4276H61.7297Z" fill="black"/>
</svg>
