<?xml version="1.0" encoding="UTF-8"?>
<svg id="Layer_1" data-name="Layer 1" xmlns="http://www.w3.org/2000/svg" viewBox="0 0 950 950">
  <defs>
    <style>
      .cls-1 {
        fill: #faa826;
      }

      .cls-2 {
        fill: #fbfadb;
      }
    </style>
  </defs>
  <polygon class="cls-2" points="741.63 404.87 741.63 399.02 741.59 372.15 741.59 273.87 708.87 273.87 708.87 268.02 708.83 241.12 676.11 241.12 676.11 208.39 577.85 208.39 577.85 208.37 545.13 208.37 545.13 175.65 372.17 175.65 372.17 208.39 241.21 208.39 241.21 241.13 208.45 241.13 208.45 327.55 208.4 372.05 175.65 372.05 175.65 545.01 208.37 545.01 208.37 550.87 208.41 577.74 208.41 676.01 241.13 676.01 241.13 681.87 241.17 708.78 273.89 708.78 273.89 741.5 371.96 741.5 371.96 741.63 404.85 741.63 404.81 774.35 577.83 774.35 577.83 741.59 708.83 741.59 708.83 708.83 741.59 708.83 741.59 577.83 774.35 577.83 774.35 404.87 741.63 404.87"/>
  <g>
    <polygon points="714.72 431.74 714.72 300.74 681.96 300.74 681.96 267.99 562.75 267.99 562.75 268 550.98 268 550.98 235.24 431.76 235.24 431.76 267.99 300.8 267.99 300.8 300.73 268.04 300.73 268.04 360.3 267.97 419.86 268 419.86 268 431.65 235.24 431.65 235.24 550.87 268 550.87 268 681.87 300.76 681.87 300.76 714.63 431.75 714.63 431.71 747.48 550.96 747.48 550.96 714.72 681.96 714.72 681.96 681.96 714.72 681.96 714.72 550.96 747.49 550.96 747.49 431.74 714.72 431.74"/>
    <g>
      <path d="M524.15,425.82v-32.76h-32.76v-32.76h-65.48v32.76h-32.76v32.76h-32.76v65.47h32.76v-65.46h32.76v-32.76h65.48v32.76h32.76v65.46h32.76v-65.47h-32.76ZM491.39,524.05h32.76v-32.74h-32.76v32.74ZM425.91,556.81h65.48v-32.74h-65.48v32.74ZM425.91,491.31h-32.76v32.74h32.76v-32.74ZM524.15,425.82v-32.76h-32.76v-32.76h-65.48v32.76h-32.76v32.76h-32.76v65.47h32.76v-65.46h32.76v-32.76h65.48v32.76h32.76v65.46h32.76v-65.47h-32.76ZM491.39,524.05h32.76v-32.74h-32.76v32.74ZM425.91,556.81h65.48v-32.74h-65.48v32.74ZM425.91,491.31h-32.76v32.74h32.76v-32.74ZM524.15,425.82v-32.76h-32.76v-32.76h-65.48v32.76h-32.76v32.76h-32.76v65.47h32.76v-65.46h32.76v-32.76h65.48v32.76h32.76v65.46h32.76v-65.47h-32.76ZM491.39,524.05h32.76v-32.74h-32.76v32.74ZM425.91,556.81h65.48v-32.74h-65.48v32.74ZM425.91,491.31h-32.76v32.74h32.76v-32.74ZM524.15,425.82v-32.76h-32.76v-32.76h-65.48v32.76h-32.76v32.76h-32.76v65.47h32.76v-65.46h32.76v-32.76h65.48v32.76h32.76v65.46h32.76v-65.47h-32.76ZM491.39,524.05h32.76v-32.74h-32.76v32.74ZM425.91,556.81h65.48v-32.74h-65.48v32.74ZM425.91,491.31h-32.76v32.74h32.76v-32.74ZM682,399.02v-131h-32.76v-32.76h-119.22v.02h-11.77v-32.76h-119.22v32.75h-130.96v32.74h-32.76v59.58l-.07,59.56h.03v11.78h-32.76v119.22h32.76v131h32.76v32.76h130.99l-.04,32.85h119.25v-32.76h131v-32.76h32.76v-131h32.76v-119.22h-32.76ZM294.95,622.27v-65.48h32.76v-65.48h-65.48v-65.48h65.48v-65.48h-32.76v-65.48h65.48v16.38l.02,16.36h65.48v-65.48h65.46v.02h.02v65.49h65.47v-32.73h.02v-.03h65.46v32.74l-.02,32.78h-32.76v65.48h65.48v65.48h-65.48v65.48h32.76v65.48h-65.48v-32.76h-65.48v65.44h-65.48v-65.48h-65.48v32.76h-65.48ZM393.15,425.83h32.76v-32.76h65.48v32.76h32.76v65.46h32.76v-65.47h-32.76v-32.76h-32.76v-32.76h-65.48v32.76h-32.76v32.76h-32.76v65.47h32.76v-65.46ZM491.39,524.05h32.76v-32.74h-32.76v32.74ZM425.91,556.81h65.48v-32.74h-65.48v32.74ZM425.91,491.31h-32.76v32.74h32.76v-32.74ZM524.15,425.82v-32.76h-32.76v-32.76h-65.48v32.76h-32.76v32.76h-32.76v65.47h32.76v-65.46h32.76v-32.76h65.48v32.76h32.76v65.46h32.76v-65.47h-32.76ZM491.39,524.05h32.76v-32.74h-32.76v32.74ZM425.91,556.81h65.48v-32.74h-65.48v32.74ZM425.91,491.31h-32.76v32.74h32.76v-32.74ZM524.15,425.82v-32.76h-32.76v-32.76h-65.48v32.76h-32.76v32.76h-32.76v65.47h32.76v-65.46h32.76v-32.76h65.48v32.76h32.76v65.46h32.76v-65.47h-32.76ZM491.39,524.05h32.76v-32.74h-32.76v32.74ZM425.91,556.81h65.48v-32.74h-65.48v32.74ZM425.91,491.31h-32.76v32.74h32.76v-32.74ZM524.15,425.82v-32.76h-32.76v-32.76h-65.48v32.76h-32.76v32.76h-32.76v65.47h32.76v-65.46h32.76v-32.76h65.48v32.76h32.76v65.46h32.76v-65.47h-32.76ZM491.39,524.05h32.76v-32.74h-32.76v32.74ZM425.91,556.81h65.48v-32.74h-65.48v32.74ZM425.91,491.31h-32.76v32.74h32.76v-32.74ZM524.15,425.82v-32.76h-32.76v-32.76h-65.48v32.76h-32.76v32.76h-32.76v65.47h32.76v-65.46h32.76v-32.76h65.48v32.76h32.76v65.46h32.76v-65.47h-32.76ZM491.39,524.05h32.76v-32.74h-32.76v32.74ZM425.91,556.81h65.48v-32.74h-65.48v32.74ZM425.91,491.31h-32.76v32.74h32.76v-32.74Z"/>
      <path class="cls-1" d="M524.15,425.82v-32.76h-32.76v-32.76h-65.48v32.76h-32.76v32.76h-32.76v65.47h32.76v-65.46h32.76v-32.76h65.48v32.76h32.76v65.46h32.76v-65.47h-32.76ZM491.39,491.31v32.74h32.76v-32.74h-32.76ZM425.91,524.07v32.74h65.48v-32.74h-65.48ZM393.15,491.31v32.74h32.76v-32.74h-32.76ZM524.15,425.82v-32.76h-32.76v-32.76h-65.48v32.76h-32.76v32.76h-32.76v65.47h32.76v-65.46h32.76v-32.76h65.48v32.76h32.76v65.46h32.76v-65.47h-32.76ZM556.88,294.87v.03h.02v-.03h-.02ZM491.39,491.31v32.74h32.76v-32.74h-32.76ZM491.39,262.13v.02h.02v-.02h-.02ZM425.91,524.07v32.74h65.48v-32.74h-65.48ZM393.15,491.31v32.74h32.76v-32.74h-32.76ZM655.13,425.89v-32.76h-32.76v-32.76h32.76v-65.48h-32.76v-32.76h-65.48v16.36l.02,16.38h65.46v32.74l-.02,32.78h-32.76v65.48h65.48v65.48h-65.48v65.48h32.76v65.48h-65.48v-32.76h-65.48v65.44h-65.48v-65.48h-65.48v32.76h32.72v32.76h32.76v16.37l-.02,16.48h65.48v-32.76h32.76v-32.76h32.76v32.76h65.48v-32.76h32.76v-65.48h-32.76v-32.76h32.76v-32.76h32.76v-65.48h-32.76ZM524.15,425.82v-32.76h-32.76v-32.76h-65.48v32.76h-32.76v32.76h-32.76v65.47h32.76v-65.46h32.76v-32.76h65.48v32.76h32.76v65.46h32.76v-65.47h-32.76ZM524.15,294.91v-32.76h-32.74v65.49h65.47v-32.73h-32.73ZM491.39,491.31v32.74h32.76v-32.74h-32.76ZM425.91,524.07v32.74h65.48v-32.74h-65.48ZM425.91,229.38v16.37l.02,16.38h65.46v-32.75h-65.48ZM393.17,262.13v16.36l.02,16.4h-32.76v16.37l.02,16.36h65.48v-65.48h-32.76ZM393.15,491.31v32.74h32.76v-32.74h-32.76ZM294.95,262.13v32.74h65.48v-32.74h-65.48ZM294.95,622.27v-65.48h32.76v-65.48h-65.48v-65.48h65.48v-65.48h-32.76v-65.48h-32.76v32.74l-.04,32.66h32.76v32.76h-32.76v32.76h-32.76v65.48h32.76v32.76h32.76v32.76h-32.76v65.48h32.76v32.76h65.48v-32.76h-65.44Z"/>
      <path d="M655.07,491.35v-65.48h-65.48v-65.48h32.76l.02-32.78v-32.74h-65.46v.03h-.02v32.73h-65.47v-65.49h-.02v-.02h-65.46v65.48h-65.48l-.02-16.36v-16.38h-65.48v65.48h32.76v65.48h-65.48v65.48h65.48v65.48h-32.76v65.48h65.48v-32.76h65.48v65.48h65.48v-65.44h65.48v32.76h65.48v-65.48h-32.76v-65.48h65.48ZM556.91,491.29h-32.76v32.76h-32.76v32.76h-65.48v-32.76h-32.76v-32.76h-32.76v-65.47h32.76v-32.76h32.76v-32.76h65.48v32.76h32.76v32.76h32.76v65.47Z"/>
      <polygon points="524.15 425.83 524.15 491.31 491.39 491.31 491.39 524.07 425.91 524.07 425.91 491.31 393.15 491.31 393.15 425.83 425.91 425.83 425.91 393.07 491.39 393.07 491.39 425.83 524.15 425.83"/>
    </g>
  </g>
</svg>