<?xml version="1.0" encoding="UTF-8"?>
<svg id="Layer_1" data-name="Layer 1" xmlns="http://www.w3.org/2000/svg" viewBox="0 0 950 950">
  <defs>
    <style>
      .cls-1 {
        fill: #faa826;
      }

      .cls-2 {
        fill: #fbfadb;
      }
    </style>
  </defs>
  <polygon class="cls-2" points="396.97 773.83 396.97 749.3 347.92 749.3 347.92 724.77 298.86 724.77 298.86 700.25 249.81 700.25 249.81 675.72 200.76 675.72 200.76 651.14 176.17 651.14 176.17 274.27 225.22 274.27 225.22 249.75 274.27 249.75 274.27 225.22 323.33 225.22 323.33 200.7 372.38 200.7 372.38 176.17 553.03 176.17 553.03 200.7 602.08 200.7 602.08 225.22 651.14 225.22 651.14 249.75 700.19 249.75 700.19 274.27 749.24 274.27 749.24 298.86 773.83 298.86 773.83 675.72 724.77 675.72 724.77 700.25 675.72 700.25 675.72 724.77 626.67 724.77 626.67 749.3 577.61 749.3 577.61 773.83 396.97 773.83"/>
  <g>
    <polygon points="703.06 320.57 703.06 296.05 654.01 296.05 654.01 271.52 604.96 271.52 604.96 247 555.9 247 555.9 222.47 418.68 222.47 418.68 247 369.63 247 369.63 271.52 320.57 271.52 320.57 296.05 271.52 296.05 271.52 320.57 222.47 320.57 222.47 654.01 271.52 654.01 271.52 678.54 320.57 678.54 320.57 703.06 369.63 703.06 369.63 727.59 418.68 727.59 418.68 752.12 555.9 752.12 555.9 727.59 604.96 727.59 604.96 703.06 654.01 703.06 654.01 678.54 703.06 678.54 703.06 654.01 752.12 654.01 752.12 320.57 703.06 320.57"/>
    <g>
      <path d="M678.47,295.99v-24.52h-49.05v-24.53h-49.05v-24.52h-49.06v-24.53h-137.22v24.53h-49.05v24.52h-49.06v24.53h-49.05v24.52h-49.05v333.44h49.05v24.53h49.05v24.52h49.06v24.53h49.05v24.53h137.22v-24.53h49.06v-24.53h49.05v-24.52h49.05v-24.53h49.06v-333.44h-49.06ZM683.45,585.34h-49.06v24.53h-49.05v24.52h-49.05v24.53h-49.06v24.53h-49.05v-24.53h-49.05v-24.53h-49.06v-24.52h-49.05v-24.53h-49.05v-245.27h49.05v-24.52h49.05v-24.53h49.06v-24.52h49.05v-24.53h49.05v24.53h49.06v24.52h49.05v24.53h49.05v24.52h49.06v245.27Z"/>
      <polygon points="634.39 340.07 634.39 364.6 585.34 364.6 585.34 389.13 536.29 389.13 536.29 413.65 487.23 413.65 487.23 438.18 438.18 438.18 438.18 413.65 389.13 413.65 389.13 389.13 340.07 389.13 340.07 364.6 291.02 364.6 291.02 340.07 340.07 340.07 340.07 315.55 389.13 315.55 389.13 291.02 438.18 291.02 438.18 266.5 487.23 266.5 487.23 291.02 536.29 291.02 536.29 315.55 585.34 315.55 585.34 340.07 634.39 340.07"/>
      <polygon points="462.71 462.71 462.71 658.92 438.18 658.92 438.18 634.39 389.13 634.39 389.13 609.87 340.07 609.87 340.07 585.34 291.02 585.34 291.02 560.81 266.5 560.81 266.5 364.6 291.02 364.6 291.02 389.13 340.07 389.13 340.07 413.65 389.13 413.65 389.13 438.18 438.18 438.18 438.18 462.71 462.71 462.71"/>
      <rect class="cls-1" x="438.18" y="241.97" width="49.05" height="24.53"/>
      <rect class="cls-1" x="389.13" y="266.5" width="49.05" height="24.52"/>
      <rect class="cls-1" x="340.07" y="291.02" width="49.06" height="24.53"/>
      <rect class="cls-1" x="291.02" y="315.55" width="49.05" height="24.52"/>
      <rect class="cls-1" x="291.02" y="364.6" width="49.05" height="24.53"/>
      <rect class="cls-1" x="340.07" y="389.13" width="49.06" height="24.52"/>
      <rect class="cls-1" x="389.13" y="413.65" width="49.05" height="24.53"/>
      <rect class="cls-1" x="487.23" y="266.5" width="49.06" height="24.52"/>
      <rect class="cls-1" x="536.29" y="291.02" width="49.05" height="24.53"/>
      <rect class="cls-1" x="585.34" y="315.55" width="49.05" height="24.52"/>
      <polygon class="cls-1" points="683.45 340.07 683.45 585.34 634.39 585.34 634.39 609.87 585.34 609.87 585.34 634.39 536.29 634.39 536.29 658.92 487.23 658.92 487.23 683.45 438.18 683.45 438.18 658.92 462.71 658.92 462.71 462.71 438.18 462.71 438.18 438.18 487.23 438.18 487.23 413.65 536.29 413.65 536.29 389.13 585.34 389.13 585.34 364.6 634.39 364.6 634.39 340.07 683.45 340.07"/>
      <polygon class="cls-1" points="266.5 560.81 291.02 560.81 291.02 585.34 241.97 585.34 241.97 340.07 291.02 340.07 291.02 364.6 266.5 364.6 266.5 560.81"/>
      <rect class="cls-1" x="291.02" y="585.34" width="49.05" height="24.53"/>
      <rect class="cls-1" x="340.07" y="609.87" width="49.06" height="24.52"/>
      <rect class="cls-1" x="389.13" y="634.39" width="49.05" height="24.53"/>
    </g>
  </g>
</svg>