<svg width="136" height="136" viewBox="0 0 136 136" fill="none" xmlns="http://www.w3.org/2000/svg">
<rect x="2" y="2" width="131.829" height="131.829" rx="65.9144" fill="#FBFADB"/>
<rect x="2" y="2" width="131.829" height="131.829" rx="65.9144" stroke="#29BFCD" stroke-width="4"/>
<g clip-path="url(#clip0_2169_8233)">
<path d="M94.5453 49.6748H88.6084V43.7558H82.6715V37.8367H76.7347V31.9177H70.7992V26H46.6199V49.6748H11V79.6992H16.9369V85.6182H46.6199V103.375H52.5567V109.293H76.7347V103.375H82.6715V97.4563H88.6084V91.5373H94.5453V85.6182H100.482V55.5938H94.5453V49.6748Z" fill="#FBFADB"/>
<path d="M89.9845 54.222H84.0476V48.3029H78.1108V42.3839H72.1752V36.4648H57.1172V60.141H21.4973V81.0716H57.1172V104.748H72.1752V98.8287H78.1108V92.9096H84.0476V86.9906H89.9845V81.0716H95.9214V60.141H89.9845V54.222Z" fill="black"/>
<path d="M51.1802 98.8288V75.1526H15.5603V54.222H51.1802V30.5459H66.2382V36.4649H72.1751V42.384H78.1106V48.303H84.0475V54.222H89.9844V75.1526H84.0475V81.0717H78.1106V86.9907H72.1751V92.9097H66.2382V98.8288H51.1802Z" fill="black"/>
<path d="M85.4237 58.7699V70.6066H79.4868V76.5257H73.5513V82.4447H67.6144V88.3638H61.6776V94.2828H55.7407V70.6066H20.1208V58.7699H55.7407V35.0938H61.6776V41.0128H67.6144V46.9318H73.5513V52.8509H79.4868V58.7699H85.4237Z" fill="#00C6D3"/>
<rect x="51.5" y="32.7295" width="4.5" height="62.8108" fill="black"/>
<path d="M47 30.4863H51.5V98.9053H47V30.4863Z" fill="#FBFADB"/>
</g>
<defs>
<clipPath id="clip0_2169_8233">
<rect width="54" height="83" fill="white" transform="translate(47 26)"/>
</clipPath>
</defs>
</svg>
