<svg width="116" height="125" viewBox="0 0 116 125" fill="none" xmlns="http://www.w3.org/2000/svg">
<path d="M109.392 27.3571V21.5412H109.334V21.4836H103.516V15.666H103.459V5.81761H97.6412V0H10.4295V15.666H5.21386V21.5412H0V65.6705H5.21386V70.8861H5.81586V71.4881H10.4295V76.7805H16.2471V82.5981H31.9131V85.4825H26.0955V119.182H31.9131V125H87.8137V91.3001H82.5772V87.1541H87.8137V82.5981H103.459V76.7038H109.334V71.4881H115.207V27.3571H109.392Z" fill="#FBFADB"/>
<path d="M109.392 33.1746H103.516V27.3012H97.6413V11.6352H22.0647V27.3012H16.8491V33.1746H11.6335V65.6705H16.8491V70.8861H22.0647V76.7805H37.7308V81.3365H43.6059V87.2117H49.4794V97.1177H37.7308V119.182H81.9962V97.1177H70.9054V87.2117H76.7597V81.3365H81.9962V76.7805H97.6413V70.8861H103.516V65.6705H109.392V33.1746Z" fill="black"/>
<path d="M11.0332 48.2195L11.0332 65.0703H27.884V48.2195H11.0332Z" fill="black"/>
<path d="M22.0647 54.0371H16.8491V59.2527H22.0647V54.0371Z" fill="#FBA927"/>
<path d="M5.81763 27.3588L5.81763 59.8547H22.6684L22.6684 27.3588H5.81763Z" fill="black"/>
<path d="M80.1897 48.2189V65.0697H97.6984V48.2189H80.1897Z" fill="black"/>
<path d="M91.8813 54.0371H86.0061V59.2527H91.8813V54.0371Z" fill="#FBA927"/>
<path d="M86.0645 27.3577V59.8536H103.573V27.3577H86.0645Z" fill="black"/>
<path d="M31.9131 113.365V91.3001H43.6617V81.3942H37.7883V75.519H31.9131V70.9629H16.2471V53.4543H22.1223V38.9923H11.0315V21.4836H16.2471V5.81763H91.8236V21.4836H97.6988V38.9923H87.2676V53.4543H91.8236V70.9629H76.1786V75.519H70.9438V81.3942H65.0878V91.3001H76.1786V113.365H31.9131Z" fill="black"/>
<path d="M16.8491 33.1747H11.6335V54.0353H16.8491V33.1747Z" fill="#FBA927"/>
<path d="M97.7563 33.1747H91.8811V54.0353H97.7563V33.1747Z" fill="#FBA927"/>
<path d="M75.5766 54.0371V59.2719H86.006V65.147H70.361V69.7013H65.1262V75.5765H59.2702V97.1177H70.361V107.547H37.7307V97.1177H49.4794V75.5765H43.6059V69.7013H37.7307V65.147H22.0647V59.2719H33.1538V54.0371H27.9399V33.1746H16.8491V27.3012H27.9399V16.8508H22.0647V11.6352H86.006V16.8508H81.45V27.3012H91.8812V33.1746H81.45V54.0371H75.5766Z" fill="#FBA927"/>
<path d="M40.3977 56.0848V29.7591H42.2767V27.8795L68.603 27.8795V29.7591H70.482V56.0848H40.3977Z" fill="black"/>
<path d="M66.7172 31.6447V29.765L44.1631 29.765V31.6447H42.2834V54.1987H68.5968V31.6447H66.7172ZM62.9578 39.1627H61.0782V41.0424H59.1985V42.922H57.3188V44.8017H55.4392V46.6814H51.6798V44.8017H49.8002V42.922H47.9205V41.0424H49.8002V39.1627H51.6798V41.0424H55.4392V39.1627H57.3188V37.283H59.1985V35.4034H61.0782V37.283H62.9578V39.1627Z" fill="black"/>
<path d="M34.7591 61.7231V59.8434H32.8794V48.5538H34.7591V46.6748H42.29V54.1928H68.5905V46.6748H76.1214V48.5538H78.0004V59.8434H76.1214V61.7231L34.7591 61.7231Z" fill="black"/>
<path d="M76.1148 50.4399V57.9579H74.2352V59.8376H36.645V57.9579H34.7654V50.4399H36.645V48.5602H40.4037V52.3189H38.5241V56.0783L72.3555 56.0783V52.3189H70.4765V48.5602H74.2352V50.4399H76.1148Z" fill="black"/>
<path d="M38.5181 54.2053V27.8797H40.3977V26L66.7234 26V27.8797H68.6024V54.2053H38.5181Z" fill="black"/>
<path d="M64.8373 29.7651V27.8854L42.2832 27.8854V29.7651H40.4036V52.3192H66.717V29.7651H64.8373ZM61.0786 37.2831H59.1989V39.1628H57.3193V41.0425H55.4396V42.9221H53.5599V44.8018H49.8006V42.9221H47.9209V41.0425H46.0413V39.1628H47.9209V37.2831H49.8006V39.1628H53.5599V37.2831H55.4396V35.4035H57.3193V33.5238H59.1989V35.4035H61.0786V37.2831Z" fill="#00C6D3"/>
<path d="M32.879 59.8436V57.964H31V46.675H32.879V44.7953H40.4099V52.3134H66.7104V44.7953H74.2413V46.675H76.121V57.964H74.2413V59.8436L32.879 59.8436Z" fill="black"/>
<path d="M74.2349 48.5607V56.0787H72.3553V57.9584H34.7652V56.0787H32.8855V48.5607H34.7652V46.681H38.5239V50.4404H36.6448V54.199L70.4762 54.199V50.4404H68.5966V46.681H72.3553V48.5607H74.2349Z" fill="#00C6D3"/>
</svg>
