<?xml version="1.0" encoding="UTF-8"?>
<svg id="Layer_2" data-name="Layer 2" xmlns="http://www.w3.org/2000/svg" viewBox="0 0 137.47 163.79">
  <defs>
    <style>
      .cls-1 {
        fill: #fba927;
      }

      .cls-2 {
        fill: #fbf8c6;
      }

      .cls-3 {
        fill: #231f20;
      }

      .cls-4 {
        fill: #f8bc16;
      }

      .cls-5 {
        fill: #010101;
      }

      .cls-6 {
        fill: #fbf8c9;
      }
    </style>
  </defs>
  <g id="Layer_1-2" data-name="Layer 1">
    <g>
      <path class="cls-6" d="M86.7,31.92c-.61-.3-1.24-.58-1.87-.85.64.27,1.26.55,1.87.85Z"/>
      <path class="cls-6" d="M102.59,71.03s-.06-.1-.09-.16h0c.03.05.06.1.09.16Z"/>
      <g>
        <g>
          <path class="cls-5" d="M102.59,71.03s-.06-.1-.09-.16h0c.03.05.06.1.09.16Z"/>
          <path class="cls-5" d="M102.59,71.03s-.06-.1-.09-.16h0c.03.05.06.1.09.16Z"/>
        </g>
        <g>
          <g>
            <path class="cls-5" d="M102.59,71.03s-.06-.1-.09-.16h0c.03.05.06.1.09.16Z"/>
            <path class="cls-4" d="M102.59,71.03s-.06-.1-.09-.16h0c.03.05.06.1.09.16Z"/>
          </g>
          <path class="cls-5" d="M102.5,70.87h0c.04.05.07.11.09.16-.03-.05-.06-.1-.09-.16Z"/>
          <path class="cls-2" d="M131.29,76.41c-3.91-6.97-9.63-12.73-16.67-16.82.34-1.13.62-2.3.83-3.49,1.59-8.87-.88-18.32-6.77-25.93-3.68-4.75-8.6-8.77-14.32-11.73-.26-.36-.52-.72-.8-1.07-4.74-6.13-11.42-10.95-19.32-13.97C67.09.68,58.97-.46,51.39.17c-1.55.13-3.14.34-4.72.61-12.61,2.22-24.36,8.96-33.08,18.97C3.41,31.45-1.52,46.71.41,60.56c.86,6.12,3.51,14.78,11.28,21.36,1.23,1.04,2.54,1.99,3.93,2.84-.61.9-1.2,1.81-1.76,2.73-4.22,6.97-9.09,18-8.28,30.92.5,7.96,3.21,14.74,8.05,20.18,3.15,3.54,7.14,6.39,11.89,8.47.95,1.53,2.02,2.98,3.22,4.33,3.57,4.01,8.23,7.13,13.85,9.27,2.02.77,4.16,1.41,6.38,1.9,6.97,1.54,14.5,1.62,22.36.23,4.96-.88,10.04-2.33,15.09-4.32,10.46-4.13,20.54-10.17,29.14-17.46,11.02-9.34,17.98-19.8,20.67-31.08,2.67-11.18.91-23.09-4.96-33.53ZM128.95,108.19c-2.32,9.7-8.45,18.82-18.22,27.1-7.97,6.76-17.33,12.36-27.04,16.2-4.58,1.8-9.17,3.12-13.64,3.91-6.89,1.21-13.42,1.16-19.43-.17-1.86-.41-3.65-.95-5.34-1.59-4.48-1.71-8.14-4.14-10.91-7.25-1.43-1.61-2.62-3.38-3.55-5.31-.22-.08-.44-.16-.66-.24-4.47-1.71-8.14-4.14-10.91-7.25-3.7-4.16-5.77-9.43-6.16-15.65-.69-10.99,3.54-20.51,7.21-26.57,1.81-2.98,3.92-5.8,6.29-8.42.38-.43.77-.84,1.16-1.26-.74-.18-1.46-.39-2.17-.61-.51-.16-1.01-.34-1.5-.53-2.83-1.07-5.35-2.54-7.52-4.38-5.96-5.05-8.02-11.84-8.69-16.66-1.64-11.72,2.63-24.74,11.4-34.83,7.59-8.71,17.79-14.57,28.72-16.5,1.34-.24,2.69-.41,4.03-.52,6.5-.55,13.45.44,19.58,2.77,6.6,2.52,12.15,6.51,16.05,11.54.59.76,1.13,1.53,1.62,2.34,5.48,2.51,10.11,6.1,13.5,10.47,4.59,5.93,6.53,13.22,5.31,20-.44,2.49-1.24,4.78-2.36,6.86-.28.53-.59,1.05-.92,1.56.05.02.1.04.15.06,1.02.39,2.02.82,3,1.29,7.16,3.41,13.06,8.85,16.83,15.55,4.94,8.79,6.43,18.77,4.2,28.1Z"/>
          <path class="cls-3" d="M124.74,80.09c-3.77-6.7-9.67-12.14-16.83-15.55-.98-.47-1.97-.89-3-1.29-.05-.02-.1-.04-.15-.06.33-.51.64-1.02.92-1.56,1.13-2.08,1.92-4.38,2.36-6.86,1.21-6.77-.72-14.07-5.31-20-3.39-4.37-8.02-7.96-13.5-10.47-.5-.8-1.04-1.58-1.62-2.34-3.9-5.04-9.45-9.02-16.05-11.54-6.13-2.33-13.08-3.32-19.58-2.77-1.34.11-2.69.29-4.03.52-10.93,1.93-21.13,7.79-28.72,16.5-8.78,10.09-13.04,23.11-11.4,34.83.68,4.82,2.73,11.62,8.69,16.66,2.17,1.83,4.7,3.31,7.52,4.38.49.19.99.36,1.5.53.71.23,1.43.43,2.17.61-.4.41-.79.83-1.16,1.26-2.37,2.62-4.47,5.44-6.29,8.42-3.67,6.06-7.9,15.57-7.21,26.57.39,6.23,2.46,11.49,6.16,15.65,2.76,3.1,6.43,5.54,10.91,7.25.22.08.44.16.66.24.93,1.93,2.12,3.7,3.55,5.31,2.76,3.1,6.43,5.54,10.91,7.25,1.68.64,3.48,1.17,5.34,1.59,6.01,1.33,12.55,1.38,19.43.17,4.48-.79,9.07-2.11,13.64-3.91,9.71-3.84,19.07-9.44,27.04-16.2,9.77-8.28,15.9-17.4,18.22-27.1,2.23-9.33.74-19.31-4.2-28.1ZM106.08,93.54c-1.92,8.01-7.17,15.7-15.62,22.87-7.32,6.2-15.91,11.34-24.82,14.87-7.15,2.82-17.89,5.7-28.42,3.37-.12-.03-.24-.06-.36-.09h0s-.05-.01-.08-.02c-.29-.07-.57-.14-.86-.21-.1-.03-.19-.05-.29-.08-.24-.06-.48-.13-.72-.21-.66-.2-1.29-.41-1.91-.65-.41-.16-.81-.32-1.19-.49-.19-.09-.38-.17-.58-.26-.68-.32-1.33-.66-1.94-1.03-.18-.1-.36-.21-.53-.33-.18-.11-.36-.23-.53-.35-.14-.1-.29-.2-.42-.3-.28-.21-.55-.41-.81-.63-.22-.18-.43-.37-.64-.55-.14-.12-.27-.25-.4-.38-.26-.25-.51-.51-.75-.78-2.49-2.79-3.88-6.45-4.16-10.86-.56-8.94,2.99-16.86,6.07-21.93.22-.37.45-.73.68-1.1.06-.09.12-.18.18-.27.21-.33.44-.67.67-1,.22-.32.44-.63.67-.94.1-.14.21-.28.31-.42.16-.22.32-.43.49-.64.13-.18.27-.35.41-.52.41-.52.84-1.04,1.27-1.54.02-.03.05-.05.07-.08.19-.23.39-.45.59-.67.57-.64,1.16-1.27,1.77-1.88.19-.2.39-.4.59-.59.13-.13.26-.26.39-.39,0,0,.02-.02.03-.03.29-.27.57-.54.86-.8.22-.2.43-.39.65-.58.23-.21.47-.41.7-.61.01-.01.02-.02.04-.03.04-.03.09-.08.13-.11.27-.23.55-.47.84-.69.25-.21.5-.41.76-.61.1-.08.22-.17.32-.25.22-.18.45-.35.68-.52.24-.19.5-.37.75-.55.12-.09.23-.17.34-.24.25-.18.49-.35.75-.52.19-.13.39-.26.58-.39.32-.22.65-.44.98-.64.02-.02.05-.04.07-.05.37-.24.74-.46,1.11-.69.1-.07.21-.13.31-.18.29-.17.57-.33.85-.5.2-.12.4-.23.6-.34.39-.22.78-.43,1.17-.63.45-.24.9-.47,1.36-.69.47-.23.94-.46,1.42-.67.47-.22.95-.43,1.44-.64,1.62-.69,3.29-1.32,4.98-1.87.28-.09.55-.18.83-.26.18-.06.36-.11.54-.17.34-.1.68-.2,1.02-.29.04-.01.07-.02.1-.03h0c.12-.03.23-.06.35-.1.3-.08.59-.16.9-.23.14-.04.28-.07.42-.1.35-.09.7-.17,1.05-.25.43-.1.86-.19,1.29-.28.49-.1.99-.2,1.49-.28.53-.09,1.06-.18,1.59-.26,1.31-.2,2.66-.35,4.05-.46l.02.24.11,1.64c.05.77.94,1.21,1.58.76l5.27-3.58,2.63-1.79c.64-.44.58-1.4-.11-1.75l-4.89-2.44-3.67-1.83c-.7-.35-1.51.2-1.46.98l.1,1.51c-.29.02-.58.04-.87.07-.22.02-.45.04-.67.06-.37.03-.73.07-1.1.12-.47.05-.92.1-1.39.17-.16.02-.31.04-.47.06h0c-.34.05-.68.1-1.02.15-.46.07-.92.15-1.37.22s-.91.17-1.36.26l-.18.03c-.52.11-1.04.22-1.55.33-.52.11-1.05.24-1.56.37-.43.1-.86.22-1.29.34-.21.05-.43.11-.63.17-.42.12-.86.25-1.28.38-.47.14-.94.29-1.4.44-.14.05-.28.09-.43.14-.38.13-.76.26-1.13.4-.56.2-1.13.41-1.69.63-.48.19-.96.38-1.44.58-.06.02-.11.05-.16.07-.43.18-.86.36-1.28.55-.54.24-1.07.49-1.61.74-.44.21-.87.43-1.31.65-.08.04-.15.08-.23.11-.43.22-.86.45-1.29.68-.04.01-.07.03-.1.06-.46.24-.91.5-1.37.76-.47.27-.94.55-1.4.83-.42.26-.84.52-1.27.8-.12.07-.24.15-.35.23-.38.24-.75.49-1.12.74-.32,0-.64,0-.95,0-.24,0-.48,0-.71-.02-.27-.01-.54-.02-.81-.04-.29-.02-.57-.03-.84-.05-.25-.02-.5-.04-.74-.07-.26-.03-.51-.05-.77-.08s-.51-.06-.75-.1c-.24-.03-.48-.07-.71-.11-.01,0-.02,0-.03,0h0c-.35-.06-.7-.13-1.04-.2-.17-.03-.34-.07-.51-.11-1.08-.25-2.1-.56-3.06-.92-.25-.09-.49-.19-.73-.3-.19-.08-.38-.17-.57-.25-.56-.26-1.09-.53-1.6-.84-.18-.1-.36-.21-.54-.33-.2-.12-.39-.25-.57-.38l-.08-.06c-.39-.27-.76-.56-1.12-.86-4.05-3.42-5.46-8.24-5.94-11.68-1.32-9.48,2.24-20.13,9.53-28.5,7.17-8.24,17.15-13.45,27.39-14.32,5.34-.46,11.04.36,16.07,2.27.32.12.63.24.94.37.02.01.05.02.07.03.31.13.61.26.91.4.25.11.5.23.74.35.27.13.54.27.81.41.19.09.37.19.55.29.43.23.84.47,1.25.72,0,0,.01,0,.02,0,.18.11.35.21.52.33.4.25.79.5,1.16.77.14.1.27.19.4.29.97.71,1.88,1.46,2.72,2.26.18.17.36.35.53.52.71.71,1.36,1.45,1.96,2.23.35.45.67.9.97,1.37.1.16.2.31.29.47.1.16.19.31.28.47.07.12.14.24.21.37.11.19.21.39.31.59.08.16.16.33.24.49h0c.09.19.17.37.25.56.09.21.18.43.27.64.07.16.12.33.18.49.07.19.14.38.19.57.06.16.11.32.15.49.7,2.41.86,4.88.44,7.22-.45,2.47-1.38,4.62-2.79,6.39-.34.43-.71.84-1.09,1.21-.32.31-.74.58-1.2.87-.33.21-.66.43-.98.67-6.51-.82-13.63-.5-22.35,1.03-1.88.33-3.85.7-5.98,1.15l-.46-1.52c-.23-.75-1.19-.97-1.72-.4l-6.48,7.03c-.53.57-.24,1.5.51,1.68l9.31,2.22c.76.18,1.43-.53,1.21-1.28l-.5-1.65c9.46-2,19.45-3.58,29.34-1.53,1.72.36,3.42.86,5.05,1.47.27.1.55.21.82.32.13.05.26.11.39.17.43.18.85.37,1.27.58.53.25,1.05.52,1.55.8.36.2.72.4,1.07.61.28.17.56.34.83.52.01,0,.02.01.03.02.28.17.54.36.81.54.04.03.08.06.12.09.28.2.55.4.83.6.61.45,1.19.93,1.76,1.42.36.32.72.64,1.07.98.2.2.41.4.61.6.15.15.29.3.43.45.17.18.34.36.5.54.16.18.33.37.48.55s.32.37.47.57c.31.38.6.77.89,1.16.27.37.53.74.78,1.12.02.03.03.05.05.08.13.21.26.41.39.62.13.21.25.42.38.63h0c.03.05.06.1.09.16.03.05.06.11.09.16,3.95,7.04,5.16,14.97,3.4,22.35Z"/>
          <path class="cls-1" d="M106.08,93.54c-1.92,8.01-7.17,15.7-15.62,22.87-7.32,6.2-15.91,11.34-24.82,14.87-7.15,2.82-17.89,5.7-28.42,3.37-.12-.03-.24-.06-.36-.09h0s-.05-.01-.08-.02c-.29-.07-.57-.14-.86-.21-.1-.03-.19-.05-.29-.08-.24-.06-.48-.13-.72-.21-.66-.2-1.29-.41-1.91-.65-.41-.16-.81-.32-1.19-.49-.19-.09-.38-.17-.58-.26-.68-.32-1.33-.66-1.94-1.03-.18-.1-.36-.21-.53-.33-.18-.11-.36-.23-.53-.35-.14-.1-.29-.2-.42-.3-.28-.21-.55-.41-.81-.63-.22-.18-.43-.37-.64-.55-.14-.12-.27-.25-.4-.38-.26-.25-.51-.51-.75-.78-2.49-2.79-3.88-6.45-4.16-10.86-.56-8.94,2.99-16.86,6.07-21.93.22-.37.45-.73.68-1.1.06-.09.12-.18.18-.27.21-.33.44-.67.67-1,.22-.32.44-.63.67-.94.1-.14.21-.28.31-.42.16-.22.32-.43.49-.64.13-.18.27-.35.41-.52.41-.52.84-1.04,1.27-1.54.02-.03.05-.05.07-.08.19-.23.39-.45.59-.67.57-.64,1.16-1.27,1.77-1.88.19-.2.39-.4.59-.59.13-.13.26-.26.39-.39,0,0,.02-.02.03-.03.29-.27.57-.54.86-.8.22-.2.43-.39.65-.58.23-.21.47-.41.7-.61.01-.01.02-.02.04-.03.04-.03.09-.08.13-.11.27-.23.55-.47.84-.69.25-.21.5-.41.76-.61.1-.08.22-.17.32-.25.22-.18.45-.35.68-.52.24-.19.5-.37.75-.55.12-.09.23-.17.34-.24.25-.18.49-.35.75-.52.19-.13.39-.26.58-.39.32-.22.65-.44.98-.64.02-.02.05-.04.07-.05.37-.24.74-.46,1.11-.69.1-.07.21-.13.31-.18.29-.17.57-.33.85-.5.2-.12.4-.23.6-.34.39-.22.78-.43,1.17-.63.45-.24.9-.47,1.36-.69.47-.23.94-.46,1.42-.67.47-.22.95-.43,1.44-.64,1.62-.69,3.29-1.32,4.98-1.87.28-.09.55-.18.83-.26.18-.06.36-.11.54-.17.34-.1.68-.2,1.02-.29.04-.01.07-.02.1-.03h0c.12-.03.23-.06.35-.1.3-.08.59-.16.9-.23.14-.04.28-.07.42-.1.35-.09.7-.17,1.05-.25.43-.1.86-.19,1.29-.28.49-.1.99-.2,1.49-.28.53-.09,1.06-.18,1.59-.26,1.31-.2,2.66-.35,4.05-.46l.02.24.11,1.64c.05.77.94,1.21,1.58.76l5.27-3.58,2.63-1.79c.64-.44.58-1.4-.11-1.75l-4.89-2.44-3.67-1.83c-.7-.35-1.51.2-1.46.98l.1,1.51c-.29.02-.58.04-.87.07-.22.02-.45.04-.67.06-.37.03-.73.07-1.1.12-.47.05-.92.1-1.39.17-.16.02-.31.04-.47.06h0c-.34.05-.68.1-1.02.15-.46.07-.92.15-1.37.22s-.91.17-1.36.26l-.18.03c-.52.11-1.04.22-1.55.33-.52.11-1.05.24-1.56.37-.43.1-.86.22-1.29.34-.21.05-.43.11-.63.17-.42.12-.86.25-1.28.38-.47.14-.94.29-1.4.44-.14.05-.28.09-.43.14-.38.13-.76.26-1.13.4-.56.2-1.13.41-1.69.63-.48.19-.96.38-1.44.58-.06.02-.11.05-.16.07-.43.18-.86.36-1.28.55-.54.24-1.07.49-1.61.74-.44.21-.87.43-1.31.65-.08.04-.15.08-.23.11-.43.22-.86.45-1.29.68-.04.01-.07.03-.1.06-.46.24-.91.5-1.37.76-.47.27-.94.55-1.4.83-.43.26-.85.52-1.27.8-.12.07-.24.15-.35.23-.38.24-.75.49-1.12.74-.32,0-.64,0-.95,0-.24,0-.48,0-.71-.02-.27-.01-.54-.02-.81-.04-.29-.02-.57-.03-.84-.05-.25-.02-.5-.04-.74-.07-.26-.03-.51-.05-.77-.08s-.51-.06-.75-.1c-.24-.03-.48-.07-.71-.11-.01,0-.02,0-.03,0h0c-.35-.06-.7-.13-1.04-.2-.17-.03-.34-.07-.51-.11-1.08-.25-2.1-.56-3.06-.92-.25-.09-.49-.19-.73-.3-.19-.08-.38-.17-.57-.25-.56-.26-1.09-.53-1.6-.84-.18-.1-.36-.21-.54-.33-.2-.12-.39-.25-.57-.38l-.08-.06c-.39-.27-.76-.56-1.12-.86-4.05-3.42-5.46-8.24-5.94-11.68-1.32-9.48,2.24-20.13,9.53-28.5,7.17-8.24,17.15-13.45,27.39-14.32,5.34-.46,11.04.36,16.07,2.27.32.12.63.24.94.37.02.01.05.02.07.03.31.13.61.26.91.4.25.11.5.23.74.35.27.13.54.27.81.41.19.09.37.19.55.29.43.23.84.47,1.25.72,0,0,.01,0,.02,0,.18.11.35.22.52.33.4.25.79.5,1.16.77.14.1.27.19.4.29.97.71,1.88,1.46,2.72,2.26.18.17.36.35.53.52.71.71,1.36,1.45,1.96,2.23.35.45.67.9.97,1.37.1.16.2.31.29.47.1.16.19.31.28.47.07.12.14.24.21.37.11.19.21.39.31.59.08.16.16.33.24.49h0c.09.19.17.38.25.56.09.21.18.43.27.64.07.16.12.33.18.49.07.19.13.38.19.57.06.16.11.32.15.49.7,2.41.86,4.88.44,7.22-.45,2.47-1.38,4.62-2.79,6.39-.34.43-.71.84-1.09,1.21-.32.31-.74.58-1.2.87-.33.21-.66.43-.98.67-6.51-.82-13.63-.5-22.35,1.03-1.88.33-3.85.7-5.98,1.15l-.46-1.52c-.23-.75-1.19-.97-1.72-.4l-6.48,7.03c-.53.57-.24,1.5.51,1.68l9.31,2.22c.76.18,1.43-.53,1.21-1.28l-.5-1.65c9.46-2,19.45-3.58,29.34-1.53,1.72.36,3.42.86,5.05,1.47.27.1.55.21.82.32.13.05.26.11.39.17.43.18.85.37,1.27.58.53.25,1.05.52,1.55.8.36.2.72.4,1.07.61.28.17.56.34.83.52.01,0,.02.01.03.02.27.18.54.36.81.54.04.03.08.06.12.09.28.2.55.4.83.6.61.45,1.19.93,1.76,1.42.36.32.72.64,1.07.98.2.2.41.4.61.6.15.15.29.3.43.45.17.18.34.36.5.54.16.18.33.37.48.55s.32.37.47.57c.31.38.6.77.89,1.16.27.37.53.74.78,1.12.02.03.03.05.05.08.13.21.26.41.39.62.13.21.25.42.38.63.04.05.07.11.09.16.03.05.06.11.09.16,3.95,7.04,5.16,14.97,3.4,22.35Z"/>
        </g>
      </g>
    </g>
  </g>
</svg>