<svg width="58" height="65" viewBox="0 0 58 65" fill="none" xmlns="http://www.w3.org/2000/svg">
<path d="M48.3333 35.752H46.1422L39.6978 42.2515H45.8522L51.5556 48.7511H6.44444L12.18 42.2515H18.7856L12.3411 35.752H9.66667L0 45.5013V58.5004C0 60.2242 0.678966 61.8774 1.88753 63.0963C3.0961 64.3152 4.73527 65 6.44444 65H51.5556C53.2647 65 54.9039 64.3152 56.1125 63.0963C57.321 61.8774 58 60.2242 58 58.5004V45.5013L48.3333 35.752ZM45.1111 19.3406L29.1611 35.427L17.7222 23.9228L33.7044 7.83634L45.1111 19.3406ZM31.4489 0.946798L10.9233 21.6479C10.6246 21.9486 10.3876 22.3057 10.2259 22.6988C10.0642 23.0919 9.98101 23.5134 9.98101 23.939C9.98101 24.3646 10.0642 24.7861 10.2259 25.1792C10.3876 25.5723 10.6246 25.9294 10.9233 26.2301L26.8733 42.2515C28.13 43.5839 30.16 43.5839 31.4167 42.2515L51.91 21.6479C52.2087 21.3473 52.4457 20.9901 52.6074 20.597C52.7691 20.2039 52.8523 19.7824 52.8523 19.3568C52.8523 18.9312 52.7691 18.5098 52.6074 18.1166C52.4457 17.7235 52.2087 17.3664 51.91 17.0657L35.96 0.979296C35.6693 0.672522 35.3204 0.427769 34.9342 0.259559C34.5479 0.09135 34.132 0.00311185 33.7113 8.08341e-05C33.2905 -0.00295018 32.8735 0.0792878 32.4848 0.241915C32.0962 0.404542 31.7439 0.644244 31.4489 0.946798Z" fill="white"/>
</svg>
