<svg width="37" height="53" viewBox="0 0 37 53" fill="none" xmlns="http://www.w3.org/2000/svg">
<path d="M18.5 25.175C16.7477 25.175 15.0671 24.477 13.828 23.2346C12.589 21.9922 11.8929 20.3071 11.8929 18.55C11.8929 16.7929 12.589 15.1078 13.828 13.8654C15.0671 12.623 16.7477 11.925 18.5 11.925C20.2523 11.925 21.9329 12.623 23.172 13.8654C24.411 15.1078 25.1071 16.7929 25.1071 18.55C25.1071 19.42 24.9362 20.2815 24.6042 21.0853C24.2722 21.8891 23.7855 22.6194 23.172 23.2346C22.5584 23.8498 21.8301 24.3378 21.0284 24.6707C20.2268 25.0036 19.3677 25.175 18.5 25.175ZM18.5 0C13.5935 0 8.88795 1.95437 5.41852 5.43317C1.9491 8.91197 0 13.6302 0 18.55C0 32.4625 18.5 53 18.5 53C18.5 53 37 32.4625 37 18.55C37 13.6302 35.0509 8.91197 31.5815 5.43317C28.1121 1.95437 23.4065 0 18.5 0Z" fill="white"/>
</svg>
