<svg width="53" height="53" viewBox="0 0 53 53" fill="none" xmlns="http://www.w3.org/2000/svg">
<path fill-rule="evenodd" clip-rule="evenodd" d="M38.8036 0C39.5566 0 40.2788 0.299138 40.8112 0.831608C41.3437 1.36408 41.6429 2.08626 41.6429 2.83929V7.57143H49.2143C50.2183 7.57143 51.1812 7.97028 51.8912 8.68024C52.6011 9.3902 53 10.3531 53 11.3571V49.2143C53 50.2183 52.6011 51.1812 51.8912 51.8912C51.1812 52.6011 50.2183 53 49.2143 53H3.78571C2.78168 53 1.81877 52.6011 1.10881 51.8912C0.398851 51.1812 0 50.2183 0 49.2143V11.3571C0 10.3531 0.398851 9.3902 1.10881 8.68024C1.81877 7.97028 2.78168 7.57143 3.78571 7.57143H11.3571V2.83929C11.3571 2.08626 11.6563 1.36408 12.1888 0.831608C12.7212 0.299138 13.4434 0 14.1964 0C14.9495 0 15.6716 0.299138 16.2041 0.831608C16.7366 1.36408 17.0357 2.08626 17.0357 2.83929V7.57143H35.9643V2.83929C35.9643 2.08626 36.2634 1.36408 36.7959 0.831608C37.3284 0.299138 38.0505 0 38.8036 0ZM5.67857 24.6071V47.3214H47.3214V24.6071H5.67857ZM5.67857 18.9286H47.3214V13.25H5.67857V18.9286ZM35.1314 30.1721C35.6631 30.7045 35.9618 31.4262 35.9618 32.1786C35.9618 32.931 35.6631 33.6526 35.1314 34.185L26.6136 42.7029C26.0812 43.2346 25.3596 43.5332 24.6071 43.5332C23.8547 43.5332 23.1331 43.2346 22.6007 42.7029L17.8686 37.9707C17.5896 37.7108 17.3659 37.3973 17.2107 37.049C17.0555 36.7008 16.9721 36.3248 16.9653 35.9435C16.9586 35.5623 17.0287 35.1836 17.1715 34.8301C17.3143 34.4766 17.5269 34.1554 17.7965 33.8858C18.0661 33.6162 18.3873 33.4036 18.7408 33.2608C19.0943 33.118 19.473 33.0479 19.8543 33.0546C20.2355 33.0613 20.6115 33.1448 20.9598 33.3C21.308 33.4552 21.6215 33.6789 21.8814 33.9579L24.6071 36.6836L31.1186 30.1721C31.6509 29.6404 32.3726 29.3418 33.125 29.3418C33.8774 29.3418 34.5991 29.6404 35.1314 30.1721Z" fill="white"/>
</svg>
