<?xml version="1.0" encoding="UTF-8" standalone="no"?>
<svg
   width="55"
   height="55"
   viewBox="0 0 55 55"
   fill="none"
   version="1.1"
   id="svg4"
   sodipodi:docname="arrowLink.svg"
   inkscape:version="1.4.4 (dcaf3e7d9e, 2026-05-05)"
   xmlns:inkscape="http://www.inkscape.org/namespaces/inkscape"
   xmlns:sodipodi="http://sodipodi.sourceforge.net/DTD/sodipodi-0.dtd"
   xmlns="http://www.w3.org/2000/svg"
   xmlns:svg="http://www.w3.org/2000/svg">
  <defs
     id="defs4" />
  <sodipodi:namedview
     id="namedview4"
     pagecolor="#505050"
     bordercolor="#eeeeee"
     borderopacity="1"
     inkscape:showpageshadow="0"
     inkscape:pageopacity="0"
     inkscape:pagecheckerboard="0"
     inkscape:deskcolor="#505050"
     inkscape:zoom="9.8909091"
     inkscape:cx="27.5"
     inkscape:cy="27.449449"
     inkscape:window-width="2560"
     inkscape:window-height="1600"
     inkscape:window-x="0"
     inkscape:window-y="0"
     inkscape:window-maximized="1"
     inkscape:current-layer="svg4" />
  <path
     d="M 35.936317,3.2622235 33.436928,5.7617471 30.937404,3.2622235 28.43788,5.7617471 25.938357,3.2622235 23.438833,5.7617471 20.939443,3.2622235 18.440456,5.7612113 15.941602,3.2622235 5.7617166,13.441975 15.759141,23.439399 0.76277652,38.435737 13.441542,51.114476 l 2.49939,-2.499523 2.499524,2.499523 12.496948,-12.496814 7.498437,7.498437 2.499523,-2.499524 2.498854,2.498988 L 53.613434,35.936348 51.11458,33.43736 53.614103,30.937836 51.11458,28.438447 53.614103,25.938923 51.11458,23.439399 53.614103,20.939876 51.11458,18.440486 53.614103,15.940963 40.935364,3.2622235 38.435841,5.7617471 Z"
     fill="#fbfadb"
     id="path1"
     style="stroke-width:1.33965" />
  <path
     d="M 35.936183,7.1024714 33.43666,9.601995 30.93727,7.1024714 28.437746,9.601995 25.938223,7.1024714 l -2.498988,2.4988537 -2.49939,-2.4993896 -6.339637,6.3396375 9.99796,9.99796 -14.9964715,14.996338 8.8386255,8.838626 14.996338,-14.996472 9.99796,9.99796 6.339638,-6.339637 -2.49939,-2.49939 2.498854,-2.498988 -2.499524,-2.499523 2.499524,-2.499524 -2.499524,-2.49939 2.499524,-2.499523 -2.499524,-2.499524 2.499524,-2.499523 L 40.93523,7.1024714 38.435707,9.601995 Z"
     fill="#000000"
     id="path2"
     style="stroke-width:1.33965" />
  <path
     d="M 38.435707,42.275985 28.437746,32.278025 13.441274,47.274497 4.6027832,38.435871 19.599121,23.439533 9.6011606,13.441573 15.940798,7.1019355 l 2.499524,2.4993896 2.499523,-2.4993896 2.49939,2.4993896 2.498988,-2.4988537 2.499523,2.4995236 2.49939,-2.4995236 2.499524,2.4995236 2.499523,-2.4995236 8.838625,8.8384916 -2.499523,2.499523 2.499523,2.499524 -2.499523,2.499523 2.499523,2.49939 -2.498987,2.498988 2.499523,2.499523 -2.499523,2.499524 2.499523,2.49939 z"
     fill="#000000"
     id="path3"
     style="stroke-width:1.33965" />
  <path
     d="m 35.936317,10.942585 4.998378,4.998378 -2.499524,2.499523 2.499524,2.499524 -2.498988,2.498854 2.499523,2.499523 -2.499523,2.499524 2.499523,2.499523 -2.499523,2.499524 2.499523,2.49939 -2.499523,2.499523 -9.997961,-9.99796 -14.996338,14.996338 -4.998377,-4.998378 14.996338,-14.996338 -9.997961,-9.99796 2.499524,-2.499524 2.49939,2.499524 2.499523,-2.499524 2.499524,2.499524 2.499524,-2.499524 2.499389,2.499524 2.498988,-2.498988 2.499524,2.499524 z"
     fill="#00c6d3"
     id="path4"
     style="stroke-width:1.33965" />
</svg>
