<svg width="50" height="50" viewBox="0 0 20 20" fill="none" xmlns="http://www.w3.org/2000/svg">
<path d="M15.8327 14.1673H17.4993C17.9993 14.1673 18.3327 13.834 18.3327 13.334V10.834C18.3327 10.084 17.7493 9.41732 17.0827 9.25065C15.5827 8.83398 13.3327 8.33398 13.3327 8.33398C13.3327 8.33398 12.2493 7.16732 11.4993 6.41732C11.0827 6.08398 10.5827 5.83398 9.99935 5.83398H4.16602C3.66602 5.83398 3.24935 6.16732 2.99935 6.58398L1.83268 9.00065C1.72233 9.32251 1.66602 9.6604 1.66602 10.0007V13.334C1.66602 13.834 1.99935 14.1673 2.49935 14.1673H4.16602" stroke="#0A0A0A" stroke-width="1.66667" stroke-linecap="round" stroke-linejoin="round"/>
<path d="M5.83268 15.8333C6.75316 15.8333 7.49935 15.0871 7.49935 14.1667C7.49935 13.2462 6.75316 12.5 5.83268 12.5C4.91221 12.5 4.16602 13.2462 4.16602 14.1667C4.16602 15.0871 4.91221 15.8333 5.83268 15.8333Z" stroke="#0A0A0A" stroke-width="1.66667" stroke-linecap="round" stroke-linejoin="round"/>
<path d="M7.5 14.166H12.5" stroke="#0A0A0A" stroke-width="1.66667" stroke-linecap="round" stroke-linejoin="round"/>
<path d="M14.1667 15.8333C15.0871 15.8333 15.8333 15.0871 15.8333 14.1667C15.8333 13.2462 15.0871 12.5 14.1667 12.5C13.2462 12.5 12.5 13.2462 12.5 14.1667C12.5 15.0871 13.2462 15.8333 14.1667 15.8333Z" stroke="#0A0A0A" stroke-width="1.66667" stroke-linecap="round" stroke-linejoin="round"/>
</svg>
