<svg width="96" height="73" viewBox="0 0 96 73" fill="none" xmlns="http://www.w3.org/2000/svg">
<path d="M19.036 60.9401V7.61483H22.8422V3.80737H76.1687V7.61483H79.9748V60.9401H19.036Z" fill="black"/>
<path d="M72.3482 11.4339V7.62646H26.6627V11.4339H22.8552V57.1194H76.1556V11.4339H72.3482ZM64.7333 26.6624H60.9258V30.4699H57.1184V34.2773H53.3109V38.0848H49.5035V41.8922H41.8886V38.0848H38.0811V34.2773H34.2737V30.4699H38.0811V26.6624H41.8886V30.4699H49.5035V26.6624H53.3109V22.855H57.1184V19.0475H60.9258V22.855H64.7333V26.6624Z" fill="black"/>
<path d="M7.6136 72.3612V68.5538H3.80615V45.6855H7.6136V41.8794H22.8682V57.1079H76.1425V41.8794H91.3971V45.6855H95.2033V68.5538H91.3971V72.3612H7.6136Z" fill="black"/>
<path d="M91.3841 49.5059V64.7344H87.5767V68.5419H11.4342V64.7344H7.62671V49.5059H11.4342V45.6985H19.0478V53.3121H15.2403V60.927H83.7692V53.3121H79.9631V45.6985H87.5767V49.5059H91.3841Z" fill="black"/>
<path d="M15.2285 57.1327V3.80745H19.036V0H72.3612V3.80745H76.1673V57.1327H15.2285Z" fill="black"/>
<path d="M68.5407 7.62654V3.81909H22.8552V7.62654H19.0477V53.3121H72.3482V7.62654H68.5407ZM60.9271 22.855H57.1196V26.6625H53.3122V30.47H49.5047V34.2774H45.6973V38.0849H38.0824V34.2774H34.2749V30.47H30.4675V26.6625H34.2749V22.855H38.0824V26.6625H45.6973V22.855H49.5047V19.0476H53.3122V15.2401H57.1196V19.0476H60.9271V22.855Z" fill="#00C6D3"/>
<path d="M3.80615 68.5538V64.7464H0V41.8795H3.80615V38.072H19.0608V53.3005H72.3351V38.072H87.5897V41.8795H91.3971V64.7464H87.5897V68.5538H3.80615Z" fill="black"/>
<path d="M87.5766 45.6986V60.9271H83.7692V64.7345H7.62667V60.9271H3.81921V45.6986H7.62667V41.8911H15.2403V49.506H11.4341V57.1196H79.963V49.506H76.1556V41.8911H83.7692V45.6986H87.5766Z" fill="#00C6D3"/>
</svg>
