<?xml version="1.0" encoding="UTF-8"?>
<svg id="Layer_1" data-name="Layer 1" xmlns="http://www.w3.org/2000/svg" viewBox="0 0 950 950">
  <defs>
    <style>
      .cls-1 {
        fill: #00c6d3;
      }

      .cls-2 {
        fill: #fbfadb;
      }
    </style>
  </defs>
  <polygon class="cls-2" points="169.99 833.18 169.99 806.73 143.01 806.73 143.01 780.27 116.56 780.27 116.56 222.64 143.01 222.64 143.01 196.18 222.37 196.18 222.37 143.27 248.83 143.27 248.83 116.82 409.65 116.82 409.65 143.27 436.63 143.27 436.63 169.73 463.09 169.73 463.09 196.18 486.91 196.18 486.91 143.27 513.37 143.27 513.37 116.82 674.19 116.82 674.19 143.27 701.17 143.27 701.17 169.73 727.63 169.73 727.63 196.18 780.01 196.18 780.01 222.64 806.99 222.64 806.99 249.09 833.44 249.09 833.44 806.73 806.99 806.73 806.99 833.18 169.99 833.18"/>
  <polygon class="cls-2" points="780.01 276.07 780.01 249.62 779.48 249.62 753.03 249.62 753.03 223.16 700.65 223.16 700.65 196.71 674.19 196.71 674.19 170.25 673.67 170.25 647.21 170.25 647.21 143.8 540.35 143.8 540.35 170.25 513.89 170.25 513.89 223.16 436.11 223.16 436.11 196.71 409.65 196.71 409.65 170.25 409.13 170.25 382.67 170.25 382.67 143.8 275.81 143.8 275.81 170.25 249.35 170.25 249.35 223.16 169.99 223.16 169.99 249.62 143.54 249.62 143.54 408.34 143.54 409.39 143.54 753.29 169.99 753.29 169.99 779.75 170.52 779.75 196.97 779.75 196.97 806.2 780.01 806.2 780.01 779.75 806.46 779.75 806.46 435.84 806.46 434.79 806.46 276.07 780.01 276.07"/>
  <g>
    <polygon points="780.01 276.07 780.01 249.62 700.65 249.62 700.65 196.71 674.19 196.71 674.19 170.25 567.33 170.25 567.33 196.71 540.87 196.71 540.87 249.62 436.11 249.62 436.11 196.71 409.65 196.71 409.65 170.25 302.79 170.25 302.79 196.71 276.33 196.71 276.33 249.62 196.97 249.62 196.97 276.07 170.52 276.07 170.52 434.79 170.52 435.84 170.52 779.75 196.97 779.75 196.97 806.2 780.01 806.2 780.01 779.75 806.46 779.75 806.46 435.84 806.46 434.79 806.46 276.07 780.01 276.07"/>
    <rect x="553.57" y="130.57" width="80.41" height="106.87" transform="translate(409.77 777.79) rotate(-90)"/>
    <rect class="cls-1" x="567.33" y="170.78" width="52.91" height="26.45"/>
    <rect x="289.03" y="130.57" width="80.41" height="106.87" transform="translate(145.23 513.25) rotate(-90)"/>
    <rect class="cls-1" x="302.79" y="170.78" width="52.91" height="26.45"/>
    <polygon points="143.54 409.39 143.54 249.62 169.99 249.62 169.99 223.16 249.35 223.16 249.35 170.25 409.13 170.25 409.13 223.16 513.89 223.16 513.89 170.25 673.67 170.25 673.67 223.16 753.03 223.16 753.03 249.62 779.48 249.62 779.48 409.39 143.54 409.39"/>
    <polygon class="cls-1" points="752.5 276.59 752.5 382.41 170.52 382.41 170.52 276.59 196.97 276.59 196.97 250.14 276.33 250.14 276.33 197.23 302.79 197.23 302.79 329.5 355.69 329.5 355.69 197.23 382.15 197.23 382.15 250.14 540.87 250.14 540.87 197.23 567.33 197.23 567.33 329.5 620.23 329.5 620.23 197.23 646.69 197.23 646.69 250.14 726.05 250.14 726.05 276.59 752.5 276.59"/>
    <polygon points="169.99 779.75 169.99 753.29 143.54 753.29 143.54 408.34 779.48 408.34 779.48 753.29 753.03 753.29 753.03 779.75 169.99 779.75"/>
    <polygon class="cls-1" points="752.5 435.32 752.5 726.31 726.05 726.31 726.05 752.77 196.97 752.77 196.97 726.31 170.52 726.31 170.52 435.32 752.5 435.32"/>
  </g>
</svg>