<svg width="58" height="51" viewBox="0 0 58 51" fill="none" xmlns="http://www.w3.org/2000/svg">
<path d="M18.06 21.64H14.48V25.23H18.06V21.64Z" fill="#FAF6C5"/>
<path d="M35.9701 25.23H18.0601V28.81H35.9701V25.23Z" fill="#FAF6C5"/>
<path d="M25.23 10.9H21.64V21.64H25.23V10.9Z" fill="#FAF6C5"/>
<path d="M32.3901 10.9H28.8101V21.64H32.3901V10.9Z" fill="#FAF6C5"/>
<path d="M39.56 21.64H35.97V25.23H39.56V21.64Z" fill="#FAF6C5"/>
<path d="M54.04 10.75V7.16H50.46V3.58H46.87V0H7.16V3.58H3.58V7.16H0V32.54H3.58V36.13H7.16V39.71H10.74V46.87H14.33V50.46H28.96V46.88H32.54V43.29H50.46V39.71H54.04V36.13H57.62V10.75H54.04ZM46.72 28.81H43.14V32.39H25.23V35.97H21.64V39.56H18.06V32.39H10.9V28.81H7.31V10.9H10.9V7.32H43.14V10.9H46.72V28.81Z" fill="#FAF6C5"/>
<path d="M43.1401 10.9V7.32001H10.9001V10.9H7.31006V28.81H10.9001V32.39H18.0601V39.56H21.6401V35.97H25.2301V32.39H43.1401V28.81H46.7201V10.9H43.1401ZM28.8101 10.9H32.3901V21.64H28.8101V10.9ZM21.6401 10.9H25.2301V21.64H21.6401V10.9ZM39.5601 25.23H35.9701V28.81H18.0601V25.23H14.4801V21.64H18.0601V25.23H35.9701V21.64H39.5601V25.23Z" fill="#FAA826"/>
<path d="M50.3 14.48V10.9H46.72V14.48V18.06V21.64V25.23V28.81H43.14V32.39H39.56H35.97H32.39H28.81H25.23V35.97H21.64V39.56H18.06V35.97V32.39H14.48H10.9V35.97H14.48V39.56V43.14H18.06V46.72H25.23V43.14H28.81V39.56H46.72V35.97H50.3V32.39H53.89V14.48H50.3Z" fill="black"/>
<path d="M18.06 7.32001H21.64H25.23H28.81H32.39H35.97H39.56H43.14V10.9H46.72V7.32001V7.31001H43.14V3.73001H39.56H35.97H32.39H28.81H25.23H21.64H18.06H14.48H10.9V7.32001H14.48H18.06Z" fill="black"/>
<path d="M10.8999 7.32001H7.30994V10.9H10.8999V7.32001Z" fill="black"/>
<path d="M25.23 18.06V14.48V10.9H21.64V14.48V18.06V21.64H25.23V18.06Z" fill="black"/>
<path d="M32.3899 18.06V14.48V10.9H28.8099V14.48V18.06V21.64H32.3899V18.06Z" fill="black"/>
<path d="M7.30998 21.64V18.06V14.48V10.9H3.72998V14.48V18.06V21.64V25.23V28.81H7.30998V25.23V21.64Z" fill="black"/>
<path d="M18.06 21.64H14.48V25.23H18.06V21.64Z" fill="black"/>
<path d="M39.56 21.64H35.97V25.23H39.56V21.64Z" fill="black"/>
<path d="M21.6399 28.81H25.2299H28.8099H32.3899H35.9699V25.23H32.3899H28.8099H25.2299H21.6399H18.0599V28.81H21.6399Z" fill="black"/>
<path d="M10.8999 28.81H7.30994V32.39H10.8999V28.81Z" fill="black"/>
</svg>
