<svg width="92" height="80" viewBox="0 0 92 80" fill="none" xmlns="http://www.w3.org/2000/svg">
<path d="M28.8358 34.3083H23.1198V40H28.8358V34.3083Z" fill="#FAF6C5"/>
<path d="M57.4321 40H28.8358V45.6758H57.4321V40Z" fill="#FAF6C5"/>
<path d="M40.2839 17.281H34.5519V34.3084H40.2839V17.281Z" fill="#FAF6C5"/>
<path d="M51.7161 17.281H46V34.3084H51.7161V17.281Z" fill="#FAF6C5"/>
<path d="M63.1642 34.3083H57.4321V40H63.1642V34.3083Z" fill="#FAF6C5"/>
<path d="M86.2839 17.0432V11.3516H80.5679V5.67578H74.8358V0H11.4321V5.67578H5.71607V11.3516H0V51.5894H5.71607V57.281H11.4321V62.9568H17.1482V74.3084H22.8803V80H46.2395V74.3242H51.9556V68.6326H80.5679V62.9568H86.2839V57.281H92V17.0432H86.2839ZM74.5963 45.6758H68.8802V51.3516H40.2839V57.0274H34.5519V62.719H28.8358V51.3516H17.4037V45.6758H11.6716V17.281H17.4037V11.6052H68.8802V17.281H74.5963V45.6758Z" fill="#FAF6C5"/>
<path d="M68.8802 17.281V11.6052H17.4037V17.281H11.6716V45.6758H17.4037V51.3516H28.8358V62.719H34.5519V57.0274H40.2839V51.3516H68.8802V45.6758H74.5963V17.281H68.8802ZM46 17.281H51.7161V34.3084H46V17.281ZM34.5519 17.281H40.2839V34.3084H34.5519V17.281ZM63.1642 40H57.4321V45.6758H28.8358V40H23.1197V34.3084H28.8358V40H57.4321V34.3084H63.1642V40Z" fill="#29BFCD"/>
<path d="M80.3124 22.9568V17.281H74.5963V22.9568V28.6326V34.3084V40V45.6758H68.8803V51.3516H63.1642H57.4322H51.7161H46H40.2839V57.0273H34.5519V62.719H28.8358V57.0273V51.3516H23.1198H17.4037V57.0273H23.1198V62.719V68.3948H28.8358V74.0705H40.2839V68.3948H46V62.719H74.5963V57.0273H80.3124V51.3516H86.0444V22.9568H80.3124Z" fill="black"/>
<path d="M28.8358 11.6052H34.5519H40.2839H46H51.7161H57.4321H63.1642H68.8802V17.281H74.5963V11.6052V11.5894H68.8802V5.91357H63.1642H57.4321H51.7161H46H40.2839H34.5519H28.8358H23.1198H17.4037V11.6052H23.1198H28.8358Z" fill="black"/>
<path d="M17.4037 11.6052H11.6716V17.281H17.4037V11.6052Z" fill="black"/>
<path d="M40.2839 28.6326V22.9568V17.281H34.5519V22.9568V28.6326V34.3084H40.2839V28.6326Z" fill="black"/>
<path d="M51.7161 28.6326V22.9568V17.281H46V22.9568V28.6326V34.3084H51.7161V28.6326Z" fill="black"/>
<path d="M11.6716 34.3084V28.6326V22.9568V17.281H5.95557V22.9568V28.6326V34.3084V40V45.6758H11.6716V40V34.3084Z" fill="black"/>
<path d="M28.8358 34.3083H23.1198V40H28.8358V34.3083Z" fill="black"/>
<path d="M63.1642 34.3083H57.4321V40H63.1642V34.3083Z" fill="black"/>
<path d="M34.5519 45.6758H40.2839H46H51.7161H57.4321V40H51.7161H46H40.2839H34.5519H28.8358V45.6758H34.5519Z" fill="black"/>
<path d="M17.4037 45.6758H11.6716V51.3516H17.4037V45.6758Z" fill="black"/>
</svg>
