<svg width="55" height="55" viewBox="0 0 55 55" fill="none" xmlns="http://www.w3.org/2000/svg">
<path d="M41.115 38.0832L42.211 36.9871L33.4437 28.2199L42.211 19.4526L41.115 18.3566L42.211 17.2606L38.0895 13.139L36.9935 14.235L35.8975 13.139L27.1302 21.9063L18.3629 13.139L17.2669 14.235L16.1709 13.139L12.0493 17.2606L13.1453 18.3566L12.0493 19.4526L20.8166 28.2199L12.0493 36.9871L13.1453 38.0832L12.0493 39.1792L16.1709 43.3007L17.2669 42.2047L18.3629 43.3007L27.1302 34.5334L35.8975 43.3007L36.9935 42.2047L38.0895 43.3007L42.211 39.1792L41.115 38.0832Z" fill="black"/>
<path d="M12.0493 36.9995L13.1453 35.9035L12.0493 34.8075L20.8166 26.0402L12.0493 17.2729L13.1453 16.1769L12.0493 15.0809L16.1709 10.9593L17.2669 12.0553L18.3629 10.9593L27.1302 19.7266L35.8975 10.9593L36.9935 12.0553L38.0895 10.9593L42.211 15.0809L41.115 16.1769L42.211 17.2729L33.4437 26.0402L42.211 34.8075L41.115 35.9035L42.211 36.9995L38.0895 41.121L36.9935 40.025L35.8975 41.121L27.1302 32.3537L18.3629 41.121L17.2669 40.025L16.1709 41.121L12.0493 36.9995Z" fill="black"/>
<path d="M40.2811 36.9992L38.0895 39.1909L36.9935 38.0949L35.8975 39.1909L27.1302 30.4236L18.3629 39.1909L17.2669 38.0949L16.1709 39.1909L13.9792 36.9992L15.0752 35.9032L13.9792 34.8072L22.7465 26.0399L13.9792 17.2726L15.0752 16.1766L13.9792 15.0806L16.1709 12.889L17.2669 13.985L18.3629 12.889L27.1302 21.6563L35.8975 12.889L36.9935 13.985L38.0895 12.889L40.2811 15.0806L39.1851 16.1766L40.2811 17.2726L31.5138 26.0399L40.2811 34.8072L39.1851 35.9032L40.2811 36.9992Z" fill="#00C6D3"/>
</svg>
