<svg width="89" height="81" viewBox="0 0 89 81" fill="none" xmlns="http://www.w3.org/2000/svg">
<path d="M84.9627 44.3609V40.3199H80.9367V36.3014H76.9107V32.2604H72.8846V28.5796H76.9107V24.5499H80.9367V8.08199H76.9107V4.041H72.8734V0H60.4467V4.041H56.4206V12.1005H44.3313V16.1302H40.3053V20.1712H36.268V24.2009H32.242V28.2307H12.1006V32.2604H8.06331V36.2902H4.03728V40.3312H0V64.8698H4.02603V68.9108H8.06331V72.9405H12.1118V76.9703H16.1603V81H40.6651V76.9703H44.6912V72.9405H48.3461V76.9703H52.3834V81H76.9107V76.9703H80.9479V72.9405H84.974V68.9108H89V44.3609H84.9627ZM64.6526 8.23958H68.6787V16.2991H64.6526V8.23958ZM44.5112 24.3698H48.5373V20.34H60.6266V16.3103H64.6526V20.34H60.6266V24.3698H48.5373V28.3995H44.5112V24.3698ZM76.742 60.66H72.716V64.6897H68.6899V68.7307H68.6787H60.6266H60.6154H52.5858V64.7122H52.5521H48.5373V60.6825H36.4479V64.7122H32.4444H32.4219V68.7307H16.329H16.3178V64.7009H16.3065H12.2805V60.6712H8.25449V44.541H12.2805V40.5113H16.3065V36.4815H40.4852V28.422H44.5112V36.4815H68.6787V40.5113H72.716V44.5523H76.742V60.6712V60.66Z" fill="#FAF6C5"/>
<path d="M56.6006 52.6005H52.5746V56.6302H56.6006V52.6005Z" fill="#FAF6C5"/>
<path d="M60.6266 44.5298H56.6006V48.5708H60.6266V44.5298Z" fill="#FAF6C5"/>
<path d="M64.6526 56.6302H60.6266V60.66H64.6526V56.6302Z" fill="#FAF6C5"/>
<path d="M68.6899 48.5708H64.6526V52.6005H68.6899V48.5708Z" fill="#FAF6C5"/>
<path d="M20.3325 48.5708H16.3065V56.6303H20.3325V48.5708Z" fill="#FAF6C5"/>
<path d="M28.3958 56.6302H20.3325V60.66H28.3958V56.6302Z" fill="#FAF6C5"/>
<path d="M32.4219 48.5708H28.3959V56.6303H32.4219V48.5708Z" fill="#FAF6C5"/>
<path d="M28.3958 44.5298H20.5012H20.3325V44.6986V48.5708H28.3958V44.5298Z" fill="#FAF6C5"/>
<path d="M84.8052 52.6004V48.5707H80.7792V44.5409H80.768V44.5297H76.7419V40.5112V40.5H72.7271V36.4702H72.7047H68.6786V40.5H72.7047H72.7159V40.5112V44.5409H76.7419V48.5594V48.5707V52.6004V56.6302V56.6414V60.6599H72.7159V64.6896H68.6899V68.7194V68.7306H68.6786V68.7194H64.6526H60.6266V68.7306H60.6153V68.7194H56.5893H52.5858H52.5633V64.7009H52.552V64.6896H48.5372V60.6599H48.526H44.5112H44.5H40.4852H36.4591H36.4479V64.6896H32.4444V64.7009H32.4219V68.7194H28.4071H24.3811H20.355H16.329V68.7306H16.3177V72.7716H20.3663V76.7901H36.4816V72.7604H36.4591V68.7419H36.4816V72.7604H40.5077V68.7306H52.5633V72.7491V72.7604H56.5893V72.7491H56.6118V72.7604H56.6005V76.7901H64.6526V72.7716H64.6638V76.7901H72.7271V72.7604H76.7532V68.7306H80.7792V64.7121H84.8052V52.6117H80.7792V52.6004H84.8052Z" fill="black"/>
<path d="M36.4591 32.4292V32.4405V36.4702H40.4851V32.4405V32.4292V28.4108H36.4591V32.4292Z" fill="black"/>
<path d="M48.5373 20.3401H44.5112V24.3698H48.5373V20.3401Z" fill="black"/>
<path d="M52.5633 16.3103H48.5372V20.34H52.5633V16.3103Z" fill="black"/>
<path d="M56.6005 16.3103H52.5745V20.34H56.6005H60.6265V16.3103H56.6005Z" fill="black"/>
<path d="M64.6639 32.4293V28.4108H68.6899V24.3811H72.7272V20.3514H76.7532V12.2806H72.7272V8.25088H72.716V8.23962H68.6787V12.2694V12.2806V16.2991H64.6639H64.6527V12.2694V8.23962H60.6266V12.2694V16.3104H64.6527V20.3401H64.6639V20.3514H64.6527V20.3401H60.6266V20.3514V24.3698H56.6118H56.6006H52.5746H48.5373V28.3996H44.5113V24.3698H40.4852V28.4108H44.5113V32.4293V32.4406V36.4703H44.5225H48.5373H48.5485H52.5746H56.6006H60.6266H64.6527H64.6639H68.6787V32.4293H64.6639Z" fill="black"/>
<path d="M12.2805 64.6897V64.701H12.2692V60.66H12.258H8.25445V48.5708H8.24321V60.66H8.23196V56.6303V52.6005V48.5708V44.5298H4.20593V48.5708V52.6005V56.6303V60.66H8.23196V64.6897H8.24321V64.7122H12.2692V68.7307H12.2805H16.3065V64.6897H12.2917H12.2805Z" fill="black"/>
<path d="M12.2804 40.5H8.25439V44.5297H12.2804V40.5Z" fill="black"/>
<path d="M16.3065 36.4702H12.2805V40.5H16.3065V36.4702Z" fill="black"/>
<path d="M20.3325 32.4293H16.3065V36.4703H20.3325V32.4293Z" fill="black"/>
<path d="M28.3958 36.4703H32.4218H36.4479V32.4293H32.4218H28.3958H24.3698H20.3438V36.4703H24.3698H28.3958Z" fill="black"/>
<path d="M68.6786 4.20984H64.6526V8.23958H68.6786V4.20984Z" fill="black"/>
<path d="M28.3958 48.5708V44.5298H24.3698H20.3438H20.3325V44.541V48.5708H24.3698H28.3958Z" fill="black"/>
<path d="M60.6266 44.5298H56.6006V48.5708H60.6266V44.5298Z" fill="black"/>
<path d="M20.3325 52.6004V48.5707H16.3065V52.6004V56.6302H20.3325V52.6004Z" fill="black"/>
<path d="M28.3959 56.6302H32.4219V52.6004V48.5707H28.3959V52.6004V56.6302Z" fill="black"/>
<path d="M68.6899 48.5707H64.6526V52.6004H68.6899V48.5707Z" fill="black"/>
<path d="M56.6005 52.6005H52.5745V56.6302H56.6005V52.6005Z" fill="black"/>
<path d="M20.3325 56.6302V60.66H24.3698H28.3958V56.6302H24.3698H20.3325Z" fill="black"/>
<path d="M64.6526 56.6302H60.6266V60.66H64.6526V56.6302Z" fill="black"/>
<path d="M68.6787 8.23962H64.6527V16.2991H68.6787V8.23962Z" fill="#29BFCD"/>
<path d="M68.69 8.23962V16.3104H64.6527V16.2991H68.6787V8.23962H68.69Z" fill="#23BECC"/>
<path d="M48.5373 24.3699H44.5112V28.3996H48.5373V24.3699Z" fill="#29BFCD"/>
<path d="M48.5373 28.3995H44.5112V28.4108H48.5373V28.3995Z" fill="#23BECC"/>
<path d="M64.6526 16.3103H60.6266V20.34H64.6526V16.3103Z" fill="#29BFCD"/>
<path d="M60.6267 20.3401H48.5374V24.3698H60.6267V20.3401Z" fill="#29BFCD"/>
<path d="M16.3065 64.701V68.7308H16.3178V64.701H16.3065ZM52.5858 68.7195V64.701H52.5746V68.7308H60.6154H52.5858V68.7195ZM68.6787 36.4703V40.5001H68.6899V36.4703H68.6787Z" fill="#23BECC"/>
<path d="M72.716 44.5411V40.5001H68.6787V36.4704H44.5113V28.4109H40.4852V36.4704H16.3066V40.5001H12.2805V44.5298H8.25452V60.6601H12.2805V64.6898H16.3066H16.3178V68.7195H16.3291H32.4219V64.7011H32.4444H36.448V60.6713H48.5373V64.7011H52.5521H52.5858V68.7195H60.6154H60.6266H68.6787H68.69V64.6785H72.716V60.6488H76.742V44.5298H72.716V44.5411ZM32.4219 56.6303H28.3959V60.6601H20.3326V56.6303H16.3066V48.5708H20.3326V44.5298H28.3959V48.5708H32.4219V56.6303ZM56.6006 56.6303H52.5746V52.6006H56.6006V56.6303ZM56.6006 48.5708V44.5298H60.6266V48.5708H56.6006ZM64.6527 60.6601H60.6266V56.6303H64.6527V60.6601ZM68.69 52.6006H64.6527V48.5708H68.69V52.6006Z" fill="#29BFCD"/>
<path d="M28.3959 48.5708H20.3326V56.6303H28.3959V48.5708Z" fill="#29BFCD"/>
</svg>
