<svg width="49" height="45" viewBox="0 0 49 45" fill="none" xmlns="http://www.w3.org/2000/svg">
<path d="M46.7772 24.4234V22.1986H44.5607V19.9862H42.3441V17.7614H40.1275V15.7348H42.3441V13.5162H44.5607V4.44963H42.3441V2.22482H40.1213V0H33.2796V2.22482H31.0631V6.66206H24.4071V8.88068H22.1905V11.1055H19.9678V13.3241H17.7512V15.5427H6.66212V17.7614H4.43935V19.98H2.22277V22.2048H0V35.7148H2.21658V37.9396H4.43935V40.1583H6.66831V42.3769H8.89727V44.5955H22.3887V42.3769H24.6053V40.1583H26.6175V42.3769H28.8403V44.5955H42.3441V42.3769H44.5668V40.1583H46.7834V37.9396H49V24.4234H46.7772ZM35.5953 4.5364H37.8119V8.97364H35.5953V4.5364ZM24.5062 13.4171H26.7228V11.1985H33.3787V8.97983H35.5953V11.1985H33.3787V13.4171H26.7228V15.6357H24.5062V13.4171ZM42.2512 33.397H40.0346V35.6157H37.818V37.8405H37.8119H33.3787H33.3725H28.9517V35.6281H28.9332H26.7228V33.4094H20.0668V35.6281H17.8626H17.8503V37.8405H8.99014H8.98395V35.6219H8.97776H6.76118V33.4032H4.5446V24.5226H6.76118V22.304H8.97776V20.0853H22.2896V15.6481H24.5062V20.0853H37.8119V22.304H40.0346V24.5288H42.2512V33.4032V33.397Z" fill="#FAF6C5"/>
<path d="M31.1621 28.96H28.9456V31.1786H31.1621V28.96Z" fill="#FAF6C5"/>
<path d="M33.3787 24.5166H31.1621V26.7414H33.3787V24.5166Z" fill="#FAF6C5"/>
<path d="M35.5952 31.1787H33.3787V33.3973H35.5952V31.1787Z" fill="#FAF6C5"/>
<path d="M37.818 26.7412H35.5952V28.9598H37.818V26.7412Z" fill="#FAF6C5"/>
<path d="M11.1944 26.7412H8.97778V31.1785H11.1944V26.7412Z" fill="#FAF6C5"/>
<path d="M15.6337 31.1787H11.1943V33.3973H15.6337V31.1787Z" fill="#FAF6C5"/>
<path d="M17.8504 26.7412H15.6338V31.1785H17.8504V26.7412Z" fill="#FAF6C5"/>
<path d="M15.6337 24.5166H11.2872H11.1943V24.6096V26.7414H15.6337V24.5166Z" fill="#FAF6C5"/>
<path d="M46.6905 28.9598V26.7412H44.4739V24.5225H44.4677V24.5163H42.2511V22.3039V22.2977H40.0407V20.0791H40.0284H37.8118V22.2977H40.0284H40.0346V22.3039V24.5225H42.2511V26.735V26.7412V28.9598V31.1784V31.1846V33.397H40.0346V35.6156H37.818V37.8343V37.8405H37.8118V37.8343H35.5952H33.3786V37.8405H33.3724V37.8343H31.1559H28.9517H28.9393V35.6218H28.9331V35.6156H26.7227V33.397H26.7165H24.5061H24.4999H22.2895H20.073H20.0668V35.6156H17.8626V35.6218H17.8502V37.8343H15.6398H13.4232H11.2067H8.99008V37.8405H8.98389V40.0653H11.2128V42.2777H20.0854V40.0591H20.073V37.8467H20.0854V40.0591H22.3019V37.8405H28.9393V40.0529V40.0591H31.1559V40.0529H31.1682V40.0591H31.1621V42.2777H35.5952V40.0653H35.6014V42.2777H40.0407V40.0591H42.2573V37.8405H44.4739V35.628H46.6905V28.966H44.4739V28.9598H46.6905Z" fill="black"/>
<path d="M20.073 17.8545V17.8607V20.0793H22.2896V17.8607V17.8545V15.6421H20.073V17.8545Z" fill="black"/>
<path d="M26.7227 11.1987H24.5061V13.4174H26.7227V11.1987Z" fill="black"/>
<path d="M28.9395 8.97998H26.7229V11.1986H28.9395V8.97998Z" fill="black"/>
<path d="M31.1621 8.97998H28.9456V11.1986H31.1621H33.3787V8.97998H31.1621Z" fill="black"/>
<path d="M35.6016 17.8545V15.6421H37.8182V13.4235H40.041V11.2049H42.2576V6.76144H40.041V4.54282H40.0348V4.53662H37.812V6.75524V6.76144V8.97386H35.6016H35.5955V6.75524V4.53662H33.3789V6.75524V8.98006H35.5955V11.1987H35.6016V11.2049H35.5955V11.1987H33.3789V11.2049V13.4173H31.1685H31.1623H28.9457H26.723V15.6359H24.5064V13.4173H22.2898V15.6421H24.5064V17.8545V17.8607V20.0794H24.5126H26.723H26.7291H28.9457H31.1623H33.3789H35.5955H35.6016H37.812V17.8545H35.6016Z" fill="black"/>
<path d="M6.76121 35.6159V35.6221H6.75502V33.3973H6.74883H4.54464V26.7414H4.53844V33.3973H4.53225V31.1787V28.96V26.7414V24.5166H2.31567V26.7414V28.96V31.1787V33.3973H4.53225V35.6159H4.53844V35.6283H6.75502V37.8407H6.76121H8.97779V35.6159H6.76741H6.76121Z" fill="black"/>
<path d="M6.76126 22.2979H4.54468V24.5165H6.76126V22.2979Z" fill="black"/>
<path d="M8.97781 20.0791H6.76123V22.2977H8.97781V20.0791Z" fill="black"/>
<path d="M11.1944 17.8545H8.97778V20.0793H11.1944V17.8545Z" fill="black"/>
<path d="M15.6338 20.0793H17.8504H20.067V17.8545H17.8504H15.6338H13.4173H11.2007V20.0793H13.4173H15.6338Z" fill="black"/>
<path d="M37.812 2.31787H35.5955V4.53649H37.812V2.31787Z" fill="black"/>
<path d="M15.6337 26.7414V24.5166H13.4171H11.2005H11.1943V24.5228V26.7414H13.4171H15.6337Z" fill="black"/>
<path d="M33.3787 24.5166H31.1621V26.7414H33.3787V24.5166Z" fill="black"/>
<path d="M11.1944 28.9598V26.7412H8.97778V28.9598V31.1785H11.1944V28.9598Z" fill="black"/>
<path d="M15.6338 31.1785H17.8504V28.9598V26.7412H15.6338V28.9598V31.1785Z" fill="black"/>
<path d="M37.8182 26.7412H35.5955V28.9598H37.8182V26.7412Z" fill="black"/>
<path d="M31.1621 28.96H28.9456V31.1786H31.1621V28.96Z" fill="black"/>
<path d="M11.1943 31.1787V33.3973H13.4171H15.6337V31.1787H13.4171H11.1943Z" fill="black"/>
<path d="M35.5952 31.1787H33.3787V33.3973H35.5952V31.1787Z" fill="black"/>
<path d="M37.8118 4.53662H35.5952V8.97386H37.8118V4.53662Z" fill="#29BFCD"/>
<path d="M37.818 4.53662V8.98006H35.5952V8.97386H37.8118V4.53662H37.818Z" fill="#23BECC"/>
<path d="M26.7227 13.4175H24.5061V15.6361H26.7227V13.4175Z" fill="#29BFCD"/>
<path d="M26.7227 15.6362H24.5061V15.6424H26.7227V15.6362Z" fill="#23BECC"/>
<path d="M35.5952 8.97998H33.3787V11.1986H35.5952V8.97998Z" fill="#29BFCD"/>
<path d="M33.3786 11.1987H26.7227V13.4174H33.3786V11.1987Z" fill="#29BFCD"/>
<path d="M8.97781 35.6218V37.8405H8.984V35.6218H8.97781ZM28.9518 37.8343V35.6218H28.9456V37.8405H33.3726H28.9518V37.8343ZM37.8119 20.0791V22.2977H37.8181V20.0791H37.8119Z" fill="#23BECC"/>
<path d="M40.0345 24.5228V22.298H37.8117V20.0793H24.506V15.6421H22.2894V20.0793H8.97759V22.298H6.76101V24.5166H4.54443V33.3973H6.76101V35.6159H8.97759H8.98378V37.8345H8.98997H17.8501V35.6221H17.8625H20.0667V33.4035H26.7226V35.6221H28.933H28.9516V37.8345H33.3723H33.3785H37.8117H37.8179V35.6097H40.0345V33.3911H42.251V24.5166H40.0345V24.5228ZM17.8501 31.1786H15.6335V33.3973H11.1942V31.1786H8.97759V26.7414H11.1942V24.5166H15.6335V26.7414H17.8501V31.1786ZM31.162 31.1786H28.9454V28.96H31.162V31.1786ZM31.162 26.7414V24.5166H33.3785V26.7414H31.162ZM35.5951 33.3973H33.3785V31.1786H35.5951V33.3973ZM37.8179 28.96H35.5951V26.7414H37.8179V28.96Z" fill="#29BFCD"/>
<path d="M15.6337 26.7412H11.1943V31.1785H15.6337V26.7412Z" fill="#29BFCD"/>
</svg>
