<svg width="50" height="50" viewBox="0 0 20 20" fill="none" xmlns="http://www.w3.org/2000/svg">
<path d="M15.4167 17.4993C17.0275 17.4993 18.3333 16.1935 18.3333 14.5827C18.3333 12.9719 17.0275 11.666 15.4167 11.666C13.8058 11.666 12.5 12.9719 12.5 14.5827C12.5 16.1935 13.8058 17.4993 15.4167 17.4993Z" stroke="#0A0A0A" stroke-width="1.66667" stroke-linecap="round" stroke-linejoin="round"/>
<path d="M4.58268 17.4993C6.19351 17.4993 7.49935 16.1935 7.49935 14.5827C7.49935 12.9719 6.19351 11.666 4.58268 11.666C2.97185 11.666 1.66602 12.9719 1.66602 14.5827C1.66602 16.1935 2.97185 17.4993 4.58268 17.4993Z" stroke="#0A0A0A" stroke-width="1.66667" stroke-linecap="round" stroke-linejoin="round"/>
<path d="M12.4993 5.00065C12.9596 5.00065 13.3327 4.62756 13.3327 4.16732C13.3327 3.70708 12.9596 3.33398 12.4993 3.33398C12.0391 3.33398 11.666 3.70708 11.666 4.16732C11.666 4.62756 12.0391 5.00065 12.4993 5.00065Z" stroke="#0A0A0A" stroke-width="1.66667" stroke-linecap="round" stroke-linejoin="round"/>
<path d="M10 14.5827V11.666L7.5 9.16602L10.8333 6.66602L12.5 9.16602H14.1667" stroke="#0A0A0A" stroke-width="1.66667" stroke-linecap="round" stroke-linejoin="round"/>
</svg>
