<svg width="93" height="80" viewBox="0 0 93 80" fill="none" xmlns="http://www.w3.org/2000/svg">
<path d="M89.53 13.6161V10.1671H85.8679V6.89791H45.3358V6.71816H41.8658V3.28044H38.1924V0H3.46998V3.44895H0V73.2819H3.46998V76.7308H7.14341V80H89.53V76.551H93V13.6161H89.53ZM83.6638 67.6534H80.2052V71.1024H9.13272V67.6534H5.66274V9.07738H9.13272V5.62842H32.5297V9.07738H35.9996V12.5263H80.2052V15.9641H83.6638V67.6534Z" fill="#FAF6C5"/>
<path d="M32.5298 15.9641V12.5263H29.0598V9.07739H12.5915V12.5263H9.13281V22.862H12.5915V19.413H76.7353V15.9641H32.5298Z" fill="#FAF6C5"/>
<path d="M80.2051 19.413H76.7351V22.8619H80.2051V19.413Z" fill="#FAF6C5"/>
<path d="M80.205 15.964V12.5263H35.9995V9.07737H32.5295V5.62842H9.13258V9.07737H5.6626V67.6534H9.13258V71.1024H80.205V67.6534H83.6637V15.964H80.205ZM80.205 22.862H76.735V19.413H12.5913V22.862H9.13258V12.5263H12.5913V9.07737H29.0595V12.5263H32.5295V15.964H76.735V19.413H80.205V22.862Z" fill="#29BFCD"/>
<path d="M86.7042 16.4247V12.9869H83.0308V9.7065H42.4987V9.53798H39.0287V6.08903H35.3666V2.81982H6.29559V6.25754H2.83691V70.4732H6.29559V73.911H9.96902V77.1914H86.7042V73.7424H90.1742V16.4247H86.7042ZM5.66263 67.6534V9.07737H9.13261V5.62842H32.5295V9.07737H35.9995V12.5263H80.205V15.964H83.6637V67.6534H80.205V71.1024H9.13261V67.6534H5.66263Z" fill="black"/>
<path d="M12.5912 19.413H76.735V15.9641H32.5295V12.5263H29.0595V9.07739H12.5912V12.5263H9.13257V22.862H12.5912V19.413ZM29.7038 16.6044H19.1017V15.1664H26.2338V15.3349H29.7038V16.6044Z" fill="black"/>
<path d="M80.2051 19.413H76.7351V22.8619H80.2051V19.413Z" fill="black"/>
<path d="M30.3367 13.6947H14.9648V17.5256H30.3367V13.6947Z" fill="black"/>
</svg>
