<svg width="91" height="80" viewBox="0 0 91 80" fill="none" xmlns="http://www.w3.org/2000/svg">
<path d="M87.6425 46.4998V29.8934H84.285V19.9258H80.9181V13.2777H77.5605V9.95827H74.203V6.63885H70.8455V3.31943H67.4786V0H20.1545V3.3287H16.797V6.64812H13.4395V9.95827H10.0726V16.6064H6.71504V26.5739H3.35752V43.1896H0V63.4029H3.35752V66.7223H6.71504V70.0417H10.0819V73.3612H13.4395H16.797V76.6806H20.1639V80H37.2422V76.6713H40.5997V36.5322H37.2422V33.2035H33.8847V29.8934H30.5272V26.8428H33.8847V23.5141H57.1153H60.4728V29.8841H53.7578V33.2035H50.3909V73.3519H53.7578V76.6713H57.1153V79.9907H74.203V76.662H77.5605V73.3426H84.285V70.0232H87.6425V66.6945H91V46.4812H87.6425V46.4998ZM77.4199 63.2638H70.6955V66.5832H67.3379V69.7543H63.8397V69.9026H57.256V36.6898H67.3379V40.0093H70.6955V36.6806H70.7048V30.0325H70.6955V26.7223H67.3473V20.0742H63.9804V16.7548H60.6229V13.4353H60.6135H47.1834H47.1741H33.744H33.7346H27.0196V16.764H23.6621V20.0834H20.3045V26.7316H16.9376V40.0185H20.3045V36.6991H30.3771V69.9119H20.3045V66.5925H23.6621V40.0185H20.3045V66.5832H16.9376V63.2731H13.5895L13.5801 63.2638L10.2226 63.2731V59.9536H6.86509V46.6667H10.2226V30.051H13.5801V26.5832H13.5895V23.542H13.5801V20.0834H16.9376V13.4539H20.3045V10.1252H23.6621V6.80575H63.9804V10.1252H67.3379V13.4539H70.6955V20.0834H74.0624V30.051H77.4199V46.6667H80.7774V59.9536H77.4199V63.2731V63.2638Z" fill="#FBF6C7"/>
<path d="M16.9381 46.6573H13.5802V59.9443H16.9381V46.6573Z" fill="#FBF6C7"/>
<path d="M74.0627 46.6573H70.6954V59.9443H74.0627V46.6573Z" fill="#FBF6C7"/>
<path d="M67.3383 40.0093H63.9803V66.5832H67.3383V40.0093Z" fill="#FBF6C7"/>
<path d="M6.86511 59.9444V63.2546H10.2226V59.9444H6.86511ZM10.2226 63.2638V66.5833H13.5801V63.2638H10.2226ZM13.5895 46.6574V49.9676H13.5801V59.9444H16.9377V46.6574H13.5895ZM13.5895 63.2638V66.574H16.9377V63.2638H13.5895ZM20.3046 40.0093V66.5833H23.6621V40.0093H20.3046ZM33.744 40.0093V36.6806H27.029H30.3771V69.8934H20.3046V73.2128H37.1015V40H33.744V40.0093ZM70.7048 13.4354V10.1067H67.338V6.78723H50.5504L63.9804 6.7965V10.1159H67.338V13.4446H70.6955V20.0742H74.0624V13.4354H70.7048ZM60.6229 16.7548V13.4354H60.6135H47.1835H47.1741H33.744H33.7346H27.0196V16.7641H23.6621V20.0835H20.3046V26.7316H16.9377V40.0186H20.3046V36.6992H27.0196H23.6621V30.051H27.0196V20.0928H27.029V23.4122H30.3865V20.0835H37.1015V16.7733H37.1109V20.0835H50.541H63.9711V16.7733H60.6135L60.6229 16.7548ZM63.9804 20.0742V23.3936H67.338V20.0742H63.9804ZM67.3473 26.7223V30.0325H70.6955V26.7223H67.3473ZM67.3473 36.6806V40.0093H70.6955V36.6806H67.3473ZM70.6955 46.6574V59.9444H74.0624V46.6574H70.6955ZM63.9804 40.0093V66.5833H67.338V40.0093H63.9804ZM84.1349 49.9676V33.3612H80.7774V23.3936H74.0624V30.0418H77.4199V46.6574H80.7774V59.9444H77.4199V63.2638H70.6955V66.5833H67.338V69.7543H63.8398V69.9027H57.2654V73.2221H74.0624V69.9027H80.7774V66.5833H74.0624L80.7774 66.574L84.1349 66.5833V63.2546H87.5018V49.9676H84.1349Z" fill="black"/>
<path d="M33.744 73.222H30.3865V76.5411H33.744V73.222Z" fill="black"/>
<path d="M70.7048 73.222H67.3473V76.5411H70.7048V73.222Z" fill="black"/>
<path d="M23.6625 40.0093H20.3046V66.5832H23.6625V40.0093Z" fill="black"/>
<path d="M67.3383 40.0093H63.9803V66.5832H67.3383V40.0093Z" fill="black"/>
<path d="M16.938 46.6573H13.5801V59.9443H16.938V46.6573Z" fill="black"/>
<path d="M74.0627 46.6573H70.6954V59.9443H74.0627V46.6573Z" fill="black"/>
<path d="M80.7773 46.6573V49.9768V53.2962V56.6156V56.6249V59.9443H84.1353V56.6249V56.6156V53.2962V49.9768V46.6573H80.7773Z" fill="black"/>
<path d="M6.86546 56.6156V53.2962V49.9768V46.6573H3.49817V49.9768V53.2962V56.6156V56.6249V59.9443H6.86546V56.6249V56.6156Z" fill="black"/>
<path d="M80.7777 40.0092V36.6897V33.3703V30.0416H77.4198V33.3703V36.6897V40.0092V43.3286V46.6573H80.7777V43.3286V40.0092Z" fill="black"/>
<path d="M53.8984 40.0092V43.3287V46.6574V49.9768V53.2962V56.6156V56.6249V59.9443V63.2638V66.5832V66.5925V69.9119H57.2563V66.5925V66.5832V63.2638V59.9443V56.6249V56.6156V53.2962V49.9768V46.6574V43.3287V40.0092V36.6898H53.8984V40.0092Z" fill="black"/>
<path d="M60.6135 33.3705H57.256V36.6895H60.6135V33.3705Z" fill="black"/>
<path d="M27.0196 33.3704H23.662H20.3045V30.0417V26.7223H16.9376V30.0417V33.3704V36.6898V40.0093H20.3045V36.6898H23.662H27.0196H30.3771V33.3704H27.0196Z" fill="black"/>
<path d="M30.377 69.9119H33.7345V66.5925V66.5832V63.2638V59.9443V56.6249V56.6156V53.2962V49.9768V46.6574V43.3287V40.0092V36.6898H30.377V40.0092V43.3287V46.6574V49.9768V53.2962V56.6156V56.6249V59.9443V63.2638V66.5832V66.5925V69.9119H27.0195V73.222V69.9119H23.662V73.2313V76.5507H27.0195V73.2313H27.0289V76.5507H30.3864V73.222H30.377V69.9119Z" fill="black"/>
<path d="M60.6135 69.9119H57.256V73.2309H60.6135V69.9119Z" fill="black"/>
<path d="M70.6955 36.6899V33.3705H67.338H63.9804H60.6229V36.6899H63.9804H67.338V40.0093H70.6955V36.6899Z" fill="black"/>
<path d="M70.6954 30.0416H67.3379V33.3607H70.6954V30.0416Z" fill="black"/>
<path d="M10.223 43.3286V40.0092V36.6897V33.3703V30.0416H6.86511V33.3703V36.6897V40.0092V43.3286V46.6573H10.223V43.3286Z" fill="black"/>
<path d="M10.2226 59.9443H6.86511V63.2634H10.2226V59.9443Z" fill="black"/>
<path d="M80.7773 59.9443H77.4198V63.2634H80.7773V59.9443Z" fill="black"/>
<path d="M70.6954 26.7223H67.3379V30.0413H70.6954V26.7223Z" fill="black"/>
<path d="M16.9469 66.5832H16.9376V63.2638H13.5801H10.2225V66.5832H13.5801H13.5894V69.9026H16.9376V69.9119H20.3045V73.2313H23.662V69.9119H20.3045V69.9026V66.5832H16.9469Z" fill="black"/>
<path d="M67.338 69.912H63.9804V73.2221V69.912H60.6229V73.2314V76.5508H63.9804V73.2314V76.5508H67.338V73.2221V69.912H70.6955V66.5833H67.338V69.912Z" fill="black"/>
<path d="M67.3379 23.3937H63.9803V26.7127H67.3379V23.3937Z" fill="black"/>
<path d="M77.4198 23.3937V20.0742V16.7455H74.0623V13.4261H70.6954V10.116H67.3379V13.4447H70.6954V16.7548V20.0742H74.0623V23.3937V26.7224V30.0418H77.4198V26.7224V23.3937Z" fill="black"/>
<path d="M67.3379 20.0742H63.9803V23.3933H67.3379V20.0742Z" fill="black"/>
<path d="M13.5801 26.7216V23.3933V20.0742H10.2225V23.3933V26.7216V30.0406H13.5801V26.7216Z" fill="black"/>
<path d="M74.053 63.2638H70.6954V66.5828H74.053V63.2638Z" fill="black"/>
<path d="M77.4198 63.2638H74.0623V66.5828H77.4198V63.2638Z" fill="black"/>
<path d="M67.3379 6.79651H63.9803V10.1155H67.3379V6.79651Z" fill="black"/>
<path d="M23.6621 6.79651H20.3046V10.1155H23.6621V6.79651Z" fill="black"/>
<path d="M23.6621 23.3933V20.0742H20.3046V23.3933V26.7216H23.6621V23.3933Z" fill="black"/>
<path d="M63.9804 16.7548H60.6229V20.0738H63.9804V16.7548Z" fill="black"/>
<path d="M16.9376 16.754V13.4443H20.3045V10.116H16.9376V13.4257H13.5801V16.754V20.0731H16.9376V16.754Z" fill="black"/>
<path d="M63.9804 3.46777H60.6229V6.79608H63.9804V3.46777Z" fill="black"/>
<path d="M57.2559 16.7547H60.6134V13.426H57.2559H53.8984H50.5409H47.1833V16.7547H50.5409H53.8984H57.2559Z" fill="black"/>
<path d="M40.4591 13.426H37.1015H33.744V16.7547H37.1015H40.4591H43.8166H47.1741V13.426H43.8166H40.4591Z" fill="black"/>
<path d="M33.7346 16.7543V13.426H30.377H27.0195V16.7543H30.377H33.7346Z" fill="black"/>
<path d="M53.8984 6.79647H57.2559H60.6134V3.46777H57.2559H53.8984H50.5409H47.1833V6.79647H50.5409H53.8984Z" fill="black"/>
<path d="M40.4591 3.46777H37.1015H33.744V6.79647H37.1015H40.4591H43.8166H47.1741V3.46777H43.8166H40.4591Z" fill="black"/>
<path d="M30.377 6.79647H33.7345V3.46777H30.377H27.0195H23.662V6.79647H27.0195H30.377Z" fill="black"/>
<path d="M27.0195 16.7548H23.662V20.0738H27.0195V16.7548Z" fill="black"/>
<path d="M13.5802 23.5328V26.574H13.5896V23.5328H13.5802ZM67.338 20.0743V26.7224H67.3474V20.0743H67.338ZM70.6955 30.0325V36.6807H70.7049V30.0325H70.6955Z" fill="#24BECB"/>
<path d="M77.4199 46.6574V30.0418H74.0624V20.0742H70.6955V13.4446H67.338V10.1159H63.9804V6.79651H23.6621V10.1159H20.3046V13.4446H16.9377V20.0742H13.5801V23.5327H13.5895V26.574H13.5801V30.0418H10.2226V46.6574H6.86511V59.9444H10.2226V63.2638H13.5801L13.5895 63.2546L16.9377 63.2638V66.574H20.3046V40.0093H16.9377V26.7223H20.3046V20.0742H23.6621V16.7548H27.0196V13.4261H33.7346H33.744H47.1741H47.1835H60.6135H60.6229V16.7455H63.9804V20.0649H67.3473V26.7131H70.6955V30.0232H70.7049V36.6713H70.6955V40H67.338V66.574H70.6955V63.2546H77.4199V59.9351H80.7774V46.6482H77.4199V46.6574ZM16.9377 59.9444H13.5801V46.6574H16.9377V59.9444ZM74.0624 59.9444H70.6955V46.6574H74.0624V59.9444Z" fill="#29BFCD"/>
<path d="M63.9804 40.0092V66.5832H67.3379V69.7543H63.8397V69.9026H57.256V36.6898H67.3379V40.0092H63.9804Z" fill="#29BFCD"/>
<path d="M67.3379 69.7543H63.8397V69.9026H67.3379V69.7543Z" fill="#24BECB"/>
<path d="M30.3771 36.6898V69.9026H20.3046V66.5832H23.6621V40.0092H20.3046V36.6898H30.3771Z" fill="#29BFCD"/>
</svg>
