<svg width="98" height="87" viewBox="0 0 98 87" fill="none" xmlns="http://www.w3.org/2000/svg">
<path d="M93.45 50.15V32.24H89.87V21.49H86.28V14.32H82.7V10.74H79.12V7.16H75.54V3.58H71.95V0H21.49V3.59H17.91V7.17H14.33V10.74H10.74V17.91H7.16V28.66H3.58V46.58H0V68.38H3.58V71.96H7.16V75.54H10.75V79.12H14.33H17.91V82.7H21.5V86.28H39.71V82.69H43.29V39.4H39.71V35.81H36.13V32.24H32.55V28.95H36.13V25.36H60.9H64.48V32.23H57.32V35.81H53.73V79.11H57.32V82.69H60.9V86.27H79.12V82.68H82.7V79.1H89.87V75.52H93.45V71.93H97.03V50.13H93.45V50.15ZM82.55 68.23H75.38V71.81H71.8V75.23H68.07V75.39H61.05V39.57H71.8V43.15H75.38V39.56H75.39V32.39H75.38V28.82H71.81V21.65H68.22V18.07H64.64V14.49H64.63H50.31H50.3H35.98H35.97H28.81V18.08H25.23V21.66H21.65V28.83H18.06V43.16H21.65V39.58H32.39V75.4H21.65V71.82H25.23V43.16H21.65V71.81H18.06V68.24H14.49L14.48 68.23L10.9 68.24V64.66H7.32V50.33H10.9V32.41H14.48V28.67H14.49V25.39H14.48V21.66H18.06V14.51H21.65V10.92H25.23V7.34H68.22V10.92H71.8V14.51H75.38V21.66H78.97V32.41H82.55V50.33H86.13V64.66H82.55V68.24V68.23Z" fill="#FBF6C7"/>
<path d="M18.06 50.32H14.48V64.65H18.06V50.32Z" fill="#FBF6C7"/>
<path d="M78.97 50.32H75.38V64.65H78.97V50.32Z" fill="#FBF6C7"/>
<path d="M71.8 43.15H68.22V71.81H71.8V43.15Z" fill="#FBF6C7"/>
<path d="M7.31995 64.65V68.22H10.8999V64.65H7.31995ZM10.8999 68.23V71.81H14.4799V68.23H10.8999ZM14.4899 50.32V53.89H14.4799V64.65H18.0599V50.32H14.4899ZM14.4899 68.23V71.8H18.0599V68.23H14.4899ZM21.6499 43.15V71.81H25.2299V43.15H21.6499ZM35.9799 43.15V39.56H28.8199H32.3899V75.38H21.6499V78.96H39.5599V43.14H35.9799V43.15ZM75.3899 14.49V10.9H71.7999V7.32001H53.8999L68.2199 7.33001V10.91H71.7999V14.5H75.3799V21.65H78.9699V14.49H75.3899ZM64.6399 18.07V14.49H64.6299H50.3099H50.2999H35.9799H35.9699H28.8099V18.08H25.2299V21.66H21.6499V28.83H18.0599V43.16H21.6499V39.58H28.8099H25.2299V32.41H28.8099V21.67H28.8199V25.25H32.3999V21.66H39.5599V18.09H39.5699V21.66H53.8899H68.2099V18.09H64.6299L64.6399 18.07ZM68.2199 21.65V25.23H71.7999V21.65H68.2199ZM71.8099 28.82V32.39H75.3799V28.82H71.8099ZM71.8099 39.56V43.15H75.3799V39.56H71.8099ZM75.3799 50.32V64.65H78.9699V50.32H75.3799ZM68.2199 43.15V71.81H71.7999V43.15H68.2199ZM89.7099 53.89V35.98H86.1299V25.23H78.9699V32.4H82.5499V50.32H86.1299V64.65H82.5499V68.23H75.3799V71.81H71.7999V75.23H68.0699V75.39H61.0599V78.97H78.9699V75.39H86.1299V71.81H78.9699L86.1299 71.8L89.7099 71.81V68.22H93.2999V53.89H89.7099Z" fill="black"/>
<path d="M35.98 78.97H32.4V82.55H35.98V78.97Z" fill="black"/>
<path d="M75.3899 78.97H71.8099V82.55H75.3899V78.97Z" fill="black"/>
<path d="M25.23 43.15H21.65V71.81H25.23V43.15Z" fill="black"/>
<path d="M71.8 43.15H68.22V71.81H71.8V43.15Z" fill="black"/>
<path d="M18.06 50.32H14.48V64.65H18.06V50.32Z" fill="black"/>
<path d="M78.97 50.32H75.38V64.65H78.97V50.32Z" fill="black"/>
<path d="M86.13 50.32V53.9V57.48V61.06V61.07V64.65H89.71V61.07V61.06V57.48V53.9V50.32H86.13Z" fill="black"/>
<path d="M7.31998 61.06V57.48V53.9V50.32H3.72998V53.9V57.48V61.06V61.07V64.65H7.31998V61.07V61.06Z" fill="black"/>
<path d="M86.1299 43.15V39.57V35.99V32.4H82.5499V35.99V39.57V43.15V46.73V50.32H86.1299V46.73V43.15Z" fill="black"/>
<path d="M57.47 43.15V46.73V50.32V53.9V57.48V61.06V61.07V64.65V68.23V71.81V71.82V75.4H61.05V71.82V71.81V68.23V64.65V61.07V61.06V57.48V53.9V50.32V46.73V43.15V39.57H57.47V43.15Z" fill="black"/>
<path d="M64.6299 35.99H61.0499V39.57H64.6299V35.99Z" fill="black"/>
<path d="M28.8099 35.99H25.2299H21.6499V32.4V28.82H18.0599V32.4V35.99V39.57V43.15H21.6499V39.57H25.2299H28.8099H32.3899V35.99H28.8099Z" fill="black"/>
<path d="M32.39 75.4H35.97V71.82V71.81V68.23V64.65V61.07V61.06V57.48V53.9V50.32V46.73V43.15V39.57H32.39V43.15V46.73V50.32V53.9V57.48V61.06V61.07V64.65V68.23V71.81V71.82V75.4H28.81V78.97V75.4H25.23V78.98V82.56H28.81V78.98H28.82V82.56H32.4V78.97H32.39V75.4Z" fill="black"/>
<path d="M64.6299 75.4H61.0499V78.98H64.6299V75.4Z" fill="black"/>
<path d="M75.38 39.57V35.99H71.8H68.22H64.64V39.57H68.22H71.8V43.15H75.38V39.57Z" fill="black"/>
<path d="M75.3799 32.4H71.7999V35.98H75.3799V32.4Z" fill="black"/>
<path d="M10.8999 46.73V43.15V39.57V35.99V32.4H7.31995V35.99V39.57V43.15V46.73V50.32H10.8999V46.73Z" fill="black"/>
<path d="M10.8999 64.65H7.31995V68.23H10.8999V64.65Z" fill="black"/>
<path d="M86.1299 64.65H82.5499V68.23H86.1299V64.65Z" fill="black"/>
<path d="M75.3799 28.82H71.7999V32.4H75.3799V28.82Z" fill="black"/>
<path d="M18.07 71.81H18.06V68.23H14.48H10.9V71.81H14.48H14.49V75.39H18.06V75.4H21.65V78.98H25.23V75.4H21.65V75.39V71.81H18.07Z" fill="black"/>
<path d="M71.8 75.4H68.22V78.97V75.4H64.64V78.98V82.56H68.22V78.98V82.56H71.8V78.97V75.4H75.38V71.81H71.8V75.4Z" fill="black"/>
<path d="M71.8 25.23H68.22V28.81H71.8V25.23Z" fill="black"/>
<path d="M82.5499 25.23V21.65V18.06H78.9699V14.48H75.3799V10.91H71.7999V14.5H75.3799V18.07V21.65H78.9699V25.23V28.82V32.4H82.5499V28.82V25.23Z" fill="black"/>
<path d="M71.8 21.65H68.22V25.23H71.8V21.65Z" fill="black"/>
<path d="M14.48 28.82V25.23V21.65H10.9V25.23V28.82V32.4H14.48V28.82Z" fill="black"/>
<path d="M78.96 68.23H75.38V71.81H78.96V68.23Z" fill="black"/>
<path d="M82.55 68.23H78.97V71.81H82.55V68.23Z" fill="black"/>
<path d="M71.8 7.33H68.22V10.91H71.8V7.33Z" fill="black"/>
<path d="M25.23 7.33H21.65V10.91H25.23V7.33Z" fill="black"/>
<path d="M25.23 25.23V21.65H21.65V25.23V28.82H25.23V25.23Z" fill="black"/>
<path d="M68.22 18.07H64.64V21.65H68.22V18.07Z" fill="black"/>
<path d="M18.06 18.07V14.5H21.65V10.91H18.06V14.48H14.48V18.07V21.65H18.06V18.07Z" fill="black"/>
<path d="M68.22 3.74001H64.64V7.33001H68.22V3.74001Z" fill="black"/>
<path d="M61.0499 18.07H64.6299V14.48H61.0499H57.4699H53.8899H50.3099V18.07H53.8899H57.4699H61.0499Z" fill="black"/>
<path d="M43.14 14.48H39.56H35.98V18.07H39.56H43.14H46.72H50.3V14.48H46.72H43.14Z" fill="black"/>
<path d="M35.9699 18.07V14.48H32.3899H28.8099V18.07H32.3899H35.9699Z" fill="black"/>
<path d="M57.4699 7.33001H61.0499H64.6299V3.74001H61.0499H57.4699H53.8899H50.3099V7.33001H53.8899H57.4699Z" fill="black"/>
<path d="M43.14 3.74001H39.56H35.98V7.33001H39.56H43.14H46.72H50.3V3.74001H46.72H43.14Z" fill="black"/>
<path d="M32.39 7.33001H35.97V3.74001H32.39H28.81H25.23V7.33001H28.81H32.39Z" fill="black"/>
<path d="M28.81 18.07H25.23V21.65H28.81V18.07Z" fill="black"/>
<path d="M14.48 25.38V28.66H14.49V25.38H14.48ZM71.8 21.65V28.82H71.81V21.65H71.8ZM75.38 32.39V39.56H75.39V32.39H75.38Z" fill="#24BECB"/>
<path d="M82.5499 50.32V32.4H78.9699V21.65H75.3799V14.5H71.7999V10.91H68.2199V7.33H25.2299V10.91H21.6499V14.5H18.0599V21.65H14.4799V25.38H14.4899V28.66H14.4799V32.4H10.8999V50.32H7.31995V64.65H10.8999V68.23H14.4799L14.4899 68.22L18.0599 68.23V71.8H21.6499V43.15H18.0599V28.82H21.6499V21.65H25.2299V18.07H28.8099V14.48H35.9699H35.9799H50.2999H50.3099H64.6299H64.6399V18.06H68.2199V21.64H71.8099V28.81H75.3799V32.38H75.3899V39.55H75.3799V43.14H71.7999V71.8H75.3799V68.22H82.5499V64.64H86.1299V50.31H82.5499V50.32ZM18.0599 64.65H14.4799V50.32H18.0599V64.65ZM78.9699 64.65H75.3799V50.32H78.9699V64.65Z" fill="#FAA826"/>
<path d="M68.2199 43.15V71.81H71.7999V75.23H68.0699V75.39H61.0499V39.57H71.7999V43.15H68.2199Z" fill="#FAA826"/>
<path d="M71.7999 75.23H68.0699V75.39H71.7999V75.23Z" fill="#24BECB"/>
<path d="M32.3899 39.57V75.39H21.6499V71.81H25.2299V43.15H21.6499V39.57H32.3899Z" fill="#FAA826"/>
</svg>
