<svg width="86" height="113" viewBox="0 0 86 113" fill="none" xmlns="http://www.w3.org/2000/svg">
<path d="M80.7018 27.4482V18.3336H76.1464V13.7769H71.5897V9.22155H62.4751V4.66357H27.447V9.22155H18.3324V13.7769H13.7744V18.3336H9.21903V27.4482H4.66235V62.4763H9.21903V71.5909H13.7744V76.1489H18.3324V85.261H22.889V89.8189H27.447V98.931H32.0024V103.489H36.5591V112.604H53.363V103.489H57.9197V98.931H62.4751V89.8189H67.0317V85.261H71.5897V76.1489H76.1464V71.5909H80.7018V62.4763H85.2597V27.4482H80.7018Z" fill="black"/>
<path d="M76.0381 22.7834V13.6687H71.4827V9.11204H66.9261V4.55667H57.8114V0H22.7834V4.55667H13.6687V9.11204H9.11204V13.6687H4.55667V22.7834H0V57.8114H4.55667V66.9261H9.11204V71.4827H13.6687V80.5948H18.2254V85.1515H22.7821V94.2635H27.3374V98.8202H31.8941V107.935H48.6968V98.8202H53.2534V94.2635H57.8088V85.1515H62.3655V80.5948H66.9221V71.4827H71.4788V66.9261H76.0342V57.8114H80.5909V22.7834H76.0342H76.0381ZM49.4107 49.412H44.8541V53.9674H35.7394V49.412H31.1827V44.8554H26.6274V35.7407H31.1827V31.184H35.7394V26.6287H44.8541V31.184H49.4107V35.7407H53.9661V44.8554H49.4107V49.412Z" fill="black"/>
<path d="M72.1941 26.6286V17.5139H67.6387V12.9573H63.0821V8.40189H53.9674V3.84521H26.6274V8.40189H17.5127V12.9573H12.956V17.5139H8.40067V26.6286H3.84399V53.9686H8.40067V63.0833H12.956V67.64H17.5127V76.752H22.0694V81.3087H26.6261V90.4207H31.1814V94.9774H35.7381V104.092H44.8528V94.9774H49.4094V90.4207H53.9648V81.3087H58.5215V76.752H63.0781V67.64H67.6348V63.0833H72.1902V53.9686H76.7469V26.6286H72.1902H72.1941ZM53.9661 44.8553H49.4107V49.412H44.8541V53.9673H35.7394V49.412H31.1827V44.8553H26.6274V35.7406H31.1827V31.184H35.7394V26.6286H44.8541V31.184H49.4107V35.7406H53.9661V44.8553Z" fill="#FAA826"/>
<path d="M53.966 35.7409V44.8556H49.4107V49.4123H44.854V53.9676H35.7393V49.4123H31.1813V44.8556H26.626V35.7409H31.1813V31.1843H35.7393V26.6289H44.854V31.1843H49.4107V35.7409H53.966Z" fill="black"/>
</svg>
