<svg width="126" height="162" viewBox="0 0 126 162" fill="none" xmlns="http://www.w3.org/2000/svg">
<path d="M49.2404 162.008V155.725H42.9577V143.594H36.9685V143.449H36.8209V137.313H30.6858V125.183H24.6931V125.039H24.549V118.902H18.4104V106.773H12.4195V106.629H12.2736V100.492H6.13857V88.2164H0V30.6858H6.13857V18.4104H12.2736V12.2736H18.4104V6.13857H30.6858V0H88.2147V6.13857H100.49V12.2736H106.629V12.4213H106.773V18.4104H112.764V18.5563H112.91V24.6931H119.045V36.9685H125.183V94.4974H119.045V106.773H112.91V112.911H106.773V125.183H100.636V131.322H94.4974V143.594H88.3623V149.732H82.2255V162.008H49.2404Z" fill="#FBFADB"/>
<path d="M113.866 42.1455V29.8701H107.731V23.7333H107.585V23.5874H101.595V17.5982H101.45V17.4506H95.3118V11.3155H83.0365V5.17871H35.8616V11.3155H23.5862V17.4506H17.4494V23.5874H11.3143V35.8628H5.17578V83.0394H11.3143V95.3148H17.4494V101.452H17.5953V101.596H23.5862V113.723H29.7248V119.862H29.8689V120.006H35.8616V132.134H41.9966V138.272H42.1443V138.417H48.1352V150.548H54.4162V156.831H77.0473V144.555H83.1841V138.417H89.3192V126.145H95.456V120.006H101.595V107.734H107.731V101.596H113.866V89.3203H120.005V42.1455H113.866Z" fill="#FBFADB"/>
<path d="M113.867 42.1468V29.8714H107.732V23.7346H101.595V17.5995H89.3197V11.4609H42.1448V17.5995H29.8694V23.7346H23.7308V29.8714H17.5958V42.1468H11.459V89.3216H17.5958V101.597H23.7308V107.736H29.8694V120.007H36.0062V126.146H42.1448V138.418H48.2798V144.556H54.4167V156.832H77.0478V144.556H83.1846V138.418H89.3197V126.146H95.4565V120.007H101.595V107.736H107.732V101.597H113.867V89.3216H120.005V42.1468H113.867Z" fill="black"/>
<path d="M107.586 35.8637V23.5884H101.451V17.4516H95.314V11.3165H83.0386V5.17969H35.8637V11.3165H23.5884V17.4516H17.4516V23.5884H11.3165V35.8637H5.17969V83.0386H11.3165V95.314H17.4516V101.451H23.5884V113.723H29.7252V119.859H35.862V132.131H41.997V138.268H48.1339V150.544H70.7632V138.268H76.9V132.131H83.0351V119.859H89.1719V113.723H95.3087V101.451H101.446V95.314H107.581V83.0386H113.717V35.8637H107.581H107.586ZM71.7248 71.7266H65.588V77.8616H53.3126V71.7266H47.1758V65.5897H41.0407V53.3144H47.1758V47.1776H53.3126V41.0425H65.588V47.1776H71.7248V53.3144H77.8598V65.5897H71.7248V71.7266Z" fill="black"/>
<path d="M102.41 41.0424V28.7671H96.2745V22.6303H90.1377V16.4952H77.8623V10.3584H41.0415V16.4952H28.7661V22.6303H22.6293V28.7671H16.4942V41.0424H10.3574V77.8633H16.4942V90.1387H22.6293V96.2755H28.7661V108.547H34.9029V114.684H41.0397V126.956H47.1748V133.093H53.3116V145.368H65.587V133.093H71.7238V126.956H77.8588V114.684H83.9956V108.547H90.1324V96.2755H96.2693V90.1387H102.404V77.8633H108.541V41.0424H102.404H102.41ZM77.8606 65.5897H71.7255V71.7265H65.5887V77.8616H53.3133V71.7265H47.1765V65.5897H41.0415V53.3143H47.1765V47.1775H53.3133V41.0424H65.5887V47.1775H71.7255V53.3143H77.8606V65.5897Z" fill="#FBA927"/>
<path d="M77.8599 53.3148V65.5902H71.7249V71.727H65.5881V77.8621H53.3127V71.727H47.1741V65.5902H41.0391V53.3148H47.1741V47.178H53.3127V41.043H65.5881V47.178H71.7249V53.3148H77.8599Z" fill="black"/>
</svg>
