<?xml version="1.0" encoding="UTF-8"?>
<svg id="Layer_1" data-name="Layer 1" xmlns="http://www.w3.org/2000/svg" viewBox="0 0 950 950">
  <defs>
    <style>
      .cls-1 {
        fill: #00c6d3;
      }

      .cls-2 {
        fill: #fbfadb;
      }
    </style>
  </defs>
  <polygon class="cls-2" points="399.05 935.8 399.05 900.06 363.31 900.06 363.31 831.05 329.24 831.05 329.24 830.23 328.4 830.23 328.4 795.32 293.5 795.32 293.5 726.32 259.41 726.32 259.41 725.5 258.59 725.5 258.59 690.59 223.67 690.59 223.67 621.59 189.59 621.59 189.59 620.77 188.76 620.77 188.76 585.86 153.86 585.86 153.86 516.03 118.94 516.03 118.94 188.76 153.86 188.76 153.86 118.93 188.76 118.93 188.76 84.02 223.67 84.02 223.67 49.12 293.5 49.12 293.5 14.2 620.76 14.2 620.76 49.12 690.59 49.12 690.59 84.02 725.51 84.02 725.51 84.86 726.33 84.86 726.33 118.93 760.41 118.93 760.41 119.76 761.24 119.76 761.24 154.67 796.14 154.67 796.14 224.5 831.06 224.5 831.06 551.76 796.14 551.76 796.14 621.59 761.24 621.59 761.24 656.51 726.33 656.51 726.33 726.32 691.42 726.32 691.42 761.24 656.5 761.24 656.5 831.05 621.6 831.05 621.6 865.97 586.69 865.97 586.69 935.8 399.05 935.8"/>
  <polygon class="cls-2" points="766.69 253.95 766.69 184.12 731.79 184.12 731.79 149.21 730.96 149.21 730.96 148.38 696.88 148.38 696.88 114.31 696.06 114.31 696.06 113.47 661.14 113.47 661.14 78.57 591.31 78.57 591.31 43.66 322.95 43.66 322.95 78.57 253.12 78.57 253.12 113.47 218.21 113.47 218.21 148.38 183.31 148.38 183.31 218.21 148.39 218.21 148.39 486.58 183.31 486.58 183.31 556.41 218.21 556.41 218.21 591.32 219.04 591.32 219.04 592.14 253.12 592.14 253.12 661.13 288.04 661.13 288.04 696.05 288.86 696.05 288.86 696.87 322.95 696.87 322.95 765.86 357.85 765.86 357.85 800.78 358.69 800.78 358.69 801.6 392.77 801.6 392.77 870.61 428.5 870.61 428.5 906.35 557.24 906.35 557.24 836.52 592.15 836.52 592.15 801.6 627.05 801.6 627.05 731.79 661.96 731.79 661.96 696.87 696.88 696.87 696.88 627.06 731.79 627.06 731.79 592.14 766.69 592.14 766.69 522.31 801.61 522.31 801.61 253.95 766.69 253.95"/>
  <g>
    <polygon points="766.69 253.95 766.69 184.12 731.79 184.12 731.79 149.21 696.88 149.21 696.88 114.31 627.05 114.31 627.05 79.39 358.69 79.39 358.69 114.31 288.86 114.31 288.86 149.21 253.94 149.21 253.94 184.12 219.04 184.12 219.04 253.95 184.13 253.95 184.13 522.31 219.04 522.31 219.04 592.14 253.94 592.14 253.94 627.06 288.86 627.06 288.86 696.87 323.77 696.87 323.77 731.79 358.69 731.79 358.69 801.6 393.59 801.6 393.59 836.52 428.5 836.52 428.5 906.35 557.24 906.35 557.24 836.52 592.15 836.52 592.15 801.6 627.05 801.6 627.05 731.79 661.96 731.79 661.96 696.87 696.88 696.87 696.88 627.06 731.79 627.06 731.79 592.14 766.69 592.14 766.69 522.31 801.61 522.31 801.61 253.95 766.69 253.95"/>
    <g>
      <path d="M730.96,218.21v-69.83h-34.9v-34.91h-34.91v-34.9h-69.83v-34.91h-268.36v34.91h-69.83v34.9h-34.91v34.91h-34.9v69.83h-34.91v268.36h34.91v69.83h34.9v34.91h34.91v69.81h34.91v34.91h34.91v69.81h34.9v34.91h34.91v69.83h128.73v-69.83h34.91v-34.91h34.9v-69.81h34.91v-34.91h34.91v-69.81h34.91v-34.91h34.9v-69.83h34.91V218.21h-34.91ZM526.96,422.22h-34.91v34.9h-69.83v-34.9h-34.91v-34.91h-34.9v-69.83h34.9v-34.91h34.91v-34.9h69.83v34.9h34.91v34.91h34.9v69.83h-34.9v34.91Z"/>
      <path class="cls-1" d="M701.51,247.67v-69.83h-34.9v-34.91h-34.91v-34.9h-69.83v-34.91h-209.46v34.91h-69.83v34.9h-34.91v34.91h-34.9v69.83h-34.91v209.46h34.91v69.83h34.9v34.91h34.91v69.81h34.91v34.91h34.91v69.81h34.9v34.91h34.91v69.83h69.83v-69.83h34.91v-34.91h34.9v-69.81h34.91v-34.91h34.91v-69.81h34.91v-34.91h34.9v-69.83h34.91v-209.46h-34.91ZM561.86,387.31h-34.9v34.91h-34.91v34.9h-69.83v-34.9h-34.91v-34.91h-34.9v-69.83h34.9v-34.91h34.91v-34.9h69.83v34.9h34.91v34.91h34.9v69.83Z"/>
      <polygon points="561.86 317.48 561.86 387.31 526.96 387.31 526.96 422.22 492.05 422.22 492.05 457.12 422.22 457.12 422.22 422.22 387.3 422.22 387.3 387.31 352.4 387.31 352.4 317.48 387.3 317.48 387.3 282.57 422.22 282.57 422.22 247.67 492.05 247.67 492.05 282.57 526.96 282.57 526.96 317.48 561.86 317.48"/>
    </g>
  </g>
</svg>