<svg width="68" height="51" viewBox="0 0 68 51" fill="none" xmlns="http://www.w3.org/2000/svg">
<path d="M65.387 3.34443V0H0V47.6454H3.61299V51H69V3.34443H65.387ZM7.38745 36.4228V10.9278H11.0004V14.5772H14.6235V10.9278H11.0105V7.28862H54.3866V10.9278H57.9996V36.4228H54.3866V40.0722H11.0004V36.4228H7.38745Z" fill="#FAF6C5"/>
<path d="M50.7736 14.5771H47.1606V18.2164H50.7736V14.5771Z" fill="#FAF6C5"/>
<path d="M18.2365 29.1443H14.6235V32.7835H18.2365V29.1443Z" fill="#FAF6C5"/>
<path d="M43.5477 18.2166V21.8558H39.9246V25.495H25.4625V21.8558H21.8496V18.2166H18.2366V29.1444H21.8496V25.5052H25.4625V29.1444H39.9246V25.5052H43.5477V29.1444H47.1607V18.2166H43.5477Z" fill="#FAF6C5"/>
<path d="M50.7736 29.1443H47.1606V32.7835H50.7736V29.1443Z" fill="#FAF6C5"/>
<path d="M14.6236 32.7834H11.0005V36.4227H14.6236V32.7834Z" fill="#FAF6C5"/>
<path d="M54.3867 32.7834H50.7737V36.4227H54.3867V32.7834Z" fill="#FAF6C5"/>
<path d="M18.2365 14.5771H14.6235V18.2164H18.2365V14.5771Z" fill="#FAF6C5"/>
<path d="M54.3867 10.9277H50.7737V14.5771H54.3867V10.9277Z" fill="#FAF6C5"/>
<path d="M18.2365 18.2164H21.8495V21.8556H25.4625V25.4949H39.9245V21.8556H43.5476V18.2164H47.1606V14.5772H50.7736V10.9278H54.3865V7.28857H11.0105V10.9278H14.6235V14.5772H18.2365V18.2164Z" fill="#29BFCD"/>
<path d="M54.3866 10.9277V14.5771H50.7736V18.2164H47.1606V29.1442H50.7736V32.7834H54.3866V36.4227H57.9996V10.9277H54.3866Z" fill="#29BFCD"/>
<path d="M14.6235 32.7834V29.1442H18.2365V18.2164H14.6235V14.5771H11.0004V10.9277H7.38745V36.4227H11.0004V32.7834H14.6235Z" fill="#29BFCD"/>
<path d="M50.7736 32.7836H47.1606V29.1444H43.5477V25.5051H39.9246V29.1444H25.4625V25.5051H21.8495V29.1444H18.2366V32.7836H14.6236V36.4228H11.0005V40.0722H54.3866V36.4228H50.7736V32.7836Z" fill="#29BFCD"/>
<path d="M61.6226 7.00401V3.64941H54.3865H3.77441V10.9279V36.4228H7.3874V10.938L11.0004 10.9279V14.5773H14.6235V10.9279H11.0105V7.28864H54.3865V10.9279H57.9995V36.4228H54.3865V40.062H50.7735H11.0004V36.4126H7.3874H3.77441V43.6911H7.3874V47.0355H65.2356V7.00401H61.6226Z" fill="black"/>
<path d="M54.3864 10.928H50.7734V14.5774H54.3864V10.928Z" fill="black"/>
<path d="M18.2365 14.5771H14.6235V18.2164H18.2365V14.5771Z" fill="black"/>
<path d="M50.7736 14.5771H47.1606V18.2164H50.7736V14.5771Z" fill="black"/>
<path d="M21.8496 25.5052H25.4625V29.1444H29.0856H32.6986H36.3116H39.9246V25.5052H43.5477V29.1444H47.1607V25.5052V21.8558V18.2166H43.5477V21.8558H39.9246V25.495H25.4625V21.8558H21.8496V18.2166H18.2366V21.8558V25.5052V29.1444H21.8496V25.5052Z" fill="black"/>
<path d="M18.2365 29.1443H14.6235V32.7835H18.2365V29.1443Z" fill="black"/>
<path d="M50.7736 29.1443H47.1606V32.7835H50.7736V29.1443Z" fill="black"/>
<path d="M14.6236 32.7834H11.0005V36.4227H14.6236V32.7834Z" fill="black"/>
<path d="M54.3864 32.7834H50.7734V36.4227H54.3864V32.7834Z" fill="black"/>
</svg>
