<svg width="107" height="79" viewBox="0 0 107 79" fill="none" xmlns="http://www.w3.org/2000/svg">
<path d="M101.397 5.18059V0H0V73.8037H5.60275V79H107V5.18059H101.397ZM11.4559 56.4196V16.9274H17.0587V22.5804H22.6771V16.9274H17.0743V11.2902H84.3386V16.9274H89.9414V56.4196H84.3386V62.0726H17.0587V56.4196H11.4559Z" fill="#FAF6C5"/>
<path d="M78.7358 22.5804H73.1331V28.2177H78.7358V22.5804Z" fill="#FAF6C5"/>
<path d="M28.2798 45.1451H22.677V50.7824H28.2798V45.1451Z" fill="#FAF6C5"/>
<path d="M67.5303 28.2177V33.8549H61.9119V39.4921H39.4853V33.8549H33.8825V28.2177H28.2798V45.1451H33.8825V39.5079H39.4853V45.1451H61.9119V39.5079H67.5303V45.1451H73.1331V28.2177H67.5303Z" fill="#FAF6C5"/>
<path d="M78.7358 45.1451H73.1331V50.7824H78.7358V45.1451Z" fill="#FAF6C5"/>
<path d="M22.677 50.7823H17.0586V56.4196H22.677V50.7823Z" fill="#FAF6C5"/>
<path d="M84.3386 50.7823H78.7358V56.4196H84.3386V50.7823Z" fill="#FAF6C5"/>
<path d="M28.2798 22.5804H22.677V28.2177H28.2798V22.5804Z" fill="#FAF6C5"/>
<path d="M84.3386 16.9275H78.7358V22.5805H84.3386V16.9275Z" fill="#FAF6C5"/>
<path d="M28.2798 28.2176H33.8826V33.8548H39.4853V39.4921H61.912V33.8548H67.5304V28.2176H73.1331V22.5804H78.7359V16.9274H84.3386V11.2902H17.0743V16.9274H22.6771V22.5804H28.2798V28.2176Z" fill="#29BFCD"/>
<path d="M84.3387 16.9274V22.5803H78.7359V28.2176H73.1332V45.145H78.7359V50.7823H84.3387V56.4195H89.9414V16.9274H84.3387Z" fill="#29BFCD"/>
<path d="M22.6771 50.7823V45.145H28.2798V28.2176H22.6771V22.5803H17.0587V16.9274H11.4559V56.4195H17.0587V50.7823H22.6771Z" fill="#29BFCD"/>
<path d="M78.7359 50.7823H73.1332V45.145H67.5304V39.5078H61.912V45.145H39.4854V39.5078H33.8826V45.145H28.2799V50.7823H22.6771V56.4195H17.0587V62.0725H84.3387V56.4195H78.7359V50.7823Z" fill="#29BFCD"/>
<path d="M95.5597 10.8493V5.65295H84.3386H5.85315V16.9274V56.4196H11.4559V16.9432L17.0586 16.9274V22.5804H22.677V16.9274H17.0743V11.2902H84.3386V16.9274H89.9413V56.4196H84.3386V62.0568H78.7358H17.0586V56.4038H11.4559H5.85315V67.6783H11.4559V72.8589H101.162V10.8493H95.5597Z" fill="black"/>
<path d="M84.3386 16.9274H78.7358V22.5803H84.3386V16.9274Z" fill="black"/>
<path d="M28.2798 22.5804H22.677V28.2177H28.2798V22.5804Z" fill="black"/>
<path d="M78.7358 22.5804H73.1331V28.2177H78.7358V22.5804Z" fill="black"/>
<path d="M33.8825 39.5079H39.4853V45.1451H45.1037H50.7064H56.3092H61.9119V39.5079H67.5303V45.1451H73.1331V39.5079V33.8549V28.2177H67.5303V33.8549H61.9119V39.4921H39.4853V33.8549H33.8825V28.2177H28.2798V33.8549V39.5079V45.1451H33.8825V39.5079Z" fill="black"/>
<path d="M28.2798 45.1451H22.677V50.7824H28.2798V45.1451Z" fill="black"/>
<path d="M78.7358 45.1451H73.1331V50.7824H78.7358V45.1451Z" fill="black"/>
<path d="M22.677 50.7823H17.0586V56.4196H22.677V50.7823Z" fill="black"/>
<path d="M84.3386 50.7823H78.7358V56.4196H84.3386V50.7823Z" fill="black"/>
</svg>
