<svg width="105" height="34" viewBox="0 0 105 34" fill="none" xmlns="http://www.w3.org/2000/svg">
<path d="M100.565 7.86682V7.40998L100.551 3.92623H96.6247V0H3.94059V3.94059H0V25.6993H3.92623V26.1562L3.94059 29.6399H7.86682V33.5661H100.551V29.6256H104.492V7.86682H100.565Z" fill="#FBFADB"/>
<path d="M97.0816 11.3361V7.39551H11.3362V11.3361H7.39563V26.1561H11.3362V30.0966H97.0816V26.1561H101.022V11.3361H97.0816Z" fill="black"/>
<path d="M7.40995 26.1704V22.2298H3.46936V7.40983H7.40995V3.46924H93.1553V7.40983H97.0959V22.2298H93.1553V26.1704H7.40995Z" fill="black"/>
<path d="M93.6252 10.8793V18.7592H89.6859V22.6998H10.8793V18.7592H6.93872V10.8793H10.8793V6.93872H89.6859V10.8793H93.6252Z" fill="#00C6D3"/>
</svg>
