<svg width="86" height="81" viewBox="0 0 86 81" fill="none" xmlns="http://www.w3.org/2000/svg">
<path d="M62.0278 47.6074V52.3589H66.7797V47.6074H62.0278ZM81.248 18.9662V4.73828H19.0211V37.9324H9.51721V42.6706H4.76524V47.4089H0V66.7853H4.76524V71.5236H9.51721V76.2618H14.2692V81H38.4538V76.2618H43.2057V71.5236H47.5595V76.2618H52.3115V81H76.4961V76.2618H81.248V71.5236H86V18.9662H81.248ZM14.4683 52.3589V47.6074H23.9855V52.3589H28.7375V9.67505H71.3326V28.853H71.5317V61.8353H66.7797V66.5736H52.5106V61.8353H47.7586V52.3589H52.5106V47.6074H62.0278V52.3589H66.7797V19.1648H33.4894V61.8353H28.7375V66.5736H14.4683V61.8353H9.71631V52.3589H14.4683ZM47.9577 33.5912H57.0634V37.9324H47.9577V33.5912ZM62.0278 47.6074V52.3589H66.7797V47.6074H62.0278Z" fill="#FBF6C7"/>
<path d="M43.0066 19.1648V23.903H62.0278V19.1648H43.0066ZM47.7586 47.6074V52.3589H52.5106V47.6074H47.7586ZM62.0278 33.3927V42.8692H52.5106V47.6074H62.0278V52.3589H66.7798V33.3927H62.0278ZM33.4894 19.1648V61.8353H28.7375V66.5736H14.4683V71.3251H19.2335V76.0633H33.4894V71.3251H38.2547V66.5736H43.0066V61.8353H47.7586V52.3589H43.0066V28.6412H62.0278V42.8692H52.5106V47.6074H62.0278V52.3589H66.7798V19.1648H33.4894ZM47.7586 52.3589H52.5106V47.6074H47.7586V52.3589ZM23.9855 47.6074V52.3589H28.7375V9.67505H23.9855V42.8692H14.4683V47.6074H23.9855ZM9.71632 61.8353V66.5736H14.4683V61.8353H9.71632ZM14.4683 47.6074H9.71632V52.3589H14.4683V47.6074ZM9.71632 52.3589H4.96436V61.8353H9.71632V52.3589ZM47.7586 47.6074V52.3589H52.5106V47.6074H47.7586ZM47.7586 61.8353V66.5736H52.5106V61.8353H47.7586ZM76.297 23.903V9.67505H71.3326V28.853H71.5317V61.8353H66.7798V66.5736H52.5106V71.3251H57.2758V76.0633H71.5317V71.3251H76.297V66.5736H81.0489V23.903H76.297ZM47.7586 47.6074V52.3589H52.5106V47.6074H47.7586ZM62.0278 33.3927V42.8692H52.5106V47.6074H66.7798V33.3927H62.0278Z" fill="#FBF6C7"/>
<path d="M86 9.47644H71.3326V28.8529H86V9.47644Z" fill="#FBF6C7"/>
<path d="M76.297 14.4265V19.1647V23.903H81.049V19.1647V14.4265H76.297Z" fill="#FBF6C7"/>
<path d="M76.4961 0V14.625H71.3326V9.675H28.7374V14.625H23.7864V0H76.4961Z" fill="#FBF6C7"/>
<path d="M71.5317 4.93677H28.7374V9.675H71.5317V4.93677Z" fill="#FBF6C7"/>
<path d="M66.7797 23.9029V19.1647H43.0066H33.4894V61.8353H28.7374V66.5735H14.4683V71.325H19.2335V76.0632H33.4894V71.325H38.2546V66.5735H43.0066V28.6411H66.7797V23.9029Z" fill="black"/>
<path d="M28.7374 47.6074H23.9855V52.3589H28.7374V47.6074Z" fill="black"/>
<path d="M14.4683 61.8353H9.71631V66.5736H14.4683V61.8353Z" fill="black"/>
<path d="M81.049 23.903V19.1648V14.4265H76.297V9.67505H71.3327V14.4265V19.1648V23.903V28.853H71.5318V61.8353H66.7798V66.5736H52.5106V71.325H57.2759V76.0633H71.5318V71.325H76.297V66.5736H81.049V23.903Z" fill="black"/>
<path d="M52.5106 61.8353H47.7587V66.5736H52.5106V61.8353Z" fill="black"/>
<path d="M66.7798 47.6074H62.0278V52.3589H66.7798V47.6074Z" fill="black"/>
<path d="M62.0279 47.6073V52.3588H66.7798V47.6073V42.8691V38.1308V33.3926V28.6411V23.9029V19.1647H62.0279H57.2759H52.5106H47.7587H43.0067H38.2547H33.4895V23.9029V28.6411V33.3926V38.1308V42.8691V47.6073V52.3588V57.097V61.8353H38.2547V57.097V52.3588V47.6073V42.8691V38.1308V33.3926V28.6411V23.9029H43.0067H47.7587H52.5106H57.2759H62.0279V28.6411V33.3926V38.1308V42.8691H57.2759H52.5106V47.6073H57.2759H62.0279Z" fill="black"/>
<path d="M52.5106 47.6074H47.7587V52.3589H52.5106V47.6074Z" fill="black"/>
<path d="M47.7586 52.3588H43.0066V57.097V61.8352H47.7586V57.097V52.3588Z" fill="black"/>
<path d="M9.71632 52.3588H4.96436V57.097V61.8352H9.71632V57.097V52.3588Z" fill="black"/>
<path d="M52.5106 61.8353H47.7587V66.5736H52.5106V61.8353Z" fill="black"/>
<path d="M33.4894 61.8353H28.7374V66.5736H33.4894V61.8353Z" fill="black"/>
<path d="M57.2759 66.5735H52.5106V71.325H57.2759H62.0278H66.7798V66.5735H62.0278H57.2759Z" fill="black"/>
<path d="M71.5318 61.8353H66.7798V66.5736H71.5318V61.8353Z" fill="black"/>
<path d="M76.297 28.6411V23.9029V19.1647H71.5317V23.9029V28.6411V33.3926V38.1308V42.8691V47.6073V52.3588V57.097V61.8353H76.297V57.097V52.3588V47.6073V42.8691V38.1308V33.3926V28.6411Z" fill="black"/>
<path d="M38.2546 9.675H43.0066H47.7586H52.5105H57.2758H62.0278H66.7797H71.5317V4.93677H66.7797H62.0278H57.2758H52.5105H47.7586H43.0066H38.2546H33.4894H28.7374V9.675H33.4894H38.2546Z" fill="black"/>
<path d="M76.297 14.4265V9.67505H71.5317V14.4265V19.1648H76.297V14.4265Z" fill="black"/>
<path d="M23.9855 47.6074V52.3589H28.7374V47.6074V42.8692V38.1309V33.3927V28.6412V23.903V19.1648V14.4265V9.67505H23.9855V14.4265V19.1648V23.903V28.6412V33.3927V38.1309V42.8692H19.2335H14.4683V47.6074H19.2335H23.9855Z" fill="black"/>
<path d="M19.2335 66.5735H14.4683V71.325H19.2335H23.9855H28.7374V66.5735H23.9855H19.2335Z" fill="black"/>
<path d="M14.4683 47.6074H9.71631V52.3589H14.4683V47.6074Z" fill="black"/>
<path d="M14.4683 61.8353H9.71631V66.5736H14.4683V61.8353Z" fill="black"/>
<path d="M71.5317 28.853V61.8353H66.7798V66.5736H52.5106V61.8353H47.7586V52.3589H52.5106V47.6074H62.0278V52.3589H66.7798V19.1648H33.4894V61.8353H28.7375V66.5736H14.4683V61.8353H9.71631V52.3589H14.4683V47.6074H23.9855V52.3589H28.7375V9.67505H71.3326V28.853H71.5317Z" fill="#29BFCD"/>
</svg>
