<svg width="50" height="50" viewBox="0 0 20 20" fill="none" xmlns="http://www.w3.org/2000/svg">
<path d="M6.66602 5V10" stroke="#0A0A0A" stroke-width="1.66667" stroke-linecap="round" stroke-linejoin="round"/>
<path d="M12.5 5V10" stroke="#0A0A0A" stroke-width="1.66667" stroke-linecap="round" stroke-linejoin="round"/>
<path d="M1.66602 10H17.9994" stroke="#0A0A0A" stroke-width="1.66667" stroke-linecap="round" stroke-linejoin="round"/>
<path d="M14.9993 15H17.4993C17.4993 15 17.916 13.5833 18.166 12.6667C18.2493 12.3333 18.3327 12 18.3327 11.6667C18.3327 11.3333 18.2493 11 18.166 10.6667L16.9993 6.5C16.7493 5.66667 15.916 5 14.9993 5H3.33268C2.89065 5 2.46673 5.17559 2.15417 5.48816C1.84161 5.80072 1.66602 6.22464 1.66602 6.66667V15H4.16602" stroke="#0A0A0A" stroke-width="1.66667" stroke-linecap="round" stroke-linejoin="round"/>
<path d="M5.83268 16.6673C6.75316 16.6673 7.49935 15.9211 7.49935 15.0007C7.49935 14.0802 6.75316 13.334 5.83268 13.334C4.91221 13.334 4.16602 14.0802 4.16602 15.0007C4.16602 15.9211 4.91221 16.6673 5.83268 16.6673Z" stroke="#0A0A0A" stroke-width="1.66667" stroke-linecap="round" stroke-linejoin="round"/>
<path d="M7.5 15H11.6667" stroke="#0A0A0A" stroke-width="1.66667" stroke-linecap="round" stroke-linejoin="round"/>
<path d="M13.3327 16.6673C14.2532 16.6673 14.9993 15.9211 14.9993 15.0007C14.9993 14.0802 14.2532 13.334 13.3327 13.334C12.4122 13.334 11.666 14.0802 11.666 15.0007C11.666 15.9211 12.4122 16.6673 13.3327 16.6673Z" stroke="#0A0A0A" stroke-width="1.66667" stroke-linecap="round" stroke-linejoin="round"/>
</svg>
