<svg width="47" height="58" viewBox="0 0 47 58" fill="none" xmlns="http://www.w3.org/2000/svg">
<path d="M43.3 14.33V10.74H39.72V7.16H36.13V3.58H32.55V0H0V54.04H3.59V57.62H46.88V14.33H43.3ZM28.82 10.9H32.4V14.48H28.82V10.9ZM35.98 46.72H7.32V7.32H25.23V18.06H35.98V46.72Z" fill="#FAF6C5"/>
<path d="M18.07 14.48H10.9V21.65H18.07V14.48Z" fill="#FAF6C5"/>
<path d="M32.4 25.23H10.9V28.81H32.4V25.23Z" fill="#FAF6C5"/>
<path d="M32.4 32.39H10.9V35.98H32.4V32.39Z" fill="#FAF6C5"/>
<path d="M25.23 39.56H10.9V43.14H25.23V39.56Z" fill="#FAF6C5"/>
<path d="M25.23 18.06V7.32001H7.32001V46.72H35.98V18.06H25.23ZM10.9 14.48H18.07V21.65H10.9V14.48ZM25.23 43.14H10.9V39.56H25.23V43.14ZM32.4 35.98H10.9V32.39H32.4V35.98ZM32.4 28.81H10.9V25.23H32.4V28.81Z" fill="#FAA826"/>
<path d="M32.4001 10.9H28.8201V14.48H32.4001V10.9Z" fill="#FAA826"/>
<path d="M14.48 7.32H18.07H21.65H25.23V3.73H21.65H18.07H14.48H10.9H7.31999H3.73999V7.32H7.31999H10.9H14.48Z" fill="black"/>
<path d="M28.81 3.73H25.23V7.31H28.81V3.73Z" fill="black"/>
<path d="M7.31999 39.56V35.98V32.39V28.81V25.23V21.65V18.06V14.48V10.9V7.32001H3.73999V10.9V14.48V18.06V21.65V25.23V28.81V32.39V35.98V39.56V43.14V46.72H7.31999V43.14V39.56Z" fill="black"/>
<path d="M18.07 21.65V18.06V14.48H14.48H10.9V18.06V21.65H14.48H18.07Z" fill="black"/>
<path d="M18.07 28.81H21.65H25.23H28.82H32.4V25.23H28.82H25.23H21.65H18.07H14.48H10.9V28.81H14.48H18.07Z" fill="black"/>
<path d="M18.07 35.98H21.65H25.23H28.82H32.4V32.39H28.82H25.23H21.65H18.07H14.48H10.9V35.98H14.48H18.07Z" fill="black"/>
<path d="M18.07 43.14H21.65H25.23V39.56H21.65H18.07H14.48H10.9V43.14H14.48H18.07Z" fill="black"/>
<path d="M43.15 21.65V18.06H39.56V14.48H35.98V10.9H32.4V14.48H28.82V10.9H32.4V7.32001H28.82H25.23V10.9V14.48V18.06H28.82H32.4H35.98V21.65V25.23V28.81V32.39V35.98V39.56V43.14V46.72H32.4H28.82H25.23H21.65H18.07H14.48H10.9H7.31999H3.73999V50.31H7.31999V53.89H43.15V50.3H43.14V21.65H43.15Z" fill="black"/>
</svg>
