<svg width="69" height="85" viewBox="0 0 69 85" fill="none" xmlns="http://www.w3.org/2000/svg">
<path d="M63.7308 21.1394V15.8435H58.4616V10.5623H53.1777V5.28115H47.9085V0H0V79.7188H5.28392V85H69V21.1394H63.7308ZM42.4185 16.0795H47.6877V21.3606H42.4185V16.0795ZM52.9569 68.9205H10.7739V10.7983H37.1346V26.6418H52.9569V68.9205Z" fill="#FAF6C5"/>
<path d="M26.5961 21.3606H16.043V31.9377H26.5961V21.3606Z" fill="#FAF6C5"/>
<path d="M47.6876 37.2189H16.043V42.5H47.6876V37.2189Z" fill="#FAF6C5"/>
<path d="M47.6876 47.7811H16.043V53.077H47.6876V47.7811Z" fill="#FAF6C5"/>
<path d="M37.1345 58.3582H16.043V63.6393H37.1345V58.3582Z" fill="#FAF6C5"/>
<path d="M37.1346 26.6418V10.7983H10.7739V68.9205H52.9569V26.6418H37.1346ZM16.0431 21.3606H26.5962V31.9377H16.0431V21.3606ZM37.1346 63.6394H16.0431V58.3582H37.1346V63.6394ZM47.6877 53.0771H16.0431V47.7812H47.6877V53.0771ZM47.6877 42.5H16.0431V37.2189H47.6877V42.5Z" fill="#29BFCD"/>
<path d="M47.6877 16.0795H42.4185V21.3606H47.6877V16.0795Z" fill="#29BFCD"/>
<path d="M21.3122 10.7983H26.5961H31.8653H37.1345V5.50244H31.8653H26.5961H21.3122H16.043H10.7738H5.50464V10.7983H10.7738H16.043H21.3122Z" fill="black"/>
<path d="M42.4037 5.50244H37.1345V10.7836H42.4037V5.50244Z" fill="black"/>
<path d="M10.7738 58.3582V53.0771V47.7812V42.5V37.2189V31.9377V26.6418V21.3606V16.0795V10.7983H5.50464V16.0795V21.3606V26.6418V31.9377V37.2189V42.5V47.7812V53.0771V58.3582V63.6394V68.9205H10.7738V63.6394V58.3582Z" fill="black"/>
<path d="M26.5961 31.9377V26.6417V21.3606H21.3122H16.043V26.6417V31.9377H21.3122H26.5961Z" fill="black"/>
<path d="M26.5961 42.5H31.8653H37.1345H42.4184H47.6876V37.2189H42.4184H37.1345H31.8653H26.5961H21.3122H16.043V42.5H21.3122H26.5961Z" fill="black"/>
<path d="M26.5961 53.077H31.8653H37.1345H42.4184H47.6876V47.7811H42.4184H37.1345H31.8653H26.5961H21.3122H16.043V53.077H21.3122H26.5961Z" fill="black"/>
<path d="M26.5961 63.6394H31.8653H37.1345V58.3583H31.8653H26.5961H21.3122H16.043V63.6394H21.3122H26.5961Z" fill="black"/>
<path d="M63.51 31.9377V26.6418H58.226V21.3606H52.9568V16.0795H47.6877V21.3606H42.4185V16.0795H47.6877V10.7983H42.4185H37.1345V16.0795V21.3606V26.6418H42.4185H47.6877H52.9568V31.9377V37.2189V42.5V47.7812V53.0771V58.3582V63.6394V68.9205H47.6877H42.4185H37.1345H31.8653H26.5961H21.3122H16.043H10.7738H5.50464V74.2164H10.7738V79.4976H63.51V74.2017H63.4952V31.9377H63.51Z" fill="black"/>
</svg>
