<svg width="59" height="89" viewBox="0 0 59 89" fill="none" xmlns="http://www.w3.org/2000/svg">
<path d="M55.7566 32.8648L55.7384 29.5719H52.4951V26.2882H45.9719L45.9537 23.0778V6.57663H42.7103V3.28373H39.4396V0H26.1109V3.28373H19.861V0H6.53227V3.28373H3.26158V29.8562H6.50494L6.53227 33.14V36.1485H3.26158V39.4322H0V62.7118H3.24336L3.26158 65.9222L6.50494 65.9956L6.53227 69.2885V72.5722H9.76652L9.79385 75.8376V85.7163H13.0281V89H49.2153V72.5722H52.4768V65.9956H55.7384V52.8607H59V32.8648H55.7566ZM9.93051 6.71421H16.4537V19.8583H19.7244V33.0024H22.9859V36.2861H13.1921V23.142H9.93051V6.71421ZM49.0968 46.1465H45.8352V49.4302H39.303V52.7139H45.8352V59.2814H42.5645V65.858H39.303V69.1417H36.0414V72.4346H39.303V79.0021H16.4537V69.1417H13.1921V62.5743H9.93051V59.2814H6.66893V42.8536H9.93051V39.5698H26.2475V46.1465H22.9859V49.4302H16.4537V52.7139H22.9859V55.9976H26.2475V49.4302H39.303V39.5698H36.0414V46.1465H32.7798V42.8536H29.5091V36.2861H32.7798V29.7095H29.5091V6.71421H36.0414V26.4257H32.7798V29.7095H42.5645V33.0024H49.0968V46.1465Z" fill="#FAF6C5"/>
<path d="M42.5646 33.0023H39.303V39.5698H42.5646V33.0023Z" fill="#FAF6C5"/>
<path d="M29.5091 55.9977H26.2476V59.2814H29.5091V55.9977Z" fill="#FAF6C5"/>
<path d="M13.192 36.286H22.9859V33.0023H19.7243V19.8582H16.4536V6.71411H9.93042V23.1419H13.192V36.286Z" fill="#29BFCD"/>
<path d="M36.0413 26.4256V6.71411H29.509V29.7094H32.7797V26.4256H36.0413Z" fill="#29BFCD"/>
<path d="M42.5645 33.0022V29.7094H32.7797V36.286H29.509V42.8534H32.7797V46.1463H36.0413V39.5697H39.3029V33.0022H42.5645Z" fill="#29BFCD"/>
<path d="M42.5646 33.0023V39.5698H39.303V49.4301H45.8353V46.1464H49.0968V33.0023H42.5646Z" fill="#29BFCD"/>
<path d="M26.2475 55.9975H29.5091V59.2812H26.2475V55.9975H22.986V52.7138H16.4537V49.4301H22.986V46.1463H26.2475V39.5697H9.93053V42.8534H6.66895V59.2812H9.93053V62.5741H13.1921V69.1416H16.4537V79.0019H39.303V72.4345H36.0414V69.1416H39.303V65.8579H42.5646V59.2812H45.8353V52.7138H39.303V49.4301H26.2475V55.9975Z" fill="#29BFCD"/>
<path d="M16.4538 6.71416V3.42126H13.1922H9.93066V6.71416H13.1922H16.4538Z" fill="black"/>
<path d="M36.0416 6.71416V3.42126H32.78H29.5093V6.71416H32.78H36.0416Z" fill="black"/>
<path d="M9.93053 39.5698H6.66895V42.8536H9.93053V39.5698Z" fill="black"/>
<path d="M52.3585 36.286V33.0023H52.3403H49.0969V36.286V39.5698V42.8535V46.1464H45.8354V49.4301H42.5647H39.3031V52.7139H42.5647H45.8354V55.9976V59.2813H42.5647V62.5742V65.8579H39.3031V69.1417H36.0415V72.4346H39.3031V75.7183V79.002H36.0415H32.7799H29.5092H26.2477H22.9861H19.7245H16.4538V75.7183V72.4346V69.1417H13.1922V65.8579V62.5742H9.93063V59.2813H6.66905V55.9976V52.7139V49.4301V46.1464V42.8535H3.40747V46.1464V49.4301V52.7139V55.9976V59.2813H6.64172V62.5742H6.66905H9.9033V65.8579H9.93063V69.1417H13.174V72.4346H13.1922V75.7183V79.002H16.4356H13.1922V82.2857H16.4356V85.5786H19.6972V85.5695H42.5464V85.5786H45.808V69.1417H49.0696V62.5742H52.3403V49.4301H55.6019V36.286H52.3585Z" fill="black"/>
<path d="M36.0416 13.2816V16.5653V19.8582V23.1419V26.4256H32.78V29.7094H36.0416H39.3032H42.5466H42.5648V26.4256H42.5466V9.99784H39.3032V6.71411H39.285H36.0416V9.99784V13.2816Z" fill="black"/>
<path d="M45.8081 33.0024H45.8354H49.097V29.7095H45.8354H45.8081H42.5647V33.0024H45.8081Z" fill="black"/>
<path d="M13.1921 39.5697H16.4537H19.7244H22.986H26.2475V42.8535V46.1464H22.986V49.4301H19.7244H16.4537V52.7138H19.7244H22.986V55.9975H26.2475V52.7138V49.4301H29.5091H32.7798H36.0414H39.303V46.1464V42.8535V39.5697H36.0414V42.8535V46.1464H32.7798V42.8535H29.5091V39.5697V36.286H32.7798V33.0023V29.7094H29.5091V26.4256V23.1419V19.8582V16.5653V13.2816V9.99784V6.71411H26.2475V9.99784V13.2816V16.5653V19.8582V23.1419V26.4256V29.7094H29.4909H26.2475V33.0023V36.286H29.4909H26.2475V33.0023H26.2293V23.1419H22.986V19.8582H22.9677V9.99784H19.7244V6.71411H19.6971H16.4537V9.99784V13.2816V16.5653V19.8582H19.7244V23.1419V26.4256V29.7094V33.0023H22.986V36.286H19.7244H16.4537H13.1921V33.0023V29.7094V26.4256V23.1419H9.93053V19.8582V16.5653V13.2816V9.99784V6.71411H6.66895V9.99784V13.2816V16.5653V19.8582V23.1419V26.4256H9.93053H9.91231V29.7094H9.93053V33.0023V36.286V39.5697H13.1739H13.1921Z" fill="black"/>
<path d="M42.5646 36.286V33.0023H39.303V36.286V39.5698H42.5646V36.286Z" fill="black"/>
<path d="M29.5091 55.9976H26.2476V59.2813H29.5091V55.9976Z" fill="black"/>
</svg>
