<svg width="46" height="69" viewBox="0 0 46 69" fill="none" xmlns="http://www.w3.org/2000/svg">
<path d="M43.4713 25.4794L43.4571 22.9265H40.9283V20.3807H35.8425L35.8283 17.8918V5.09873H33.2996V2.54581H30.7495V0H20.3576V2.54581H15.4849V0H5.09296V2.54581H2.54293V23.147H5.07165L5.09296 25.6928V28.0253H2.54293V30.5711H0V48.6193H2.52872L2.54293 51.1082L5.07165 51.1651L5.09296 53.718V56.2638H7.61458L7.63589 58.7954V66.4542H10.1575V69H38.3712V56.2638H40.9141V51.1651H43.4571V40.9819H46V25.4794H43.4713ZM7.74243 5.2054H12.8283V15.3958H15.3783V25.5861H17.9212V28.1319H10.2854V17.9416H7.74243V5.2054ZM38.2789 35.7765H35.7359V38.3223H30.643V40.8681H35.7359V45.9597H33.1859V51.0584H30.643V53.6042H28.1001V56.1572H30.643V61.2488H12.8283V53.6042H10.2854V48.5126H7.74243V45.9597H5.19951V33.2235H7.74243V30.6777H20.4642V35.7765H17.9212V38.3223H12.8283V40.8681H17.9212V43.4139H20.4642V38.3223H30.643V30.6777H28.1001V35.7765H25.5571V33.2235H23.0071V28.1319H25.5571V23.0332H23.0071V5.2054H28.1001V20.4874H25.5571V23.0332H33.1859V25.5861H38.2789V35.7765Z" fill="#FAF6C5"/>
<path d="M33.186 25.5862H30.6431V30.6778H33.186V25.5862Z" fill="#FAF6C5"/>
<path d="M23.007 43.4138H20.4641V45.9596H23.007V43.4138Z" fill="#FAF6C5"/>
<path d="M10.2854 28.1321H17.9212V25.5863H15.3783V15.3959H12.8283V5.20557H7.74243V17.9417H10.2854V28.1321Z" fill="#29BFCD"/>
<path d="M28.1 20.4875V5.20557H23.0071V23.0333H25.5571V20.4875H28.1Z" fill="#29BFCD"/>
<path d="M33.1859 25.5864V23.0334H25.5571V28.1322H23.0071V33.2238H25.5571V35.7767H28.1V30.678H30.643V25.5864H33.1859Z" fill="#29BFCD"/>
<path d="M33.186 25.5862V30.6778H30.6431V38.3223H35.736V35.7765H38.279V25.5862H33.186Z" fill="#29BFCD"/>
<path d="M20.4641 43.4141H23.0071V45.96H20.4641V43.4141H17.9212V40.8683H12.8282V38.3225H17.9212V35.7767H20.4641V30.678H7.74239V33.2238H5.19946V45.96H7.74239V48.5129H10.2853V53.6045H12.8282V61.249H30.6429V56.1574H28.1V53.6045H30.6429V51.0587H33.1859V45.96H35.7359V40.8683H30.6429V38.3225H20.4641V43.4141Z" fill="#29BFCD"/>
<path d="M12.8283 5.20551V2.65259H10.2854H7.74243V5.20551H10.2854H12.8283Z" fill="black"/>
<path d="M28.1 5.20551V2.65259H25.5571H23.0071V5.20551H25.5571H28.1Z" fill="black"/>
<path d="M7.74239 30.6777H5.19946V33.2235H7.74239V30.6777Z" fill="black"/>
<path d="M40.8217 28.132V25.5862H40.8075H38.2788V28.132V30.6778V33.2236V35.7765H35.7359V38.3223H33.1858H30.6429V40.8682H33.1858H35.7359V43.414V45.9598H33.1858V48.5127V51.0585H30.6429V53.6043H28.1V56.1572H30.6429V58.7031V61.2489H28.1H25.557H23.007H20.4641H17.9212H15.3782H12.8282V58.7031V56.1572V53.6043H10.2853V51.0585V48.5127H7.74235V45.9598H5.19942V43.414V40.8682V38.3223V35.7765V33.2236H2.65649V35.7765V38.3223V40.8682V43.414V45.9598H5.17811V48.5127H5.19942H7.72104V51.0585H7.74235V53.6043H10.2711V56.1572H10.2853V58.7031V61.2489H12.814H10.2853V63.7947H12.814V66.3476H15.3569V66.3405H33.1716V66.3476H35.7146V53.6043H38.2575V48.5127H40.8075V38.3223H43.3504V28.132H40.8217Z" fill="black"/>
<path d="M28.1001 10.2972V12.843V15.3959V17.9417V20.4875H25.5571V23.0333H28.1001H30.643H33.1717H33.1859V20.4875H33.1717V7.75138H30.643V5.20557H30.6288H28.1001V7.75138V10.2972Z" fill="black"/>
<path d="M35.7145 25.5861H35.7358H38.2787V23.0332H35.7358H35.7145H33.1858V25.5861H35.7145Z" fill="black"/>
<path d="M10.2853 30.6779H12.8282H15.3783H17.9212H20.4641V33.2237V35.7766H17.9212V38.3224H15.3783H12.8282V40.8683H15.3783H17.9212V43.4141H20.4641V40.8683V38.3224H23.0071H25.5571H28.1H30.6429V35.7766V33.2237V30.6779H28.1V33.2237V35.7766H25.5571V33.2237H23.0071V30.6779V28.1321H25.5571V25.5863V23.0334H23.0071V20.4875V17.9417V15.3959V12.843V10.2972V7.75138V5.20557H20.4641V7.75138V10.2972V12.843V15.3959V17.9417V20.4875V23.0334H22.9929H20.4641V25.5863V28.1321H22.9929H20.4641V25.5863H20.4499V17.9417H17.9212V15.3959H17.907V7.75138H15.3783V5.20557H15.357H12.8282V7.75138V10.2972V12.843V15.3959H15.3783V17.9417V20.4875V23.0334V25.5863H17.9212V28.1321H15.3783H12.8282H10.2853V25.5863V23.0334V20.4875V17.9417H7.74239V15.3959V12.843V10.2972V7.75138V5.20557H5.19946V7.75138V10.2972V12.843V15.3959V17.9417V20.4875H7.74239H7.72818V23.0334H7.74239V25.5863V28.1321V30.6779H10.2711H10.2853Z" fill="black"/>
<path d="M33.1858 28.132V25.5862H30.6428V28.132V30.6778H33.1858V28.132Z" fill="black"/>
<path d="M23.007 43.4141H20.4641V45.9599H23.007V43.4141Z" fill="black"/>
</svg>
