<svg width="102" height="102" viewBox="0 0 102 102" fill="none" xmlns="http://www.w3.org/2000/svg">
<path d="M97.233 41.8872V38.098H97.2121V38.0771H93.4242V34.288H66.7342V7.59924H62.945V3.81006H62.9241V3.78918H59.1363V0H38.098V3.81006H34.288V34.288H3.81006V38.098H0V59.1363H3.78918V62.9241H3.81006V62.945H7.59924V66.7342H34.288V93.4229H38.0771V97.2121H38.098V97.233H41.8859V101.022H62.9241V97.2121H66.7342V66.7342H97.2121V62.9241H101.022V41.8872H97.233Z" fill="#FBFADB"/>
<path d="M93.8574 45.2416V41.4315H63.3795V10.9536H59.5695V7.14355H45.2416V10.9536H41.4315V41.4315H10.9536V45.2416H7.14355V59.5695H10.9536V63.3795H41.4315V93.8574H45.2416V97.6675H59.5695V93.8574H63.3795V63.3795H93.8574V59.5695H97.6675V45.2416H93.8574Z" fill="black"/>
<path d="M41.4525 93.8784V90.0683H37.6425V59.5905H7.16456V55.7804H3.35449V41.4525H7.16456V37.6425H37.6425V7.16456H41.4525V3.35449H55.7804V7.16456H59.5905V37.6425H90.0683V41.4525H93.8784V55.7804H90.0683V59.5905H59.5905V90.0683H55.7804V93.8784H41.4525Z" fill="black"/>
<path d="M90.5238 44.807V52.4258H86.7138V56.2359H56.2359V86.7138H52.4258V90.5238H44.807V86.7138H40.9969V56.2359H10.519V52.4258H6.70898V44.807H10.519V40.9969H40.9969V10.519H44.807V6.70898H52.4258V10.519H56.2359V40.9969H86.7138V44.807H90.5238Z" fill="#00C6D3"/>
</svg>
