<?xml version="1.0" encoding="UTF-8"?>
<svg id="Layer_2" data-name="Layer 2" xmlns="http://www.w3.org/2000/svg" viewBox="0 0 71.86 88.99">
  <defs>
    <style>
      .cls-1 {
        fill: #faa826;
      }

      .cls-2 {
        fill: #24becb;
      }

      .cls-3 {
        fill: #fbf6c7;
      }
    </style>
  </defs>
  <g id="Layer_1-2" data-name="Layer 1">
    <g id="pointer2">
      <path class="cls-3" d="M68.28,35.44v-3.54h-3.58v-3.55h-3.58v-3.54h-7.15v-3.54h-7.15s-3.58-.01-3.58-.01v-3.54h-3.57V7.08h-3.58v-3.54h-3.58V0h-14.62v3.54h-3.58v28.36H0v18.1h3.58v3.55h3.58v7.09h3.57v7.09h3.58v7.09h3.58v10.63h3.58v3.54h43.24v-10.63s3.57,0,3.57,0v-10.63h3.58v-32.29h-3.58ZM14.47,39.18v3.54h3.58v3.55h3.57V7.28h7.16v31.9h3.57v-14.18h7.16v14.18h3.57v-10.63h7.16v14.17h3.57v-10.63h3.58v3.54h3.58v24.82h-3.58v10.63h-3.58v7.09h-28.61v-7.09h-3.57v-3.54h-.01v-3.55h-3.57v-7.09h-3.58v-7.08h-3.57s-.01,0-.01,0v-3.54h-3.57v-7.09h7.15Z"/>
      <g>
        <g>
          <polygon points="64.55 39.18 64.55 35.63 64.54 35.63 60.97 35.63 60.97 39.18 60.97 42.72 60.97 46.27 60.97 49.82 60.97 53.36 60.97 56.9 60.97 60.45 57.39 60.45 57.39 63.99 57.39 67.54 57.39 71.08 53.81 71.08 53.81 74.63 53.81 78.17 50.24 78.17 46.66 78.17 43.08 78.17 39.51 78.17 35.93 78.17 32.35 78.17 28.78 78.17 25.2 78.17 25.2 81.72 25.2 85.26 60.97 85.26 60.97 74.62 64.55 74.62 64.55 63.99 68.13 63.99 68.13 39.18 64.55 39.18"/>
          <rect x="21.62" y="78.17" width="3.58" height="3.54"/>
          <polygon points="25.2 74.62 25.2 71.08 21.63 71.08 21.62 71.08 21.62 67.54 21.62 67.54 21.62 63.99 18.05 63.99 18.05 67.54 18.05 67.54 18.05 71.08 21.62 71.08 21.62 74.63 21.62 78.17 25.2 78.17 25.2 74.63 25.2 74.62"/>
          <polygon points="18.05 56.9 14.47 56.9 14.47 60.45 14.47 63.99 18.05 63.99 18.05 60.45 18.05 56.9"/>
          <polygon points="14.47 49.82 10.9 49.82 10.89 49.82 10.89 53.36 10.89 56.9 14.47 56.9 14.47 53.36 14.47 49.82"/>
          <polygon points="10.89 46.27 7.32 46.27 7.32 49.81 7.32 49.82 10.89 49.82 10.89 49.81 10.89 46.27"/>
          <polygon points="18.05 42.72 18.05 46.27 21.62 46.27 21.62 42.72 21.62 39.18 21.62 35.63 21.62 32.09 21.62 28.55 21.62 25 21.62 21.46 21.62 17.91 21.62 14.37 21.62 10.82 21.62 7.28 18.05 7.28 18.05 10.82 18.05 14.37 18.05 17.91 18.05 21.46 18.05 25 18.05 28.55 18.05 32.09 18.05 35.63 18.05 39.18 14.47 39.18 14.47 42.72 18.05 42.72"/>
          <polygon points="7.32 39.18 7.32 39.18 7.32 35.64 3.74 35.64 3.74 39.18 3.74 39.18 3.74 42.72 3.74 46.27 7.32 46.27 7.32 42.72 7.32 39.18"/>
          <polygon points="14.47 39.18 14.47 35.63 10.89 35.63 7.32 35.63 7.32 39.18 10.89 39.18 14.47 39.18"/>
          <rect x="57.39" y="32.09" width="3.58" height="3.54"/>
          <polygon points="39.51 32.09 39.51 35.63 39.51 39.18 43.08 39.18 43.08 35.63 43.08 32.09 43.08 28.55 46.66 28.55 50.24 28.55 50.24 32.09 50.24 35.63 50.24 39.18 50.24 42.72 53.81 42.72 53.81 39.18 53.81 35.63 53.81 32.09 53.82 32.09 57.39 32.09 57.39 28.55 53.82 28.55 53.82 28.54 50.24 28.54 50.24 25 46.66 25 43.09 25 43.08 25 39.51 25 39.51 28.55 39.51 32.09"/>
          <polygon points="28.78 14.37 28.78 17.91 28.78 21.46 28.78 25 28.78 28.55 28.78 32.09 28.78 35.63 28.78 39.18 32.35 39.18 32.35 35.63 32.35 32.09 32.35 28.55 32.35 25 35.93 25 39.51 25 39.51 21.46 35.93 21.46 35.93 10.82 32.36 10.82 32.36 7.28 32.35 7.28 28.78 7.28 28.78 10.82 28.78 14.37"/>
          <polygon points="28.78 7.28 28.78 3.73 25.2 3.73 21.62 3.73 21.62 7.28 25.2 7.28 28.78 7.28"/>
        </g>
        <g>
          <polygon class="cls-1" points="60.97 35.63 60.97 60.45 57.39 60.45 57.39 71.08 53.81 71.08 53.81 78.17 25.2 78.17 25.2 71.08 21.63 71.08 21.63 67.54 21.62 67.54 21.62 63.99 18.05 63.99 18.05 56.9 14.47 56.9 14.47 49.82 10.9 49.82 10.9 49.81 10.89 49.81 10.89 46.27 7.32 46.27 7.32 39.18 14.47 39.18 14.47 42.72 18.05 42.72 18.05 46.27 21.62 46.27 21.62 7.28 28.78 7.28 28.78 39.18 32.35 39.18 32.35 25 39.51 25 39.51 39.18 43.08 39.18 43.08 28.55 50.24 28.55 50.24 42.72 53.81 42.72 53.81 32.09 57.39 32.09 57.39 35.63 60.97 35.63"/>
          <rect class="cls-2" x="10.89" y="49.81" width=".01" height="0"/>
          <rect class="cls-2" x="21.62" y="67.54" width=".01" height="3.54"/>
        </g>
      </g>
    </g>
  </g>
</svg>