<svg width="55" height="52" viewBox="0 0 55 52" fill="none" xmlns="http://www.w3.org/2000/svg">
<path d="M17.2387 22.2944H13.8215V25.993H17.2387V22.2944Z" fill="#FAF6C5"/>
<path d="M34.3344 25.9932H17.2388V29.6815H34.3344V25.9932Z" fill="#FAF6C5"/>
<path d="M24.0828 11.2295H20.656V22.2944H24.0828V11.2295Z" fill="#FAF6C5"/>
<path d="M30.9172 11.2295H27.5V22.2944H30.9172V11.2295Z" fill="#FAF6C5"/>
<path d="M37.7612 22.2944H34.3345V25.993H37.7612V22.2944Z" fill="#FAF6C5"/>
<path d="M51.5828 11.0752V7.37657H48.1656V3.68829H44.7388V0H6.83443V3.68829H3.41722V7.37657H0V33.5243H3.41722V37.2229H6.83443V40.9111H10.2516V48.2877H13.6784V51.9863H27.6432V48.298H31.0604V44.5994H48.1656V40.9111H51.5828V37.2229H55V11.0752H51.5828ZM44.5956 29.6814H41.1784V33.3697H24.0828V37.058H20.656V40.7566H17.2388V33.3697H10.4044V29.6814H6.97761V11.2297H10.4044V7.54141H41.1784V11.2297H44.5956V29.6814Z" fill="#FAF6C5"/>
<path d="M41.1783 11.2293V7.54102H10.4043V11.2293H6.97754V29.681H10.4043V33.3693H17.2387V40.7562H20.6559V37.0576H24.0827V33.3693H41.1783V29.681H44.5956V11.2293H41.1783ZM27.4999 11.2293H30.9171V22.2942H27.4999V11.2293ZM20.6559 11.2293H24.0827V22.2942H20.6559V11.2293ZM37.7611 25.9928H34.3344V29.681H17.2387V25.9928H13.8215V22.2942H17.2387V25.9928H34.3344V22.2942H37.7611V25.9928Z" fill="#29BFCD"/>
<path d="M48.0128 14.9178V11.2295H44.5956V14.9178V18.6061V22.2944V25.9929V29.6812H41.1783V33.3695H37.7611H34.3344H30.9171H27.4999H24.0827V37.0578H20.6559V40.7564H17.2387V37.0578V33.3695H13.8215H10.4043V37.0578H13.8215V40.7564V44.4447H17.2387V48.133H24.0827V44.4447H27.4999V40.7564H44.5956V37.0578H48.0128V33.3695H51.4395V14.9178H48.0128Z" fill="black"/>
<path d="M17.2387 7.54136H20.6559H24.0827H27.4999H30.9171H34.3344H37.7611H41.1783V11.2297H44.5955V7.54136V7.53106H41.1783V3.84277H37.7611H34.3344H30.9171H27.4999H24.0827H20.6559H17.2387H13.8215H10.4043V7.54136H13.8215H17.2387Z" fill="black"/>
<path d="M10.4043 7.5415H6.97754V11.2298H10.4043V7.5415Z" fill="black"/>
<path d="M24.0828 18.6061V14.9178V11.2295H20.656V14.9178V18.6061V22.2944H24.0828V18.6061Z" fill="black"/>
<path d="M30.9172 18.6061V14.9178V11.2295H27.5V14.9178V18.6061V22.2944H30.9172V18.6061Z" fill="black"/>
<path d="M6.97752 22.2944V18.6061V14.9178V11.2295H3.5603V14.9178V18.6061V22.2944V25.9929V29.6812H6.97752V25.9929V22.2944Z" fill="black"/>
<path d="M17.2387 22.2949H13.8215V25.9935H17.2387V22.2949Z" fill="black"/>
<path d="M37.761 22.2949H34.3342V25.9935H37.761V22.2949Z" fill="black"/>
<path d="M20.656 29.6815H24.0827H27.5H30.9172H34.3344V25.9932H30.9172H27.5H24.0827H20.656H17.2388V29.6815H20.656Z" fill="black"/>
<path d="M10.4043 29.6816H6.97754V33.3699H10.4043V29.6816Z" fill="black"/>
</svg>
