<svg width="58" height="69" viewBox="0 0 58 69" fill="none" xmlns="http://www.w3.org/2000/svg">
<path d="M54.6833 31.5207V28.6574H45.8454H43.222V25.794H40.3586V22.9227H37.4873V17.196H34.624V11.7093V2.86334H31.7606V0H22.9227V8.83795V14.3247H20.0514V20.0514H17.188V22.9227H14.3247V25.786H11.4613V28.6494H8.83795H0V37.4873H2.86334V40.3506H14.3247V43.222H17.188V46.0853H20.0514V51.812H22.9227V57.2987V66.1367H25.786V69H34.624V60.1621V54.6753H37.4873V48.9407H40.3586V46.0773H43.222V43.214H46.0853V40.3426H57.5467V31.5047H54.6833V31.5207ZM17.308 31.6407V28.7773H20.1793V25.914H23.0427V23.0507H25.906V17.436H28.7693V23.0507H31.6407V25.914H34.504V28.7773H37.3673V31.6407H40.2307V34.512H37.3673V37.3753H34.504V40.2387H31.6407V43.102H28.7693V48.8367H25.906V43.102H23.0427V40.2387H20.1793V37.3753H17.308V34.512H14.4447V31.6407H17.308Z" fill="#FBF6C7"/>
<path d="M31.6408 5.85474H28.7773V8.71824H31.6408V5.85474Z" fill="black"/>
<path d="M34.5043 20.1798H31.6408V17.3163V14.4448V11.5813H28.7773V14.4448V17.3163V14.4528H25.9138V17.3163H28.7693V20.1798V23.0513H31.6408V25.9148H34.5043V23.0513V20.1798Z" fill="black"/>
<path d="M54.5635 34.5039H51.7V37.3674H54.5635V34.5039Z" fill="black"/>
<path d="M31.6408 63.1614H28.7773V66.0249H31.6408V63.1614Z" fill="black"/>
<path d="M28.7693 2.9834H25.9058V5.8469H28.7693V2.9834Z" fill="black"/>
<path d="M28.7773 11.5815V8.71802H25.9058V11.5815V14.445H28.7773V11.5815Z" fill="black"/>
<path d="M25.9062 20.1794V17.3159H23.0427V20.1794V23.0509H25.9062V20.1794Z" fill="black"/>
<path d="M23.0427 23.0508H20.1792V25.9143H23.0427V23.0508Z" fill="black"/>
<path d="M20.1794 25.9141H17.3079V28.7776H20.1794V25.9141Z" fill="black"/>
<path d="M37.3674 25.9141H34.5039V28.7776H37.3674V25.9141Z" fill="black"/>
<path d="M17.3081 28.7773H14.4446V31.6408H17.3081V28.7773Z" fill="black"/>
<path d="M40.2307 28.7773H37.3672V31.6408H40.2307V28.7773Z" fill="black"/>
<path d="M5.84666 31.6406H2.98315V34.5041H5.84666V31.6406Z" fill="black"/>
<path d="M8.71824 34.5041H5.85474V37.3676H8.71824V34.5041H11.5817V31.6406H8.71824V34.5041Z" fill="black"/>
<path d="M48.8285 34.504H45.9651V34.512H43.1018V34.504H45.9651V31.6406H43.1018H43.0938H40.2304V34.512H37.3671V37.3753H34.5038V40.2386H31.6404V43.102H28.7691V45.9733V48.8366H25.9058V51.7H28.7691H25.9058V54.5633V57.4266H28.7691V60.29H25.9058V63.1613H28.7771V60.298H31.6404V51.7H34.5038V45.9733H37.3671V43.102H40.2304V40.2386H43.1018V37.3753H45.9651V37.3673H48.8285V34.504H51.6998V31.6406H48.8285V34.504Z" fill="black"/>
<path d="M14.4448 34.5121V31.6406H11.5813V34.5121V37.3756H14.4448H17.3083V34.5121H14.4448Z" fill="black"/>
<path d="M20.1794 37.3752H17.3079V40.2387H20.1794V37.3752Z" fill="black"/>
<path d="M23.0427 40.2385H20.1792V43.102H23.0427V40.2385Z" fill="black"/>
<path d="M25.9062 43.1021H23.0427V45.9736V48.8371H25.9062V45.9736V43.1021Z" fill="black"/>
<path d="M40.2306 31.6407V34.5121H37.3673V37.3754H34.5039V40.2388H31.6406V43.1021H28.7693V48.8368H25.9059V43.1021H23.0426V40.2388H20.1793V37.3754H17.3079V34.5121H14.4446V31.6407H17.3079V28.7774H20.1793V25.9141H23.0426V23.0507H25.9059V17.436H28.7693V23.0507H31.6406V25.9141H34.5039V28.7774H37.3673V31.6407H40.2306Z" fill="#29BFCD"/>
</svg>
