<svg width="71" height="85" viewBox="0 0 71 85" fill="none" xmlns="http://www.w3.org/2000/svg">
<path d="M67.4673 38.8298V35.3025H56.5632H53.3265V31.7752H49.7937V28.2381H46.2511V21.1835H42.7184V14.4245V3.5273H39.1857V0H28.2816V10.8873V17.6463H24.739V24.7009H21.2063V28.2381H17.6735V31.7654H14.1408V35.2927H10.9041H0V46.18H3.53273V49.7073H17.6735V53.2445H21.2063V56.7718H24.739V63.8264H28.2816V70.5854V81.4727H31.8143V85H42.7184V74.1127V67.3537H46.2511V60.2892H49.7937V56.7619H53.3265V53.2346H56.8592V49.6975H71V38.8101H67.4673V38.8298ZM21.3543 38.9776V35.4503H24.8969V31.923H28.4296V28.3957H31.9623V21.4791H35.4951V28.3957H39.0377V31.923H42.5704V35.4503H46.1031V38.9776H49.6359V42.5148H46.1031V46.0421H42.5704V49.5694H39.0377V53.0967H35.4951V60.1611H31.9623V53.0967H28.4296V49.5694H24.8969V46.0421H21.3543V42.5148H17.8215V38.9776H21.3543Z" fill="#FBF6C7"/>
<path d="M39.0378 7.21216H35.5049V10.7397H39.0378V7.21216Z" fill="black"/>
<path d="M42.571 24.8592H39.038V21.3317V17.7943V14.2668H35.5051V17.7943V21.3317V17.8042H31.9722V21.3317H35.4952V24.8592V28.3966H39.038V31.9241H42.571V28.3966V24.8592Z" fill="black"/>
<path d="M67.3193 42.5049H63.7864V46.0324H67.3193V42.5049Z" fill="black"/>
<path d="M39.0378 77.8075H35.5049V81.335H39.0378V77.8075Z" fill="black"/>
<path d="M35.4951 3.67505H31.9622V7.20255H35.4951V3.67505Z" fill="black"/>
<path d="M35.505 14.267V10.7395H31.9622V14.267V17.7945H35.505V14.267Z" fill="black"/>
<path d="M31.9626 24.8588V21.3313H28.4297V24.8588V28.3962H31.9626V24.8588Z" fill="black"/>
<path d="M28.4299 28.3958H24.897V31.9233H28.4299V28.3958Z" fill="black"/>
<path d="M24.8971 31.9231H21.3542V35.4506H24.8971V31.9231Z" fill="black"/>
<path d="M46.1033 31.9231H42.5703V35.4506H46.1033V31.9231Z" fill="black"/>
<path d="M21.3545 35.4502H17.8215V38.9777H21.3545V35.4502Z" fill="black"/>
<path d="M49.636 35.4502H46.103V38.9777H49.636V35.4502Z" fill="black"/>
<path d="M7.2136 38.9775H3.68066V42.505H7.2136V38.9775Z" fill="black"/>
<path d="M10.7563 42.505H7.22339V46.0325H10.7563V42.505H14.2893V38.9775H10.7563V42.505Z" fill="black"/>
<path d="M60.2437 42.5048H56.711V42.5147H53.1783V42.5048H56.711V38.9775H53.1783H53.1684H49.6357V42.5147H46.103V46.042H42.5702V49.5693H39.0375V53.0966H35.4949V56.6337V60.161H31.9622V63.6883H35.4949H31.9622V67.2156V70.7429H35.4949V74.2702H31.9622V77.8074H35.5048V74.2801H39.0375V63.6883H42.5702V56.6337H46.103V53.0966H49.6357V49.5693H53.1783V46.042H56.711V46.0321H60.2437V42.5048H63.7863V38.9775H60.2437V42.5048Z" fill="black"/>
<path d="M17.8218 42.5149V38.9775H14.2888V42.5149V46.0424H17.8218H21.3547V42.5149H17.8218Z" fill="black"/>
<path d="M24.8971 46.042H21.3542V49.5695H24.8971V46.042Z" fill="black"/>
<path d="M28.4299 49.5693H24.897V53.0968H28.4299V49.5693Z" fill="black"/>
<path d="M31.9626 53.0967H28.4297V56.634V60.1615H31.9626V56.634V53.0967Z" fill="black"/>
<path d="M49.6359 38.9777V42.5148H46.1031V46.0421H42.5704V49.5694H39.0377V53.0967H35.4951V60.1612H31.9623V53.0967H28.4296V49.5694H24.8969V46.0421H21.3543V42.5148H17.8215V38.9777H21.3543V35.4504H24.8969V31.9231H28.4296V28.3958H31.9623V21.4791H35.4951V28.3958H39.0377V31.9231H42.5704V35.4504H46.1031V38.9777H49.6359Z" fill="#29BFCD"/>
</svg>
