<svg width="72" height="87" viewBox="0 0 72 87" fill="none" xmlns="http://www.w3.org/2000/svg">
<path d="M68.37 39.41V35.83H57.32H54.04V32.25H50.46V28.66H46.87V21.5H43.29V14.64V3.58H39.71V0H28.66V11.05V17.91H25.07V25.07H21.49V28.66H17.91V32.24H14.33V35.82H11.05H0V46.87H3.58V50.45H17.91V54.04H21.49V57.62H25.07V64.78H28.66V71.64V82.69H32.24V86.27H43.29V75.22V68.36H46.87V61.19H50.46V57.61H54.04V54.03H57.62V50.44H71.95V39.39H68.37V39.41ZM21.64 39.56V35.98H25.23V32.4H28.81V28.82H32.39V21.8H35.97V28.82H39.56V32.4H43.14V35.98H46.72V39.56H50.3V43.15H46.72V46.73H43.14V50.31H39.56V53.89H35.97V61.06H32.39V53.89H28.81V50.31H25.23V46.73H21.64V43.15H18.06V39.56H21.64Z" fill="#FBF6C7"/>
<path d="M39.56 7.32001H35.98V10.9H39.56V7.32001Z" fill="black"/>
<path d="M43.14 25.23H39.56V21.65V18.06V14.48H35.98V18.06V21.65V18.07H32.4V21.65H35.97V25.23V28.82H39.56V32.4H43.14V28.82V25.23Z" fill="black"/>
<path d="M68.22 43.14H64.64V46.72H68.22V43.14Z" fill="black"/>
<path d="M39.56 78.97H35.98V82.55H39.56V78.97Z" fill="black"/>
<path d="M35.97 3.73001H32.39V7.31001H35.97V3.73001Z" fill="black"/>
<path d="M35.98 14.48V10.9H32.39V14.48V18.06H35.98V14.48Z" fill="black"/>
<path d="M32.3899 25.23V21.65H28.8099V25.23V28.82H32.3899V25.23Z" fill="black"/>
<path d="M28.81 28.82H25.23V32.4H28.81V28.82Z" fill="black"/>
<path d="M25.23 32.4H21.64V35.98H25.23V32.4Z" fill="black"/>
<path d="M46.72 32.4H43.14V35.98H46.72V32.4Z" fill="black"/>
<path d="M21.64 35.98H18.06V39.56H21.64V35.98Z" fill="black"/>
<path d="M50.3 35.98H46.72V39.56H50.3V35.98Z" fill="black"/>
<path d="M7.30998 39.56H3.72998V43.14H7.30998V39.56Z" fill="black"/>
<path d="M10.9 43.14H7.32001V46.72H10.9V43.14H14.48V39.56H10.9V43.14Z" fill="black"/>
<path d="M61.05 43.14H57.47V43.15H53.89V43.14H57.47V39.56H53.89H53.88H50.3V43.15H46.72V46.73H43.14V50.31H39.56V53.89H35.97V57.48V61.06H32.39V64.64H35.97H32.39V68.22V71.8H35.97V75.38H32.39V78.97H35.98V75.39H39.56V64.64H43.14V57.48H46.72V53.89H50.3V50.31H53.89V46.73H57.47V46.72H61.05V43.14H64.64V39.56H61.05V43.14Z" fill="black"/>
<path d="M18.06 43.15V39.56H14.48V43.15V46.73H18.06H21.64V43.15H18.06Z" fill="black"/>
<path d="M25.23 46.73H21.64V50.31H25.23V46.73Z" fill="black"/>
<path d="M28.81 50.31H25.23V53.89H28.81V50.31Z" fill="black"/>
<path d="M32.3899 53.89H28.8099V57.48V61.06H32.3899V57.48V53.89Z" fill="black"/>
<path d="M50.3 39.56V43.15H46.72V46.73H43.14V50.31H39.56V53.89H35.97V61.06H32.39V53.89H28.81V50.31H25.23V46.73H21.64V43.15H18.06V39.56H21.64V35.98H25.23V32.4H28.81V28.82H32.39V21.8H35.97V28.82H39.56V32.4H43.14V35.98H46.72V39.56H50.3Z" fill="#FAA826"/>
</svg>
