<svg width="49" height="49" viewBox="0 0 49 49" fill="none" xmlns="http://www.w3.org/2000/svg">
<path d="M46.1341 20.0724V17.206H43.2603V14.3397H37.5285V5.73268H34.6626V2.86634H31.7968V0H20.0771V2.86634H17.2112V11.4734H14.3374V14.3397H11.4715V17.206H0V46.1337H2.86587V49H43.2603V46.1337H46.1341V40.393H49V20.0724H46.1341ZM17.3313 20.1925V17.3261H20.1972V14.4598H23.0631V5.85278H28.8028V17.3261H25.9369V20.1925H40.2743V23.0668H28.8028V25.9332H40.2743V28.7995H28.8028V31.6658H40.2743V34.5402H28.8028V37.4065H37.4084V40.2729H11.5916V23.0668H14.4654V20.1925H17.3313ZM8.7257 23.0668V40.2729H5.85983V23.0668H8.7257Z" fill="#FBF6C7"/>
<path d="M43.1402 23.0666V20.1922H40.2743V23.0666H28.8028V25.9329H40.2743V28.7993H28.8028V31.6656H40.2743V34.54H28.8028V37.4063H37.4085V40.2726H11.5916V23.0666H8.72573V40.2726H5.85986V46.0133H40.2743V43.139H43.1402V37.4063H46.0061V23.0666H43.1402ZM34.5346 20.1922V8.71888H31.6687V5.85254H28.8028V17.3259H25.937V20.1922H34.5346Z" fill="black"/>
<path d="M40.2743 23.0666V20.1922H25.9369V17.3259H28.8028V5.85254H23.063V14.4596H20.1972V17.3259H17.3313V20.1922H14.4654V23.0666H11.5916V40.2726H37.4084V37.4063H28.8028V34.54H40.2743V31.6656H28.8028V28.7993H40.2743V25.9329H28.8028V23.0666H40.2743Z" fill="#29BFCD"/>
<path d="M8.72573 23.0664H5.85986V40.2724H8.72573V23.0664Z" fill="#29BFCD"/>
<path d="M28.8027 5.85267V2.98633H25.9369H23.063V5.85267H25.9369H28.8027Z" fill="black"/>
<path d="M28.8026 11.5932V14.4596V17.3259H25.9368V20.1922H28.8026H31.6685H34.5424H37.4083H40.2741V17.3259H37.4083H34.5424H31.6685V14.4596V11.5932V8.72688V5.85254H28.8026V8.72688V11.5932Z" fill="black"/>
<path d="M23.0629 11.5932V8.72689V5.85254H20.197V8.72689V11.5932V14.4596H23.0629V11.5932Z" fill="black"/>
<path d="M20.1972 14.4595H17.3313V17.3258H20.1972V14.4595Z" fill="black"/>
<path d="M17.3312 17.3262H14.4653V20.1925H17.3312V17.3262Z" fill="black"/>
<path d="M5.85977 20.1924H2.9939V23.0587H5.85977V20.1924Z" fill="black"/>
<path d="M8.72573 20.1924H5.85986V23.0667H8.72573V20.1924Z" fill="black"/>
<path d="M14.4653 20.1924H11.5915H8.72559V23.0667H11.5915H14.4653V20.1924Z" fill="black"/>
<path d="M40.2742 23.0667H37.4084H34.5425H31.6686H28.8027V25.9331H31.6686H34.5425H37.4084H40.2742V28.7994H43.1401V25.9331V23.0667V20.1924H40.2742V23.0667Z" fill="black"/>
<path d="M37.4084 28.7993H34.5425H31.6686H28.8027V31.6657H31.6686H34.5425H37.4084H40.2742V34.54H43.1401V31.6657V28.7993H40.2742H37.4084Z" fill="black"/>
<path d="M5.85977 34.5403V31.6659V28.7996V25.9332V23.0669H2.9939V25.9332V28.7996V31.6659V34.5403V37.4066V40.2729H5.85977V37.4066V34.5403Z" fill="black"/>
<path d="M11.5915 34.5403V31.6659V28.7996V25.9332V23.0669H8.72559V25.9332V28.7996V31.6659V34.5403V37.4066V40.2729H11.5915V37.4066V34.5403Z" fill="black"/>
<path d="M34.5425 34.54H31.6686H28.8027V37.4064H31.6686H34.5425H37.4084V40.2727H40.2742V37.4064V34.54H37.4084H34.5425Z" fill="black"/>
<path d="M5.85977 40.2729H2.9939V43.1393H5.85977V40.2729Z" fill="black"/>
<path d="M8.72573 40.2729H5.85986V43.1393H8.72573V40.2729Z" fill="black"/>
<path d="M31.6686 40.2729H28.8027H25.9368H23.0629H20.1971H17.3312H14.4653H11.5915H8.72559V43.1393H11.5915H14.4653H17.3312H20.1971H23.0629H25.9368H28.8027H31.6686H34.5424H37.4083V40.2729H34.5424H31.6686Z" fill="black"/>
</svg>
