<svg width="82" height="82" viewBox="0 0 82 82" fill="none" xmlns="http://www.w3.org/2000/svg">
<path d="M77.2041 33.5905V28.7938H72.3947V23.9971H62.8028V9.59346H58.0069V4.79673H53.2109V0H33.5984V4.79673H28.8025V19.2003H23.9931V23.9971H19.1972V28.7938H0V77.2033H4.79595V82H72.3947V77.2033H77.2041V67.5964H82V33.5905H77.2041ZM29.0034 33.7915V28.9948H33.7994V24.198H38.5953V9.79444H48.2006V28.9948H43.4047V33.7915H67.3978V38.6016H48.2006V43.3984H67.3978V48.1951H48.2006V52.9918H67.3978V57.802H48.2006V62.5987H62.6019V67.3954H19.3981V38.6016H24.2075V33.7915H29.0034ZM14.6022 38.6016V67.3954H9.80624V38.6016H14.6022Z" fill="#FBF6C7"/>
<path d="M72.1937 38.6016V33.7915H67.3977V38.6016H48.2005V43.3984H67.3977V48.1951H48.2005V52.9918H67.3977V57.802H48.2005V62.5987H62.6018V67.3954H19.398V38.6016H14.6021V67.3954H9.80615V77.0023H67.3977V72.1922H72.1937V62.5987H76.9896V38.6016H72.1937ZM57.7924 33.7915V14.5912H52.9965V9.79443H48.2005V28.9948H43.4046V33.7915H57.7924Z" fill="black"/>
<path d="M67.3977 38.6016V33.7915H43.4046V28.9948H48.2006V9.79443H38.5953V24.198H33.7993V28.9948H29.0034V33.7915H24.2074V38.6016H19.3981V67.3954H62.6018V62.5987H48.2006V57.8019H67.3977V52.9918H48.2006V48.1951H67.3977V43.3984H48.2006V38.6016H67.3977Z" fill="#29BFCD"/>
<path d="M14.6021 38.6016H9.80615V67.3953H14.6021V38.6016Z" fill="#29BFCD"/>
<path d="M48.2006 9.79441V4.99768H43.4047H38.5953V9.79441H43.4047H48.2006Z" fill="black"/>
<path d="M48.2006 19.4013V24.198V28.9948H43.4047V33.7915H48.2006H52.9966H57.8059H62.6019H67.3978V28.9948H62.6019H57.8059H52.9966V24.198V19.4013V14.6046V9.79443H48.2006V14.6046V19.4013Z" fill="black"/>
<path d="M38.5953 19.4013V14.6046V9.79443H33.7993V14.6046V19.4013V24.198H38.5953V19.4013Z" fill="black"/>
<path d="M33.7994 24.198H29.0034V28.9947H33.7994V24.198Z" fill="black"/>
<path d="M29.0033 28.9948H24.2074V33.7915H29.0033V28.9948Z" fill="black"/>
<path d="M9.8062 33.7915H5.01025V38.5882H9.8062V33.7915Z" fill="black"/>
<path d="M14.6021 33.7915H9.80615V38.6016H14.6021V33.7915Z" fill="black"/>
<path d="M24.2075 33.7915H19.3981H14.6022V38.6016H19.3981H24.2075V33.7915Z" fill="black"/>
<path d="M67.3978 38.6016H62.6018H57.8059H52.9965H48.2006V43.3984H52.9965H57.8059H62.6018H67.3978V48.1951H72.1937V43.3984V38.6016V33.7915H67.3978V38.6016Z" fill="black"/>
<path d="M62.6018 48.1951H57.8059H52.9965H48.2006V52.9918H52.9965H57.8059H62.6018H67.3978V57.8019H72.1937V52.9918V48.1951H67.3978H62.6018Z" fill="black"/>
<path d="M9.8062 57.8019V52.9918V48.195V43.3983V38.6016H5.01025V43.3983V48.195V52.9918V57.8019V62.5986V67.3953H9.8062V62.5986V57.8019Z" fill="black"/>
<path d="M19.3981 57.8019V52.9918V48.195V43.3983V38.6016H14.6022V43.3983V48.195V52.9918V57.8019V62.5986V67.3953H19.3981V62.5986V57.8019Z" fill="black"/>
<path d="M57.8059 57.8019H52.9965H48.2006V62.5986H52.9965H57.8059H62.6018V67.3953H67.3978V62.5986V57.8019H62.6018H57.8059Z" fill="black"/>
<path d="M9.8062 67.3954H5.01025V72.1921H9.8062V67.3954Z" fill="black"/>
<path d="M14.6021 67.3954H9.80615V72.1921H14.6021V67.3954Z" fill="black"/>
<path d="M52.9966 67.3954H48.2006H43.4047H38.5953H33.7994H29.0034H24.2075H19.3981H14.6022V72.1921H19.3981H24.2075H29.0034H33.7994H38.5953H43.4047H48.2006H52.9966H57.8059H62.6018V67.3954H57.8059H52.9966Z" fill="black"/>
</svg>
