<svg width="274" height="298" viewBox="0 0 274 298" fill="none" xmlns="http://www.w3.org/2000/svg">
<path d="M260.003 65.0224V51.1993H259.866V51.0624H246.038V37.2351H245.902V13.8273H232.074V0H24.7888V37.2351H12.3923V51.1993H0V156.086H12.3923V168.483H13.8232V169.914H24.7888V182.493H38.6161V196.32H75.8512V203.175H62.0239V283.274H75.8512V297.101H208.716V217.003H196.27V207.149H208.716V196.32H245.902V182.31H259.866V169.914H273.826V65.0224H260.003Z" fill="#FBFADB"/>
<path d="M260.003 78.8498H246.038V64.8897H232.074V27.6547H52.4435V64.8897H40.047V78.8498H27.6505V156.086H40.047V168.483H52.4435V182.493H89.6785V193.321H103.643V207.285H117.603V230.83H89.6785V283.274H194.889V230.83H168.528V207.285H182.443V193.321H194.889V182.493H232.074V168.483H246.038V156.086H260.003V78.8498Z" fill="black"/>
<path d="M26.2238 114.608L26.2238 154.66H66.275V114.608H26.2238Z" fill="black"/>
<path d="M52.4435 128.436H40.047V140.832H52.4435V128.436Z" fill="#FBA927"/>
<path d="M13.8273 65.0266L13.8273 142.263H53.8785L53.8785 65.0266H13.8273Z" fill="black"/>
<path d="M190.595 114.607V154.658H232.21V114.607H190.595Z" fill="black"/>
<path d="M218.384 128.436H204.42V140.832H218.384V128.436Z" fill="#FBA927"/>
<path d="M204.558 65.024V142.26H246.173V65.024H204.558Z" fill="black"/>
<path d="M75.8512 269.446V217.003H103.775V193.458H89.8154V179.494H75.8512V168.665H38.6161V127.05H52.5803V92.6771H26.2197V51.0624H38.6161V13.8273H218.247V51.0624H232.211V92.6771H207.418V127.05H218.247V168.665H181.062V179.494H168.62V193.458H154.701V217.003H181.062V269.446H75.8512Z" fill="black"/>
<path d="M40.047 78.8498H27.6505V128.432H40.047V78.8498Z" fill="#FBA927"/>
<path d="M232.348 78.8498H218.384V128.432H232.348V78.8498Z" fill="#FBA927"/>
<path d="M179.631 128.436V140.878H204.42V154.842H167.234V165.667H154.792V179.631H140.874V230.83H167.234V255.619H89.6785V230.83H117.603V179.631H103.643V165.667H89.6785V154.842H52.4435V140.878H78.8V128.436H66.4077V78.8498H40.047V64.8897H66.4077V40.0511H52.4435V27.6547H204.42V40.0511H193.591V64.8897H218.384V78.8498H193.591V128.436H179.631Z" fill="#FBA927"/>
</svg>
