<svg width="96" height="96" viewBox="0 0 96 96" fill="none" xmlns="http://www.w3.org/2000/svg">
<path d="M84.8629 52.4019V49.4542H81.9152V46.5065H76.0208V22.9269H73.0731V19.9792H70.1254V17.0325H22.9267V19.9792H19.979V46.5065H11.1369V49.4542H8.18921V73.0732H11.1369V76.0209H14.0846V78.9676H84.8629V76.0209H87.8106V52.4019H84.8629Z" fill="#FBFADB"/>
<path d="M25.8848 67.1688V25.8847H28.8315V22.937H70.1165V25.8847H73.0632V67.1688H25.8848Z" fill="black"/>
<path d="M67.1587 28.8415V25.8938H31.7893V28.8415H28.8416V64.2109H70.1064V28.8415H67.1587ZM61.2633 40.6313H58.3156V43.579H55.3679V46.5267H52.4202V49.4744H49.4725V52.4221H43.577V49.4744H40.6293V46.5267H37.6816V43.579H40.6293V40.6313H43.577V43.579H49.4725V40.6313H52.4202V37.6836H55.3679V34.7359H58.3156V37.6836H61.2633V40.6313Z" fill="black"/>
<path d="M17.0417 76.0109V73.0632H14.094V55.3588H17.0417V52.4121H28.8517V64.2019H70.0963V52.4121H81.9064V55.3588H84.8531V73.0632H81.9064V76.0109H17.0417Z" fill="black"/>
<path d="M81.8962 58.3166V70.1064H78.9485V73.0541H19.9995V70.1064H17.0518V58.3166H19.9995V55.3689H25.8939V61.2633H22.9462V67.1587H76.0008V61.2633H73.0541V55.3689H78.9485V58.3166H81.8962Z" fill="black"/>
<path d="M22.937 64.221V22.937H25.8847V19.9893H67.1688V22.937H70.1155V64.221H22.937Z" fill="black"/>
<path d="M64.2109 25.8937V22.946H28.8415V25.8937H25.8938V61.2632H67.1586V25.8937H64.2109ZM58.3165 37.6836H55.3688V40.6313H52.4211V43.579H49.4734V46.5267H46.5257V49.4744H40.6303V46.5267H37.6826V43.579H34.7349V40.6313H37.6826V37.6836H40.6303V40.6313H46.5257V37.6836H49.4734V34.7359H52.4211V31.7881H55.3688V34.7359H58.3165V37.6836Z" fill="#FBA927"/>
<path d="M14.0939 73.0632V70.1155H11.1472V52.4121H14.0939V49.4644H25.9039V61.2542H67.1486V49.4644H78.9586V52.4121H81.9063V70.1155H78.9586V73.0632H14.0939Z" fill="black"/>
<path d="M78.9485 55.3688V67.1587H76.0008V70.1064H17.0517V67.1587H14.104V55.3688H17.0517V52.4211H22.9461V58.3166H19.9994V64.211H73.0541V58.3166H70.1064V52.4211H76.0008V55.3688H78.9485Z" fill="#FBA927"/>
</svg>
