<svg width="116" height="78" viewBox="0 0 116 78" fill="none" xmlns="http://www.w3.org/2000/svg">
<path d="M48.358 42.2496V45.4857H51.5795V42.2496H48.358ZM51.5795 39.0045V42.2496H54.792V39.0045H51.5795ZM54.792 35.7684V39.0045H58.0045V35.7684H54.792ZM58.0045 32.5324V35.7684H61.2259V32.5324H58.0045ZM61.2259 29.2873V32.5324H67.6509V29.2873H61.2259ZM67.6509 32.5324V35.7684H70.8634V32.5324H67.6509ZM70.8634 35.7684V39.0045H77.2974V35.7684H70.8634ZM77.2974 32.5324V35.7684H80.5099V32.5324H77.2974ZM77.2974 39.0045V42.2496H83.7224V39.0045H77.2974ZM80.5099 29.2873V32.5324H83.7224V29.2873H80.5099ZM83.7224 26.0512V29.2873H93.3689V26.0512H83.7224ZM83.7224 42.2496V45.4857H93.3689V42.2496H83.7224ZM93.3689 29.2873V32.5324H96.5814V29.2873H93.3689ZM93.3689 29.2873V32.5324H96.5814V29.2873H93.3689ZM83.7224 26.0512V29.2873H93.3689V26.0512H83.7224ZM93.3689 45.4857V42.2496H83.7224V45.4857H93.3689ZM80.5099 32.5324H83.7224V29.2873H80.5099V32.5324ZM83.7224 42.2496V39.0045H77.2974V42.2496H83.7224ZM77.2974 35.7684H80.5099V32.5324H77.2974V35.7684ZM70.8634 35.7684V39.0045H77.2974V35.7684H70.8634ZM67.6509 32.5324V35.7684H70.8634V32.5324H67.6509ZM61.2259 29.2873V32.5324H67.6509V29.2873H61.2259ZM58.0045 35.7684H61.2259V32.5324H58.0045V35.7684ZM54.792 39.0045H58.0045V35.7684H54.792V39.0045ZM51.5795 42.2496H54.792V39.0045H51.5795V42.2496ZM48.358 45.4857H51.5795V42.2496H48.358V45.4857ZM9.79004 16.334V64.9111H103.015V16.334H9.79004ZM99.8029 32.5324H96.5814V35.7684H99.8029V45.4857H93.3689V48.7217H99.8029V61.675H67.6509V58.439H61.2259V61.675H13.0025V55.2029H16.215V51.9578H13.0025V19.5791H99.8029V32.5324ZM93.3689 29.2873V32.5324H96.5814V29.2873H93.3689ZM83.7224 42.2496V45.4857H93.3689V42.2496H83.7224ZM93.3689 29.2873V26.0512H83.7224V29.2873H93.3689ZM83.7224 29.2873H80.5099V32.5324H83.7224V29.2873ZM83.7224 42.2496V39.0045H77.2974V42.2496H83.7224ZM80.5099 32.5324H77.2974V35.7684H80.5099V32.5324ZM77.2974 39.0045V35.7684H70.8634V39.0045H77.2974ZM70.8634 35.7684V32.5324H67.6509V35.7684H70.8634ZM67.6509 32.5324V29.2873H61.2259V32.5324H67.6509ZM54.792 55.2029V58.439H61.2259V55.2029H54.792ZM61.2259 32.5324H58.0045V35.7684H61.2259V32.5324ZM58.0045 35.7684H54.792V39.0045H58.0045V35.7684ZM54.792 55.2029V51.9578H51.5795V55.2029H54.792ZM54.792 39.0045H51.5795V42.2496H54.792V39.0045ZM51.5795 51.9578V48.7217H48.358V51.9578H51.5795ZM51.5795 42.2496H48.358V45.4857H51.5795V42.2496ZM48.358 48.7217V45.4857H45.1455V48.7217H48.358ZM45.1455 45.4857V42.2496H41.933V45.4857H45.1455ZM41.933 42.2496V39.0045H38.7205V42.2496H41.933ZM38.7205 39.0045V35.7684H32.2865V39.0045H38.7205ZM32.2865 39.0045H29.074V42.2496H32.2865V39.0045ZM29.074 42.2496H25.8615V45.4857H29.074V42.2496ZM25.8615 45.4857H22.649V48.7217H25.8615V45.4857ZM22.649 51.9578V48.7217H16.215V51.9578H22.649ZM48.358 42.2496V45.4857H51.5795V42.2496H48.358ZM51.5795 39.0045V42.2496H54.792V39.0045H51.5795ZM54.792 35.7684V39.0045H58.0045V35.7684H54.792ZM58.0045 32.5324V35.7684H61.2259V32.5324H58.0045ZM61.2259 29.2873V32.5324H67.6509V29.2873H61.2259ZM67.6509 32.5324V35.7684H70.8634V32.5324H67.6509ZM67.6509 32.5324V35.7684H70.8634V32.5324H67.6509ZM61.2259 29.2873V32.5324H67.6509V29.2873H61.2259ZM58.0045 32.5324V35.7684H61.2259V32.5324H58.0045ZM54.792 35.7684V39.0045H58.0045V35.7684H54.792ZM51.5795 39.0045V42.2496H54.792V39.0045H51.5795ZM48.358 42.2496V45.4857H51.5795V42.2496H48.358Z" fill="#FBF6C7"/>
<path d="M112.787 3.2451V0H0V74.7549H3.2125V78H116V3.2451H112.787ZM6.56858 13.0979H106.228V68.1472H6.56858V13.0979ZM106.228 9.86186H103.015V6.6258H106.228V9.86186ZM99.8029 9.86186H96.5814V6.6258H99.8029V9.86186ZM93.3689 9.86186H90.1564V6.6258H93.3689V9.86186Z" fill="#FBF6C7"/>
<path d="M93.3688 6.62585H90.1562V9.86192H93.3688V6.62585Z" fill="#29BFCD"/>
<path d="M99.8027 6.62585H96.5812V9.86192H99.8027V6.62585Z" fill="#29BFCD"/>
<path d="M106.228 6.62585H103.015V9.86192H106.228V6.62585Z" fill="#29BFCD"/>
<path d="M6.56836 68.1473H106.228V13.098H6.56836V68.1473ZM9.78983 16.3341H103.015V64.9112H9.78983V16.3341Z" fill="#29BFCD"/>
<path d="M13.0024 51.9578H16.2149V48.7218H22.6489V45.4857H25.8614V42.2496H29.0739V39.0045H32.2864V35.7685H38.7204V39.0045H41.9329V42.2496H45.1454V45.4857H48.3579V42.2496H51.5794V39.0045H54.7919V35.7685H58.0044V32.5324H61.2258V29.2873H67.6508V32.5324H70.8633V35.7685H77.2973V32.5324H80.5098V29.2873H83.7223V26.0512H93.3688V29.2873H96.5813V32.5324H99.8028V19.5791H13.0024V51.9578Z" fill="#29BFCD"/>
<path d="M54.7919 55.203H51.5794V51.9579H48.3579V48.7219H45.1454V45.4858H41.9329V42.2497H38.7204V39.0046H32.2864V42.2497H29.0739V45.4858H25.8614V48.7219H22.6489V51.9579H16.2149V55.203H13.0024V61.6752H61.2258V58.4391H54.7919V55.203Z" fill="#29BFCD"/>
<path d="M83.7221 42.2497H77.2971V39.0046H70.8631V35.7685H67.6506V32.5325H61.2256V35.7685H58.0041V39.0046H54.7916V42.2497H51.5791V45.4858H48.3577V48.7218H51.5791V51.9579H54.7916V55.203H61.2256V58.4391H67.6506V61.6751H99.8025V48.7218H93.3686V45.4858H83.7221V42.2497Z" fill="#29BFCD"/>
<path d="M93.3686 29.2874H83.7221V32.5325H80.5096V35.7685H77.2971V39.0046H83.7221V42.2497H93.3686V45.4858H99.8026V35.7685H96.5811V32.5325H93.3686V29.2874Z" fill="#29BFCD"/>
<path d="M93.3688 3.38074H90.1562V6.62584H93.3688V3.38074Z" fill="black"/>
<path d="M99.8029 6.62584H103.015V3.38978H99.8029V3.38074H96.5814V3.38978H93.3689V6.62584H96.5814H99.8029Z" fill="black"/>
<path d="M106.228 3.38074H103.015V6.62584H106.228V3.38074Z" fill="black"/>
<path d="M109.44 3.38977H106.228V6.62583H109.44V3.38977Z" fill="black"/>
<path d="M90.1564 29.2873H93.3689V26.0513H90.1564H86.9439H83.7224V29.2873H86.9439H90.1564Z" fill="black"/>
<path d="M67.6508 32.5325V29.2874H64.4383H61.2258V32.5325H64.4383H67.6508Z" fill="black"/>
<path d="M83.7223 29.2874H80.5098V32.5325H83.7223V29.2874Z" fill="black"/>
<path d="M96.5814 29.2874H93.3689V32.5325H96.5814V29.2874Z" fill="black"/>
<path d="M61.2259 32.5325H58.0044V35.7685H61.2259V32.5325Z" fill="black"/>
<path d="M70.8634 32.5325H67.6509V35.7685H70.8634V32.5325Z" fill="black"/>
<path d="M80.5099 32.5325H77.2974V35.7685H80.5099V32.5325Z" fill="black"/>
<path d="M35.5079 35.7686H32.2864V39.0046H35.5079H38.7204V35.7686H35.5079Z" fill="black"/>
<path d="M58.0042 35.7686H54.7917V39.0046H58.0042V35.7686Z" fill="black"/>
<path d="M74.0848 39.0046H77.2973V35.7686H74.0848H70.8633V39.0046H74.0848Z" fill="black"/>
<path d="M32.2865 39.0045H29.074V42.2496H32.2865V39.0045Z" fill="black"/>
<path d="M41.933 39.0045H38.7205V42.2496H41.933V39.0045Z" fill="black"/>
<path d="M54.7918 39.0045H51.5793V42.2496H54.7918V39.0045Z" fill="black"/>
<path d="M80.5099 42.2496H83.7224V39.0045H80.5099H77.2974V42.2496H80.5099Z" fill="black"/>
<path d="M29.0738 42.2496H25.8613V45.4857H29.0738V42.2496Z" fill="black"/>
<path d="M45.1454 42.2496H41.9329V45.4857H45.1454V42.2496Z" fill="black"/>
<path d="M51.5794 42.2496H48.3579V45.4857H51.5794V42.2496Z" fill="black"/>
<path d="M90.1564 42.2496H86.9439H83.7224V45.4857H86.9439H90.1564H93.3689V42.2496H90.1564Z" fill="black"/>
<path d="M25.8614 45.4857H22.6489V48.7218H25.8614V45.4857Z" fill="black"/>
<path d="M48.3578 45.4857H45.1453V48.7218H48.3578V45.4857Z" fill="black"/>
<path d="M22.6488 51.9579V48.7218H19.4273H16.2148V51.9579H19.4273H22.6488Z" fill="black"/>
<path d="M51.5794 48.7218H48.3579V51.9579H51.5794V48.7218Z" fill="black"/>
<path d="M54.7918 51.9579H51.5793V55.203H54.7918V51.9579Z" fill="black"/>
<path d="M58.0042 55.203H54.7917V58.4391H58.0042H61.2257V55.203H58.0042Z" fill="black"/>
<path d="M16.215 64.9111H103.015V16.334H9.79004V64.9111H16.215ZM13.0025 58.439V55.2029H16.215V51.9578H13.0025V19.5791H99.8029V32.5324H96.5814V35.7684H99.8029V45.4857H93.3689V48.7217H99.8029V61.675H67.6509V58.439H61.2259V61.675H13.0025V58.439Z" fill="black"/>
<path d="M109.44 6.62486H106.228V9.86092H103.015V6.62486H99.8028V9.86092H96.5813V6.62486H93.3688V9.86092H90.1563V6.62486H86.9438H90.1563V3.38879H86.9438H83.7223H80.5098H77.2973H74.0848H70.8633H67.6508H64.4383H61.2258H58.0044H54.7919H51.5794H48.3669H45.1454H41.9329H38.7204H35.5079H32.2864H29.0739H25.8614H22.6489H19.4274H16.2149H13.0024H9.78993H6.56846H3.35596V6.62486V9.86092V13.097V16.333V19.5782V22.8142V26.0503V29.2863V32.5314V35.7675V39.0036V42.2487V45.4847V48.7208V51.9569V55.202V58.438V61.6741V64.9102V68.1462H6.56846V64.9102V61.6741V58.438V55.202V51.9569V48.7208V45.4847V42.2487V39.0036V35.7675V32.5314V29.2863V26.0503V22.8142V19.5782V16.333V13.097H9.78993H13.0024H16.2149H19.4274H22.6489H25.8614H29.0739H32.2864H35.5079H38.7204H41.9329H45.1454H48.3579H51.5794H54.7919H58.0044H61.2258H64.4383H67.6508H70.8633H74.0848H77.2973H80.5098H83.7223H86.9438H90.1563H93.3688H96.5813H99.8028H103.015H106.228V16.333V19.5782V22.8142V26.0503V29.2863V32.5314V35.7675V39.0036V42.2487V45.4847V48.7208V51.9569V55.202V58.438V61.6741V64.9102V68.1462H103.015H99.8028H96.5813H93.3688H90.1563H86.9438H83.7223H80.5098H77.2973H74.0848H70.8633H67.6508H64.4383H61.2258H58.0044H54.7919H51.5794H48.3579H45.1454H41.9329H38.7204H35.5079H32.2864H29.0739H25.8614H22.6489H19.4274H16.2149H13.0024H9.78993H6.56846H3.35596V71.3913H6.56846V74.6274H9.78993V71.3913V74.6274H112.662V6.62486H109.44Z" fill="black"/>
</svg>
